<svg width="260" height="80" viewBox="0 0 260 80" fill="none" xmlns="http://www.w3.org/2000/svg">
<g clip-path="url(#clip0_102_31)">
<rect width="260" height="80" fill="#30DD81"/>
<path d="M77.1384 58.1875C77.0603 57.1094 76.9822 56.0234 76.9041 54.9297C76.8416 53.8359 76.7634 52.7344 76.6697 51.625C75.9822 51.5781 75.3181 51.5312 74.6775 51.4844C74.0369 51.4375 73.3884 51.4141 72.7322 51.4141H72.4275C72.3494 52.5391 72.2791 53.6484 72.2166 54.7422C72.1541 55.8359 72.0994 56.9219 72.0525 58L66.1931 57.9062C67.1619 52.3281 68.0369 46.7656 68.8181 41.2188C69.5994 35.6719 70.2634 30.0781 70.8103 24.4375L77.865 24.5547C78.4587 30.1328 79.1697 35.6797 79.9978 41.1953C80.8416 46.6953 81.8259 52.2344 82.9509 57.8125L77.1384 58.1875ZM74.3962 30.3438C74.0837 33.2188 73.7869 36.0859 73.5056 38.9453C73.2244 41.8047 72.9666 44.6875 72.7322 47.5938C73.0603 47.625 73.3962 47.6406 73.74 47.6406C74.0837 47.6406 74.4353 47.6406 74.7947 47.6406H76.3181C76.0525 44.7344 75.7556 41.8516 75.4275 38.9922C75.0994 36.1328 74.7556 33.25 74.3962 30.3438ZM103.387 24.2031C103.183 27.3438 103.027 30.4609 102.918 33.5547C102.808 36.6328 102.754 39.7266 102.754 42.8359C102.754 45.2578 102.785 47.6484 102.847 50.0078C102.926 52.3672 103.051 54.7422 103.222 57.1328L98.4881 56.9922C97.8631 54.9609 97.2459 52.9453 96.6366 50.9453C96.0428 48.9297 95.4491 46.9297 94.8553 44.9453C94.2616 42.9609 93.6522 40.9844 93.0272 39.0156C92.4178 37.0469 91.785 35.0859 91.1287 33.1328C91.1756 37.2109 91.2459 41.2812 91.3397 45.3438C91.4491 49.3906 91.6366 53.4297 91.9022 57.4609L86.4881 57.4141C86.6756 52.4297 86.7694 47.4219 86.7694 42.3906C86.7694 39.2969 86.7381 36.2344 86.6756 33.2031C86.6131 30.1719 86.5194 27.125 86.3944 24.0625L92.9569 24.2031C93.7537 27.6406 94.6053 31.1328 95.5116 34.6797C96.4178 38.2266 97.3787 41.7266 98.3944 45.1797C98.285 41.6484 98.1209 38.1172 97.9022 34.5859C97.6991 31.0391 97.4725 27.5625 97.2225 24.1562L103.387 24.2031ZM123.002 42.0625C123.002 44.4844 122.822 46.5781 122.463 48.3438C122.119 50.0938 121.658 51.5859 121.08 52.8203C120.502 54.0547 119.846 55.0547 119.111 55.8203C118.392 56.5859 117.658 57.1797 116.908 57.6016C116.158 58.0234 115.432 58.3047 114.728 58.4453C114.025 58.6016 113.408 58.6797 112.877 58.6797L108.072 58.2812C108.275 55.0938 108.432 51.8906 108.541 48.6719C108.65 45.4375 108.705 42.1797 108.705 38.8984C108.705 36.4141 108.674 33.9531 108.611 31.5156C108.549 29.0781 108.455 26.6406 108.33 24.2031C108.705 24.1719 109.072 24.1484 109.432 24.1328C109.791 24.1172 110.142 24.1094 110.486 24.1094C113.08 24.1094 115.189 24.5547 116.814 25.4453C118.439 26.3203 119.705 27.5547 120.611 29.1484C121.533 30.7266 122.158 32.6172 122.486 34.8203C122.83 37.0078 123.002 39.4219 123.002 42.0625ZM118.221 41.4297C118.221 40.6641 118.205 39.8516 118.174 38.9922C118.142 38.1172 118.072 37.25 117.963 36.3906C117.869 35.5312 117.721 34.6953 117.517 33.8828C117.314 33.0703 117.049 32.3281 116.721 31.6562C116.392 30.9688 115.986 30.3828 115.502 29.8984C115.033 29.4141 114.463 29.0703 113.791 28.8672C113.697 30.5859 113.611 32.2656 113.533 33.9062C113.471 35.5312 113.416 37.1406 113.369 38.7344C113.322 40.3281 113.283 41.9141 113.252 43.4922C113.236 45.0547 113.228 46.625 113.228 48.2031C113.228 49.2344 113.228 50.2812 113.228 51.3438C113.228 52.3906 113.244 53.4609 113.275 54.5547C113.994 54.4766 114.619 54.2031 115.15 53.7344C115.682 53.2656 116.127 52.6797 116.486 51.9766C116.861 51.2578 117.158 50.4531 117.377 49.5625C117.611 48.6562 117.791 47.7344 117.916 46.7969C118.041 45.8438 118.119 44.9062 118.15 43.9844C118.197 43.0625 118.221 42.2109 118.221 41.4297ZM141.211 34.375C141.211 35.4219 141.109 36.4766 140.906 37.5391C140.719 38.5859 140.406 39.6016 139.969 40.5859C139.531 41.5547 138.969 42.4688 138.281 43.3281C137.594 44.1719 136.75 44.9219 135.75 45.5781C136.625 47.8125 137.586 49.9609 138.633 52.0234C139.695 54.0703 140.875 56.0469 142.172 57.9531L136.312 58.2812L132.328 46.9609C132.391 48.8672 132.469 50.7578 132.562 52.6328C132.656 54.5078 132.773 56.3594 132.914 58.1875H127.195C127.445 54.6406 127.625 51.0938 127.734 47.5469C127.859 44 127.922 40.4297 127.922 36.8359C127.922 34.7578 127.906 32.6875 127.875 30.625C127.844 28.5469 127.781 26.4531 127.687 24.3438C128.516 24.0938 129.352 23.9297 130.195 23.8516C131.055 23.7734 131.781 23.7344 132.375 23.7344C132.797 23.7344 133.305 23.7812 133.898 23.875C134.508 23.9531 135.141 24.125 135.797 24.3906C136.453 24.6562 137.102 25.0312 137.742 25.5156C138.398 26 138.977 26.6406 139.477 27.4375C139.992 28.2188 140.406 29.1797 140.719 30.3203C141.047 31.4453 141.211 32.7969 141.211 34.375ZM132.281 43.1641C132.828 43.0078 133.305 42.7812 133.711 42.4844C134.133 42.1719 134.5 41.8203 134.812 41.4297C135.125 41.0391 135.383 40.625 135.586 40.1875C135.805 39.75 135.984 39.3125 136.125 38.875C136.437 37.8594 136.617 36.75 136.664 35.5469C136.664 35.5156 136.656 35.3281 136.641 34.9844C136.641 34.625 136.602 34.1797 136.523 33.6484C136.445 33.1172 136.328 32.5391 136.172 31.9141C136.031 31.2891 135.82 30.6875 135.539 30.1094C135.258 29.5156 134.898 28.9922 134.461 28.5391C134.023 28.0859 133.492 27.7656 132.867 27.5781C132.68 30.0312 132.531 32.4766 132.422 34.9141C132.328 37.3359 132.281 39.7812 132.281 42.25V43.1641ZM161.412 41.5938C161.412 44.7344 161.193 47.3984 160.756 49.5859C160.334 51.7734 159.756 53.5547 159.022 54.9297C158.287 56.2891 157.42 57.2812 156.42 57.9062C155.42 58.5156 154.35 58.8203 153.209 58.8203C152.068 58.8203 150.998 58.5312 149.998 57.9531C148.998 57.3594 148.123 56.3906 147.373 55.0469C146.623 53.7031 146.029 51.9297 145.592 49.7266C145.17 47.5234 144.959 44.8125 144.959 41.5938C144.959 38.3594 145.17 35.6172 145.592 33.3672C146.029 31.1016 146.623 29.2656 147.373 27.8594C148.123 26.4375 148.998 25.4141 149.998 24.7891C150.998 24.1484 152.068 23.8281 153.209 23.8281C154.35 23.8281 155.42 24.1406 156.42 24.7656C157.42 25.375 158.287 26.3828 159.022 27.7891C159.756 29.1953 160.334 31.0312 160.756 33.2969C161.193 35.5469 161.412 38.3125 161.412 41.5938ZM156.186 41.5938C156.186 39.1406 156.107 37.0703 155.951 35.3828C155.795 33.6953 155.576 32.3281 155.295 31.2812C155.029 30.2188 154.717 29.4531 154.357 28.9844C153.998 28.5156 153.615 28.2812 153.209 28.2812C152.787 28.2812 152.389 28.5234 152.014 29.0078C151.654 29.4766 151.334 30.2422 151.053 31.3047C150.787 32.3516 150.576 33.7266 150.42 35.4297C150.264 37.1172 150.186 39.1719 150.186 41.5938C150.186 44 150.264 46.0234 150.42 47.6641C150.576 49.2891 150.787 50.6016 151.053 51.6016C151.334 52.5859 151.654 53.2891 152.014 53.7109C152.389 54.1328 152.787 54.3438 153.209 54.3438C153.615 54.3438 153.998 54.125 154.357 53.6875C154.717 53.2344 155.029 52.5078 155.295 51.5078C155.576 50.4922 155.795 49.1719 155.951 47.5469C156.107 45.9219 156.186 43.9375 156.186 41.5938ZM174.957 57.6719C174.332 57.6406 173.707 57.6172 173.082 57.6016C172.457 57.5859 171.832 57.5781 171.207 57.5781C170.176 57.5781 169.145 57.6016 168.113 57.6484C167.082 57.6797 166.051 57.7344 165.02 57.8125L165.067 52.7734C165.426 52.8203 165.785 52.8594 166.145 52.8906C166.504 52.9062 166.863 52.9297 167.223 52.9609C167.317 50.5391 167.402 48.1328 167.481 45.7422C167.574 43.3359 167.621 40.9297 167.621 38.5234C167.621 36.9141 167.598 35.3281 167.551 33.7656C167.504 32.1875 167.457 30.6016 167.41 29.0078C167.004 29.0078 166.59 29.0156 166.168 29.0312C165.746 29.0469 165.317 29.0703 164.879 29.1016L164.926 24.2031C166.129 24.2812 167.332 24.3438 168.535 24.3906C169.738 24.4219 170.949 24.4375 172.168 24.4375C172.606 24.4375 173.043 24.4375 173.481 24.4375C173.918 24.4375 174.363 24.4219 174.817 24.3906L174.676 29.0547C174.317 29.0547 173.957 29.0469 173.598 29.0312C173.254 29.0156 172.902 29.0078 172.543 29.0078C172.324 31.8203 172.168 34.6172 172.074 37.3984C171.981 40.1641 171.934 42.9531 171.934 45.7656C171.934 48.2188 171.981 50.6641 172.074 53.1016C172.574 53.1016 173.082 53.0938 173.598 53.0781C174.129 53.0625 174.66 53.0391 175.192 53.0078L174.957 57.6719ZM194.01 42.0625C194.01 44.4844 193.83 46.5781 193.471 48.3438C193.127 50.0938 192.666 51.5859 192.088 52.8203C191.51 54.0547 190.854 55.0547 190.119 55.8203C189.401 56.5859 188.666 57.1797 187.916 57.6016C187.166 58.0234 186.44 58.3047 185.737 58.4453C185.033 58.6016 184.416 58.6797 183.885 58.6797L179.08 58.2812C179.283 55.0938 179.44 51.8906 179.549 48.6719C179.658 45.4375 179.713 42.1797 179.713 38.8984C179.713 36.4141 179.682 33.9531 179.619 31.5156C179.557 29.0781 179.463 26.6406 179.338 24.2031C179.713 24.1719 180.08 24.1484 180.44 24.1328C180.799 24.1172 181.151 24.1094 181.494 24.1094C184.088 24.1094 186.197 24.5547 187.822 25.4453C189.447 26.3203 190.713 27.5547 191.619 29.1484C192.541 30.7266 193.166 32.6172 193.494 34.8203C193.838 37.0078 194.01 39.4219 194.01 42.0625ZM189.229 41.4297C189.229 40.6641 189.213 39.8516 189.182 38.9922C189.151 38.1172 189.08 37.25 188.971 36.3906C188.877 35.5312 188.729 34.6953 188.526 33.8828C188.322 33.0703 188.057 32.3281 187.729 31.6562C187.401 30.9688 186.994 30.3828 186.51 29.8984C186.041 29.4141 185.471 29.0703 184.799 28.8672C184.705 30.5859 184.619 32.2656 184.541 33.9062C184.479 35.5312 184.424 37.1406 184.377 38.7344C184.33 40.3281 184.291 41.9141 184.26 43.4922C184.244 45.0547 184.237 46.625 184.237 48.2031C184.237 49.2344 184.237 50.2812 184.237 51.3438C184.237 52.3906 184.252 53.4609 184.283 54.5547C185.002 54.4766 185.627 54.2031 186.158 53.7344C186.69 53.2656 187.135 52.6797 187.494 51.9766C187.869 51.2578 188.166 50.4531 188.385 49.5625C188.619 48.6562 188.799 47.7344 188.924 46.7969C189.049 45.8438 189.127 44.9062 189.158 43.9844C189.205 43.0625 189.229 42.2109 189.229 41.4297Z" fill="#F2F2F2"/>
</g>
<defs>
<clipPath id="clip0_102_31">
<rect width="260" height="80" fill="white"/>
</clipPath>
</defs>
</svg>
