<svg width="260" height="80" viewBox="0 0 260 80" fill="none" xmlns="http://www.w3.org/2000/svg">
<g clip-path="url(#clip0_2_27)">
<rect width="260" height="80" fill="#434B57"/>
<path d="M86.556 27.448C86.556 28.888 86.292 30.094 85.764 31.066C85.248 32.038 84.504 32.77 83.532 33.262C82.572 33.754 81.42 34 80.076 34H76.422V21.148H80.4C81.684 21.148 82.782 21.388 83.694 21.868C84.618 22.348 85.326 23.056 85.818 23.992C86.31 24.916 86.556 26.068 86.556 27.448ZM83.532 27.52C83.532 26.572 83.418 25.792 83.19 25.18C82.962 24.568 82.62 24.118 82.164 23.83C81.72 23.53 81.162 23.38 80.49 23.38H79.338V31.75H80.238C81.366 31.75 82.194 31.396 82.722 30.688C83.262 29.98 83.532 28.924 83.532 27.52ZM100.026 27.556C100.026 28.552 99.9125 29.458 99.6845 30.274C99.4565 31.078 99.1085 31.774 98.6405 32.362C98.1725 32.95 97.5665 33.4 96.8225 33.712C96.0905 34.024 95.2205 34.18 94.2125 34.18C93.2165 34.18 92.3525 34.024 91.6205 33.712C90.8885 33.388 90.2825 32.938 89.8025 32.362C89.3345 31.774 88.9805 31.072 88.7405 30.256C88.5125 29.44 88.3985 28.534 88.3985 27.538C88.3985 26.206 88.6025 25.048 89.0105 24.064C89.4305 23.08 90.0725 22.318 90.9365 21.778C91.8005 21.226 92.8985 20.95 94.2305 20.95C95.5745 20.95 96.6725 21.226 97.5245 21.778C98.3765 22.318 99.0065 23.086 99.4145 24.082C99.8225 25.066 100.026 26.224 100.026 27.556ZM91.4585 27.556C91.4585 28.456 91.5485 29.23 91.7285 29.878C91.9205 30.526 92.2205 31.024 92.6285 31.372C93.0365 31.72 93.5645 31.894 94.2125 31.894C94.8725 31.894 95.4005 31.72 95.7965 31.372C96.2045 31.024 96.4985 30.526 96.6785 29.878C96.8705 29.23 96.9665 28.456 96.9665 27.556C96.9665 26.2 96.7505 25.138 96.3185 24.37C95.8985 23.602 95.2025 23.218 94.2305 23.218C93.5705 23.218 93.0365 23.392 92.6285 23.74C92.2205 24.088 91.9205 24.586 91.7285 25.234C91.5485 25.882 91.4585 26.656 91.4585 27.556ZM117.653 21.148L114.611 34H111.227L109.805 27.25C109.781 27.118 109.745 26.92 109.697 26.656C109.649 26.392 109.595 26.104 109.535 25.792C109.487 25.48 109.439 25.186 109.391 24.91C109.355 24.622 109.325 24.4 109.301 24.244C109.289 24.4 109.259 24.622 109.211 24.91C109.163 25.186 109.109 25.48 109.049 25.792C109.001 26.092 108.953 26.38 108.905 26.656C108.857 26.92 108.815 27.124 108.779 27.268L107.357 34H103.973L100.931 21.148H103.775L105.197 28.168C105.233 28.372 105.281 28.624 105.341 28.924C105.401 29.212 105.461 29.518 105.521 29.842C105.581 30.154 105.635 30.46 105.683 30.76C105.731 31.06 105.767 31.318 105.791 31.534C105.827 31.306 105.869 31.048 105.917 30.76C105.977 30.46 106.031 30.154 106.079 29.842C106.139 29.53 106.193 29.242 106.241 28.978C106.301 28.702 106.349 28.48 106.385 28.312L107.951 21.148H110.651L112.181 28.348C112.217 28.504 112.259 28.72 112.307 28.996C112.367 29.26 112.427 29.548 112.487 29.86C112.547 30.172 112.601 30.478 112.649 30.778C112.697 31.066 112.739 31.318 112.775 31.534C112.811 31.234 112.865 30.88 112.937 30.472C113.009 30.052 113.087 29.632 113.171 29.212C113.255 28.792 113.327 28.444 113.387 28.168L114.809 21.148H117.653ZM130.313 34H126.551L121.709 24.28H121.637C121.649 24.58 121.661 24.886 121.673 25.198C121.685 25.498 121.697 25.804 121.709 26.116C121.733 26.416 121.751 26.722 121.763 27.034C121.775 27.334 121.787 27.64 121.799 27.952V34H119.207V21.148H122.951L127.775 30.778H127.829C127.829 30.478 127.823 30.184 127.811 29.896C127.799 29.596 127.781 29.302 127.757 29.014C127.745 28.714 127.733 28.42 127.721 28.132C127.709 27.832 127.703 27.532 127.703 27.232V21.148H130.313V34ZM133.164 34V21.148H136.08V31.75H140.85V34H133.164ZM153.657 27.556C153.657 28.552 153.543 29.458 153.315 30.274C153.087 31.078 152.739 31.774 152.271 32.362C151.803 32.95 151.197 33.4 150.453 33.712C149.721 34.024 148.851 34.18 147.843 34.18C146.847 34.18 145.983 34.024 145.251 33.712C144.519 33.388 143.913 32.938 143.433 32.362C142.965 31.774 142.611 31.072 142.371 30.256C142.143 29.44 142.029 28.534 142.029 27.538C142.029 26.206 142.233 25.048 142.641 24.064C143.061 23.08 143.703 22.318 144.567 21.778C145.431 21.226 146.529 20.95 147.861 20.95C149.205 20.95 150.303 21.226 151.155 21.778C152.007 22.318 152.637 23.086 153.045 24.082C153.453 25.066 153.657 26.224 153.657 27.556ZM145.089 27.556C145.089 28.456 145.179 29.23 145.359 29.878C145.551 30.526 145.851 31.024 146.259 31.372C146.667 31.72 147.195 31.894 147.843 31.894C148.503 31.894 149.031 31.72 149.427 31.372C149.835 31.024 150.129 30.526 150.309 29.878C150.501 29.23 150.597 28.456 150.597 27.556C150.597 26.2 150.381 25.138 149.949 24.37C149.529 23.602 148.833 23.218 147.861 23.218C147.201 23.218 146.667 23.392 146.259 23.74C145.851 24.088 145.551 24.586 145.359 25.234C145.179 25.882 145.089 26.656 145.089 27.556ZM163.08 34L162.342 30.94H158.184L157.428 34H154.26L158.364 21.094H162.108L166.23 34H163.08ZM160.866 25.666C160.794 25.414 160.722 25.15 160.65 24.874C160.578 24.598 160.506 24.31 160.434 24.01C160.374 23.71 160.314 23.404 160.254 23.092C160.206 23.404 160.146 23.716 160.074 24.028C160.002 24.328 159.93 24.616 159.858 24.892C159.798 25.168 159.732 25.426 159.66 25.666L158.832 28.654H161.712L160.866 25.666ZM177.786 27.448C177.786 28.888 177.522 30.094 176.994 31.066C176.478 32.038 175.734 32.77 174.762 33.262C173.802 33.754 172.65 34 171.306 34H167.652V21.148H171.63C172.914 21.148 174.012 21.388 174.924 21.868C175.848 22.348 176.556 23.056 177.048 23.992C177.54 24.916 177.786 26.068 177.786 27.448ZM174.762 27.52C174.762 26.572 174.648 25.792 174.42 25.18C174.192 24.568 173.85 24.118 173.394 23.83C172.95 23.53 172.392 23.38 171.72 23.38H170.568V31.75H171.468C172.596 31.75 173.424 31.396 173.952 30.688C174.492 29.98 174.762 28.924 174.762 27.52ZM195.651 27.556C195.651 28.552 195.537 29.458 195.309 30.274C195.081 31.078 194.733 31.774 194.265 32.362C193.797 32.95 193.191 33.4 192.447 33.712C191.715 34.024 190.845 34.18 189.837 34.18C188.841 34.18 187.977 34.024 187.245 33.712C186.513 33.388 185.907 32.938 185.427 32.362C184.959 31.774 184.605 31.072 184.365 30.256C184.137 29.44 184.023 28.534 184.023 27.538C184.023 26.206 184.227 25.048 184.635 24.064C185.055 23.08 185.697 22.318 186.561 21.778C187.425 21.226 188.523 20.95 189.855 20.95C191.199 20.95 192.297 21.226 193.149 21.778C194.001 22.318 194.631 23.086 195.039 24.082C195.447 25.066 195.651 26.224 195.651 27.556ZM187.083 27.556C187.083 28.456 187.173 29.23 187.353 29.878C187.545 30.526 187.845 31.024 188.253 31.372C188.661 31.72 189.189 31.894 189.837 31.894C190.497 31.894 191.025 31.72 191.421 31.372C191.829 31.024 192.123 30.526 192.303 29.878C192.495 29.23 192.591 28.456 192.591 27.556C192.591 26.2 192.375 25.138 191.943 24.37C191.523 23.602 190.827 23.218 189.855 23.218C189.195 23.218 188.661 23.392 188.253 23.74C187.845 24.088 187.545 24.586 187.353 25.234C187.173 25.882 187.083 26.656 187.083 27.556ZM209.116 34H205.354L200.512 24.28H200.44C200.452 24.58 200.464 24.886 200.476 25.198C200.488 25.498 200.5 25.804 200.512 26.116C200.536 26.416 200.554 26.722 200.566 27.034C200.578 27.334 200.59 27.64 200.602 27.952V34H198.01V21.148H201.754L206.578 30.778H206.632C206.632 30.478 206.626 30.184 206.614 29.896C206.602 29.596 206.584 29.302 206.56 29.014C206.548 28.714 206.536 28.42 206.524 28.132C206.512 27.832 206.506 27.532 206.506 27.232V21.148H209.116V34ZM81.408 59H78.492V48.416H75.378V46.148H84.522V48.416H81.408V59ZM96.4525 59H93.5185V53.456H89.2345V59H86.3185V46.148H89.2345V51.188H93.5185V46.148H96.4525V59ZM106.347 59H99.2911V46.148H106.347V48.38H102.207V51.206H106.059V53.438H102.207V56.75H106.347V59ZM120.47 59L119.732 55.94H115.574L114.818 59H111.65L115.754 46.094H119.498L123.62 59H120.47ZM118.256 50.666C118.184 50.414 118.112 50.15 118.04 49.874C117.968 49.598 117.896 49.31 117.824 49.01C117.764 48.71 117.704 48.404 117.644 48.092C117.596 48.404 117.536 48.716 117.464 49.028C117.392 49.328 117.32 49.616 117.248 49.892C117.188 50.168 117.122 50.426 117.05 50.666L116.222 53.654H119.102L118.256 50.666ZM129.057 46.148C130.605 46.148 131.745 46.508 132.477 47.228C133.221 47.936 133.593 48.914 133.593 50.162C133.593 50.726 133.515 51.266 133.359 51.782C133.203 52.286 132.945 52.742 132.585 53.15C132.225 53.546 131.745 53.858 131.145 54.086C130.557 54.314 129.831 54.428 128.967 54.428H127.959V59H125.043V46.148H129.057ZM128.967 48.38H127.959V52.196H128.697C129.081 52.196 129.423 52.13 129.723 51.998C130.023 51.866 130.257 51.656 130.425 51.368C130.593 51.08 130.677 50.708 130.677 50.252C130.677 49.616 130.533 49.148 130.245 48.848C129.969 48.536 129.543 48.38 128.967 48.38ZM139.727 46.148C141.275 46.148 142.415 46.508 143.147 47.228C143.891 47.936 144.263 48.914 144.263 50.162C144.263 50.726 144.185 51.266 144.029 51.782C143.873 52.286 143.615 52.742 143.255 53.15C142.895 53.546 142.415 53.858 141.815 54.086C141.227 54.314 140.501 54.428 139.637 54.428H138.629V59H135.713V46.148H139.727ZM139.637 48.38H138.629V52.196H139.367C139.751 52.196 140.093 52.13 140.393 51.998C140.693 51.866 140.927 51.656 141.095 51.368C141.263 51.08 141.347 50.708 141.347 50.252C141.347 49.616 141.203 49.148 140.915 48.848C140.639 48.536 140.213 48.38 139.637 48.38ZM158.265 55.436C158.265 56.192 158.097 56.852 157.761 57.416C157.425 57.98 156.915 58.418 156.231 58.73C155.559 59.03 154.707 59.18 153.675 59.18C153.195 59.18 152.751 59.15 152.343 59.09C151.935 59.03 151.551 58.946 151.191 58.838C150.831 58.718 150.471 58.574 150.111 58.406V55.868C150.723 56.132 151.347 56.378 151.983 56.606C152.631 56.822 153.243 56.93 153.819 56.93C154.191 56.93 154.491 56.87 154.719 56.75C154.947 56.63 155.115 56.468 155.223 56.264C155.331 56.06 155.385 55.826 155.385 55.562C155.385 55.238 155.295 54.962 155.115 54.734C154.947 54.506 154.695 54.296 154.359 54.104C154.023 53.9 153.609 53.696 153.117 53.492C152.757 53.336 152.403 53.156 152.055 52.952C151.707 52.748 151.395 52.502 151.119 52.214C150.843 51.914 150.621 51.554 150.453 51.134C150.297 50.714 150.219 50.21 150.219 49.622C150.219 48.854 150.399 48.2 150.759 47.66C151.119 47.108 151.623 46.688 152.271 46.4C152.919 46.112 153.675 45.968 154.539 45.968C155.247 45.968 155.901 46.046 156.501 46.202C157.113 46.358 157.695 46.58 158.247 46.868L157.329 48.992C156.801 48.752 156.297 48.566 155.817 48.434C155.349 48.302 154.893 48.236 154.449 48.236C154.149 48.236 153.897 48.29 153.693 48.398C153.489 48.506 153.333 48.656 153.225 48.848C153.129 49.04 153.081 49.268 153.081 49.532C153.081 49.832 153.159 50.09 153.315 50.306C153.483 50.51 153.741 50.714 154.089 50.918C154.437 51.11 154.881 51.344 155.421 51.62C156.021 51.92 156.531 52.238 156.951 52.574C157.383 52.898 157.707 53.288 157.923 53.744C158.151 54.2 158.265 54.764 158.265 55.436ZM165.291 59H162.375V48.416H159.261V46.148H168.405V48.416H165.291V59ZM180.991 52.556C180.991 53.552 180.877 54.458 180.649 55.274C180.421 56.078 180.073 56.774 179.605 57.362C179.137 57.95 178.531 58.4 177.787 58.712C177.055 59.024 176.185 59.18 175.177 59.18C174.181 59.18 173.317 59.024 172.585 58.712C171.853 58.388 171.247 57.938 170.767 57.362C170.299 56.774 169.945 56.072 169.705 55.256C169.477 54.44 169.363 53.534 169.363 52.538C169.363 51.206 169.567 50.048 169.975 49.064C170.395 48.08 171.037 47.318 171.901 46.778C172.765 46.226 173.863 45.95 175.195 45.95C176.539 45.95 177.637 46.226 178.489 46.778C179.341 47.318 179.971 48.086 180.379 49.082C180.787 50.066 180.991 51.224 180.991 52.556ZM172.423 52.556C172.423 53.456 172.513 54.23 172.693 54.878C172.885 55.526 173.185 56.024 173.593 56.372C174.001 56.72 174.529 56.894 175.177 56.894C175.837 56.894 176.365 56.72 176.761 56.372C177.169 56.024 177.463 55.526 177.643 54.878C177.835 54.23 177.931 53.456 177.931 52.556C177.931 51.2 177.715 50.138 177.283 49.37C176.863 48.602 176.167 48.218 175.195 48.218C174.535 48.218 174.001 48.392 173.593 48.74C173.185 49.088 172.885 49.586 172.693 50.234C172.513 50.882 172.423 51.656 172.423 52.556ZM187.094 46.148C188.186 46.148 189.092 46.292 189.812 46.58C190.532 46.856 191.066 47.282 191.414 47.858C191.774 48.422 191.954 49.136 191.954 50C191.954 50.588 191.858 51.104 191.666 51.548C191.486 51.98 191.234 52.352 190.91 52.664C190.586 52.964 190.22 53.21 189.812 53.402L193.34 59H190.082L187.364 54.068H186.266V59H183.35V46.148H187.094ZM186.968 48.38H186.266V51.854H186.986C187.43 51.854 187.802 51.788 188.102 51.656C188.402 51.524 188.63 51.326 188.786 51.062C188.942 50.786 189.02 50.456 189.02 50.072C189.02 49.664 188.948 49.34 188.804 49.1C188.66 48.848 188.438 48.668 188.138 48.56C187.838 48.44 187.448 48.38 186.968 48.38ZM201.708 59H194.652V46.148H201.708V48.38H197.568V51.206H201.42V53.438H197.568V56.75H201.708V59Z" fill="white"/>
<circle cx="40" cy="40" r="20" fill="white"/>
<mask id="mask0_2_27" style="mask-type:alpha" maskUnits="userSpaceOnUse" x="20" y="20" width="40" height="40">
<circle cx="40" cy="40" r="20" fill="white"/>
</mask>
<g mask="url(#mask0_2_27)">
<path d="M55.7723 57.9079C55.7041 50.3278 61.9789 46.6401 62.2659 46.4684C58.7122 41.2872 53.2041 40.5793 51.2685 40.5228C46.6424 40.036 42.155 43.291 39.7984 43.291C37.3948 43.291 33.7658 40.5699 29.8547 40.6498C24.8217 40.7274 20.1132 43.6414 17.5308 48.1664C12.2015 57.3928 16.1762 70.9514 21.2821 78.4092C23.8362 82.0616 26.8207 86.1398 30.7272 85.9963C34.549 85.8387 35.9766 83.5598 40.5886 83.5598C45.1583 83.5598 46.4989 85.9963 50.483 85.9046C54.5846 85.8387 57.167 82.2357 59.6318 78.5503C62.5834 74.364 63.7687 70.2411 63.8157 70.0295C63.7193 69.9965 55.8499 66.9932 55.7723 57.9079Z" fill="#ABACAE"/>
<path d="M48.2463 35.6168C50.3019 33.0462 51.7083 29.549 51.3179 26C48.3428 26.1317 44.6221 28.0579 42.4795 30.572C40.5839 32.7875 38.8906 36.4188 39.328 39.8337C42.67 40.083 46.1014 38.1474 48.2463 35.6168Z" fill="#ABACAE"/>
</g>
</g>
<defs>
<clipPath id="clip0_2_27">
<rect width="260" height="80" rx="40" fill="white"/>
</clipPath>
</defs>
</svg>
