<svg width="260" height="80" viewBox="0 0 260 80" fill="none" xmlns="http://www.w3.org/2000/svg">
<g clip-path="url(#clip0_2_11)">
<rect width="260" height="80" fill="#434B57"/>
<path d="M96.556 26.448C96.556 27.888 96.292 29.094 95.764 30.066C95.248 31.038 94.504 31.77 93.532 32.262C92.572 32.754 91.42 33 90.076 33H86.422V20.148H90.4C91.684 20.148 92.782 20.388 93.694 20.868C94.618 21.348 95.326 22.056 95.818 22.992C96.31 23.916 96.556 25.068 96.556 26.448ZM93.532 26.52C93.532 25.572 93.418 24.792 93.19 24.18C92.962 23.568 92.62 23.118 92.164 22.83C91.72 22.53 91.162 22.38 90.49 22.38H89.338V30.75H90.238C91.366 30.75 92.194 30.396 92.722 29.688C93.262 28.98 93.532 27.924 93.532 26.52ZM110.026 26.556C110.026 27.552 109.912 28.458 109.684 29.274C109.456 30.078 109.108 30.774 108.64 31.362C108.172 31.95 107.566 32.4 106.822 32.712C106.09 33.024 105.22 33.18 104.212 33.18C103.216 33.18 102.352 33.024 101.62 32.712C100.888 32.388 100.282 31.938 99.8025 31.362C99.3345 30.774 98.9805 30.072 98.7405 29.256C98.5125 28.44 98.3985 27.534 98.3985 26.538C98.3985 25.206 98.6025 24.048 99.0105 23.064C99.4305 22.08 100.072 21.318 100.936 20.778C101.8 20.226 102.898 19.95 104.23 19.95C105.574 19.95 106.672 20.226 107.524 20.778C108.376 21.318 109.006 22.086 109.414 23.082C109.822 24.066 110.026 25.224 110.026 26.556ZM101.458 26.556C101.458 27.456 101.548 28.23 101.728 28.878C101.92 29.526 102.22 30.024 102.628 30.372C103.036 30.72 103.564 30.894 104.212 30.894C104.872 30.894 105.4 30.72 105.796 30.372C106.204 30.024 106.498 29.526 106.678 28.878C106.87 28.23 106.966 27.456 106.966 26.556C106.966 25.2 106.75 24.138 106.318 23.37C105.898 22.602 105.202 22.218 104.23 22.218C103.57 22.218 103.036 22.392 102.628 22.74C102.22 23.088 101.92 23.586 101.728 24.234C101.548 24.882 101.458 25.656 101.458 26.556ZM127.653 20.148L124.611 33H121.227L119.805 26.25C119.781 26.118 119.745 25.92 119.697 25.656C119.649 25.392 119.595 25.104 119.535 24.792C119.487 24.48 119.439 24.186 119.391 23.91C119.355 23.622 119.325 23.4 119.301 23.244C119.289 23.4 119.259 23.622 119.211 23.91C119.163 24.186 119.109 24.48 119.049 24.792C119.001 25.092 118.953 25.38 118.905 25.656C118.857 25.92 118.815 26.124 118.779 26.268L117.357 33H113.973L110.931 20.148H113.775L115.197 27.168C115.233 27.372 115.281 27.624 115.341 27.924C115.401 28.212 115.461 28.518 115.521 28.842C115.581 29.154 115.635 29.46 115.683 29.76C115.731 30.06 115.767 30.318 115.791 30.534C115.827 30.306 115.869 30.048 115.917 29.76C115.977 29.46 116.031 29.154 116.079 28.842C116.139 28.53 116.193 28.242 116.241 27.978C116.301 27.702 116.349 27.48 116.385 27.312L117.951 20.148H120.651L122.181 27.348C122.217 27.504 122.259 27.72 122.307 27.996C122.367 28.26 122.427 28.548 122.487 28.86C122.547 29.172 122.601 29.478 122.649 29.778C122.697 30.066 122.739 30.318 122.775 30.534C122.811 30.234 122.865 29.88 122.937 29.472C123.009 29.052 123.087 28.632 123.171 28.212C123.255 27.792 123.327 27.444 123.387 27.168L124.809 20.148H127.653ZM140.313 33H136.551L131.709 23.28H131.637C131.649 23.58 131.661 23.886 131.673 24.198C131.685 24.498 131.697 24.804 131.709 25.116C131.733 25.416 131.751 25.722 131.763 26.034C131.775 26.334 131.787 26.64 131.799 26.952V33H129.207V20.148H132.951L137.775 29.778H137.829C137.829 29.478 137.823 29.184 137.811 28.896C137.799 28.596 137.781 28.302 137.757 28.014C137.745 27.714 137.733 27.42 137.721 27.132C137.709 26.832 137.703 26.532 137.703 26.232V20.148H140.313V33ZM143.164 33V20.148H146.08V30.75H150.85V33H143.164ZM163.657 26.556C163.657 27.552 163.543 28.458 163.315 29.274C163.087 30.078 162.739 30.774 162.271 31.362C161.803 31.95 161.197 32.4 160.453 32.712C159.721 33.024 158.851 33.18 157.843 33.18C156.847 33.18 155.983 33.024 155.251 32.712C154.519 32.388 153.913 31.938 153.433 31.362C152.965 30.774 152.611 30.072 152.371 29.256C152.143 28.44 152.029 27.534 152.029 26.538C152.029 25.206 152.233 24.048 152.641 23.064C153.061 22.08 153.703 21.318 154.567 20.778C155.431 20.226 156.529 19.95 157.861 19.95C159.205 19.95 160.303 20.226 161.155 20.778C162.007 21.318 162.637 22.086 163.045 23.082C163.453 24.066 163.657 25.224 163.657 26.556ZM155.089 26.556C155.089 27.456 155.179 28.23 155.359 28.878C155.551 29.526 155.851 30.024 156.259 30.372C156.667 30.72 157.195 30.894 157.843 30.894C158.503 30.894 159.031 30.72 159.427 30.372C159.835 30.024 160.129 29.526 160.309 28.878C160.501 28.23 160.597 27.456 160.597 26.556C160.597 25.2 160.381 24.138 159.949 23.37C159.529 22.602 158.833 22.218 157.861 22.218C157.201 22.218 156.667 22.392 156.259 22.74C155.851 23.088 155.551 23.586 155.359 24.234C155.179 24.882 155.089 25.656 155.089 26.556ZM173.08 33L172.342 29.94H168.184L167.428 33H164.26L168.364 20.094H172.108L176.23 33H173.08ZM170.866 24.666C170.794 24.414 170.722 24.15 170.65 23.874C170.578 23.598 170.506 23.31 170.434 23.01C170.374 22.71 170.314 22.404 170.254 22.092C170.206 22.404 170.146 22.716 170.074 23.028C170.002 23.328 169.93 23.616 169.858 23.892C169.798 24.168 169.732 24.426 169.66 24.666L168.832 27.654H171.712L170.866 24.666ZM187.786 26.448C187.786 27.888 187.522 29.094 186.994 30.066C186.478 31.038 185.734 31.77 184.762 32.262C183.802 32.754 182.65 33 181.306 33H177.652V20.148H181.63C182.914 20.148 184.012 20.388 184.924 20.868C185.848 21.348 186.556 22.056 187.048 22.992C187.54 23.916 187.786 25.068 187.786 26.448ZM184.762 26.52C184.762 25.572 184.648 24.792 184.42 24.18C184.192 23.568 183.85 23.118 183.394 22.83C182.95 22.53 182.392 22.38 181.72 22.38H180.568V30.75H181.468C182.596 30.75 183.424 30.396 183.952 29.688C184.492 28.98 184.762 27.924 184.762 26.52ZM205.651 26.556C205.651 27.552 205.537 28.458 205.309 29.274C205.081 30.078 204.733 30.774 204.265 31.362C203.797 31.95 203.191 32.4 202.447 32.712C201.715 33.024 200.845 33.18 199.837 33.18C198.841 33.18 197.977 33.024 197.245 32.712C196.513 32.388 195.907 31.938 195.427 31.362C194.959 30.774 194.605 30.072 194.365 29.256C194.137 28.44 194.023 27.534 194.023 26.538C194.023 25.206 194.227 24.048 194.635 23.064C195.055 22.08 195.697 21.318 196.561 20.778C197.425 20.226 198.523 19.95 199.855 19.95C201.199 19.95 202.297 20.226 203.149 20.778C204.001 21.318 204.631 22.086 205.039 23.082C205.447 24.066 205.651 25.224 205.651 26.556ZM197.083 26.556C197.083 27.456 197.173 28.23 197.353 28.878C197.545 29.526 197.845 30.024 198.253 30.372C198.661 30.72 199.189 30.894 199.837 30.894C200.497 30.894 201.025 30.72 201.421 30.372C201.829 30.024 202.123 29.526 202.303 28.878C202.495 28.23 202.591 27.456 202.591 26.556C202.591 25.2 202.375 24.138 201.943 23.37C201.523 22.602 200.827 22.218 199.855 22.218C199.195 22.218 198.661 22.392 198.253 22.74C197.845 23.088 197.545 23.586 197.353 24.234C197.173 24.882 197.083 25.656 197.083 26.556ZM219.116 33H215.354L210.512 23.28H210.44C210.452 23.58 210.464 23.886 210.476 24.198C210.488 24.498 210.5 24.804 210.512 25.116C210.536 25.416 210.554 25.722 210.566 26.034C210.578 26.334 210.59 26.64 210.602 26.952V33H208.01V20.148H211.754L216.578 29.778H216.632C216.632 29.478 216.626 29.184 216.614 28.896C216.602 28.596 216.584 28.302 216.56 28.014C216.548 27.714 216.536 27.42 216.524 27.132C216.512 26.832 216.506 26.532 216.506 26.232V20.148H219.116V33ZM91.408 60H88.492V49.416H85.378V47.148H94.522V49.416H91.408V60ZM106.452 60H103.518V54.456H99.2345V60H96.3185V47.148H99.2345V52.188H103.518V47.148H106.452V60ZM116.347 60H109.291V47.148H116.347V49.38H112.207V52.206H116.059V54.438H112.207V57.75H116.347V60ZM130.47 60L129.732 56.94H125.574L124.818 60H121.65L125.754 47.094H129.498L133.62 60H130.47ZM128.256 51.666C128.184 51.414 128.112 51.15 128.04 50.874C127.968 50.598 127.896 50.31 127.824 50.01C127.764 49.71 127.704 49.404 127.644 49.092C127.596 49.404 127.536 49.716 127.464 50.028C127.392 50.328 127.32 50.616 127.248 50.892C127.188 51.168 127.122 51.426 127.05 51.666L126.222 54.654H129.102L128.256 51.666ZM139.057 47.148C140.605 47.148 141.745 47.508 142.477 48.228C143.221 48.936 143.593 49.914 143.593 51.162C143.593 51.726 143.515 52.266 143.359 52.782C143.203 53.286 142.945 53.742 142.585 54.15C142.225 54.546 141.745 54.858 141.145 55.086C140.557 55.314 139.831 55.428 138.967 55.428H137.959V60H135.043V47.148H139.057ZM138.967 49.38H137.959V53.196H138.697C139.081 53.196 139.423 53.13 139.723 52.998C140.023 52.866 140.257 52.656 140.425 52.368C140.593 52.08 140.677 51.708 140.677 51.252C140.677 50.616 140.533 50.148 140.245 49.848C139.969 49.536 139.543 49.38 138.967 49.38ZM149.727 47.148C151.275 47.148 152.415 47.508 153.147 48.228C153.891 48.936 154.263 49.914 154.263 51.162C154.263 51.726 154.185 52.266 154.029 52.782C153.873 53.286 153.615 53.742 153.255 54.15C152.895 54.546 152.415 54.858 151.815 55.086C151.227 55.314 150.501 55.428 149.637 55.428H148.629V60H145.713V47.148H149.727ZM149.637 49.38H148.629V53.196H149.367C149.751 53.196 150.093 53.13 150.393 52.998C150.693 52.866 150.927 52.656 151.095 52.368C151.263 52.08 151.347 51.708 151.347 51.252C151.347 50.616 151.203 50.148 150.915 49.848C150.639 49.536 150.213 49.38 149.637 49.38ZM168.265 56.436C168.265 57.192 168.097 57.852 167.761 58.416C167.425 58.98 166.915 59.418 166.231 59.73C165.559 60.03 164.707 60.18 163.675 60.18C163.195 60.18 162.751 60.15 162.343 60.09C161.935 60.03 161.551 59.946 161.191 59.838C160.831 59.718 160.471 59.574 160.111 59.406V56.868C160.723 57.132 161.347 57.378 161.983 57.606C162.631 57.822 163.243 57.93 163.819 57.93C164.191 57.93 164.491 57.87 164.719 57.75C164.947 57.63 165.115 57.468 165.223 57.264C165.331 57.06 165.385 56.826 165.385 56.562C165.385 56.238 165.295 55.962 165.115 55.734C164.947 55.506 164.695 55.296 164.359 55.104C164.023 54.9 163.609 54.696 163.117 54.492C162.757 54.336 162.403 54.156 162.055 53.952C161.707 53.748 161.395 53.502 161.119 53.214C160.843 52.914 160.621 52.554 160.453 52.134C160.297 51.714 160.219 51.21 160.219 50.622C160.219 49.854 160.399 49.2 160.759 48.66C161.119 48.108 161.623 47.688 162.271 47.4C162.919 47.112 163.675 46.968 164.539 46.968C165.247 46.968 165.901 47.046 166.501 47.202C167.113 47.358 167.695 47.58 168.247 47.868L167.329 49.992C166.801 49.752 166.297 49.566 165.817 49.434C165.349 49.302 164.893 49.236 164.449 49.236C164.149 49.236 163.897 49.29 163.693 49.398C163.489 49.506 163.333 49.656 163.225 49.848C163.129 50.04 163.081 50.268 163.081 50.532C163.081 50.832 163.159 51.09 163.315 51.306C163.483 51.51 163.741 51.714 164.089 51.918C164.437 52.11 164.881 52.344 165.421 52.62C166.021 52.92 166.531 53.238 166.951 53.574C167.383 53.898 167.707 54.288 167.923 54.744C168.151 55.2 168.265 55.764 168.265 56.436ZM175.291 60H172.375V49.416H169.261V47.148H178.405V49.416H175.291V60ZM190.991 53.556C190.991 54.552 190.877 55.458 190.649 56.274C190.421 57.078 190.073 57.774 189.605 58.362C189.137 58.95 188.531 59.4 187.787 59.712C187.055 60.024 186.185 60.18 185.177 60.18C184.181 60.18 183.317 60.024 182.585 59.712C181.853 59.388 181.247 58.938 180.767 58.362C180.299 57.774 179.945 57.072 179.705 56.256C179.477 55.44 179.363 54.534 179.363 53.538C179.363 52.206 179.567 51.048 179.975 50.064C180.395 49.08 181.037 48.318 181.901 47.778C182.765 47.226 183.863 46.95 185.195 46.95C186.539 46.95 187.637 47.226 188.489 47.778C189.341 48.318 189.971 49.086 190.379 50.082C190.787 51.066 190.991 52.224 190.991 53.556ZM182.423 53.556C182.423 54.456 182.513 55.23 182.693 55.878C182.885 56.526 183.185 57.024 183.593 57.372C184.001 57.72 184.529 57.894 185.177 57.894C185.837 57.894 186.365 57.72 186.761 57.372C187.169 57.024 187.463 56.526 187.643 55.878C187.835 55.23 187.931 54.456 187.931 53.556C187.931 52.2 187.715 51.138 187.283 50.37C186.863 49.602 186.167 49.218 185.195 49.218C184.535 49.218 184.001 49.392 183.593 49.74C183.185 50.088 182.885 50.586 182.693 51.234C182.513 51.882 182.423 52.656 182.423 53.556ZM197.094 47.148C198.186 47.148 199.092 47.292 199.812 47.58C200.532 47.856 201.066 48.282 201.414 48.858C201.774 49.422 201.954 50.136 201.954 51C201.954 51.588 201.858 52.104 201.666 52.548C201.486 52.98 201.234 53.352 200.91 53.664C200.586 53.964 200.22 54.21 199.812 54.402L203.34 60H200.082L197.364 55.068H196.266V60H193.35V47.148H197.094ZM196.968 49.38H196.266V52.854H196.986C197.43 52.854 197.802 52.788 198.102 52.656C198.402 52.524 198.63 52.326 198.786 52.062C198.942 51.786 199.02 51.456 199.02 51.072C199.02 50.664 198.948 50.34 198.804 50.1C198.66 49.848 198.438 49.668 198.138 49.56C197.838 49.44 197.448 49.38 196.968 49.38ZM211.708 60H204.652V47.148H211.708V49.38H207.568V52.206H211.42V54.438H207.568V57.75H211.708V60Z" fill="white"/>
<circle cx="45" cy="40" r="25" fill="white"/>
<mask id="mask0_2_11" style="mask-type:alpha" maskUnits="userSpaceOnUse" x="20" y="15" width="50" height="50">
<circle cx="45" cy="40" r="25" fill="white"/>
</mask>
<g mask="url(#mask0_2_11)">
<path d="M66.3631 65.5438C66.2722 55.4371 74.6386 50.5201 75.0211 50.2912C70.2829 43.3829 62.9388 42.439 60.358 42.3638C54.1898 41.7147 48.2066 46.0546 45.0645 46.0546C41.8597 46.0546 37.0211 42.4265 31.8062 42.5331C25.0955 42.6366 18.8176 46.5219 15.3745 52.5552C8.26866 64.8571 13.5682 82.9352 20.3761 92.8789C23.7816 97.7488 27.761 103.186 32.9696 102.995C38.0653 102.785 39.9688 99.7464 46.1182 99.7464C52.2111 99.7464 53.9985 102.995 59.3106 102.873C64.7795 102.785 68.2227 97.9809 71.509 93.0671C75.4445 87.4853 77.0249 81.9882 77.0877 81.7059C76.9591 81.662 66.4666 77.6576 66.3631 65.5438Z" fill="#ABACAE"/>
<path d="M56.3284 35.8224C59.0692 32.395 60.9444 27.732 60.4238 23C56.457 23.1756 51.4961 25.7439 48.6394 29.0961C46.1119 32.05 43.8541 36.8917 44.4374 41.445C48.8934 41.7774 53.4686 39.1966 56.3284 35.8224Z" fill="#ABACAE"/>
</g>
</g>
<defs>
<clipPath id="clip0_2_11">
<rect width="260" height="80" fill="white"/>
</clipPath>
</defs>
</svg>
