<svg width="260" height="80" viewBox="0 0 260 80" fill="none" xmlns="http://www.w3.org/2000/svg">
<rect width="260" height="80" fill="#485A6C"/>
<path d="M96.138 25.782H101.124V32.442C100.5 32.67 99.816 32.85 99.072 32.982C98.328 33.114 97.518 33.18 96.642 33.18C95.466 33.18 94.446 32.928 93.582 32.424C92.73 31.92 92.07 31.176 91.602 30.192C91.146 29.208 90.918 27.996 90.918 26.556C90.918 25.212 91.158 24.048 91.638 23.064C92.13 22.08 92.844 21.318 93.78 20.778C94.728 20.238 95.886 19.968 97.254 19.968C97.95 19.968 98.622 20.04 99.27 20.184C99.918 20.328 100.494 20.52 100.998 20.76L100.062 22.938C99.654 22.734 99.216 22.566 98.748 22.434C98.28 22.302 97.782 22.236 97.254 22.236C96.522 22.236 95.904 22.416 95.4 22.776C94.908 23.136 94.536 23.646 94.284 24.306C94.044 24.954 93.924 25.722 93.924 26.61C93.924 27.45 94.032 28.194 94.248 28.842C94.464 29.49 94.788 30 95.22 30.372C95.652 30.732 96.198 30.912 96.858 30.912C97.05 30.912 97.236 30.906 97.416 30.894C97.596 30.87 97.764 30.846 97.92 30.822C98.088 30.786 98.232 30.756 98.352 30.732V28.05H96.138V25.782ZM110.871 33H103.815V20.148H110.871V22.38H106.731V25.206H110.583V27.438H106.731V30.75H110.871V33ZM118.187 33H115.271V22.416H112.157V20.148H121.301V22.416H118.187V33ZM132.514 33H126.628V31.452L128.122 30.732V22.416L126.628 21.696V20.148H132.514V21.696L131.038 22.416V30.732L132.514 31.452V33ZM139.474 33H136.558V22.416H133.444V20.148H142.588V22.416H139.474V33ZM159.903 26.556C159.903 27.552 159.789 28.458 159.561 29.274C159.333 30.078 158.985 30.774 158.517 31.362C158.049 31.95 157.443 32.4 156.699 32.712C155.967 33.024 155.097 33.18 154.089 33.18C153.093 33.18 152.229 33.024 151.497 32.712C150.765 32.388 150.159 31.938 149.679 31.362C149.211 30.774 148.857 30.072 148.617 29.256C148.389 28.44 148.275 27.534 148.275 26.538C148.275 25.206 148.479 24.048 148.887 23.064C149.307 22.08 149.949 21.318 150.813 20.778C151.677 20.226 152.775 19.95 154.107 19.95C155.451 19.95 156.549 20.226 157.401 20.778C158.253 21.318 158.883 22.086 159.291 23.082C159.699 24.066 159.903 25.224 159.903 26.556ZM151.335 26.556C151.335 27.456 151.425 28.23 151.605 28.878C151.797 29.526 152.097 30.024 152.505 30.372C152.913 30.72 153.441 30.894 154.089 30.894C154.749 30.894 155.277 30.72 155.673 30.372C156.081 30.024 156.375 29.526 156.555 28.878C156.747 28.23 156.843 27.456 156.843 26.556C156.843 25.2 156.627 24.138 156.195 23.37C155.775 22.602 155.079 22.218 154.107 22.218C153.447 22.218 152.913 22.392 152.505 22.74C152.097 23.088 151.797 23.586 151.605 24.234C151.425 24.882 151.335 25.656 151.335 26.556ZM173.368 33H169.606L164.764 23.28H164.692C164.704 23.58 164.716 23.886 164.728 24.198C164.74 24.498 164.752 24.804 164.764 25.116C164.788 25.416 164.806 25.722 164.818 26.034C164.83 26.334 164.842 26.64 164.854 26.952V33H162.262V20.148H166.006L170.83 29.778H170.884C170.884 29.478 170.878 29.184 170.866 28.896C170.854 28.596 170.836 28.302 170.812 28.014C170.8 27.714 170.788 27.42 170.776 27.132C170.764 26.832 170.758 26.532 170.758 26.232V20.148H173.368V33ZM98.82 60L98.082 56.94H93.924L93.168 60H90L94.104 47.094H97.848L101.97 60H98.82ZM96.606 51.666C96.534 51.414 96.462 51.15 96.39 50.874C96.318 50.598 96.246 50.31 96.174 50.01C96.114 49.71 96.054 49.404 95.994 49.092C95.946 49.404 95.886 49.716 95.814 50.028C95.742 50.328 95.67 50.616 95.598 50.892C95.538 51.168 95.472 51.426 95.4 51.666L94.572 54.654H97.452L96.606 51.666ZM107.407 47.148C108.955 47.148 110.095 47.508 110.827 48.228C111.571 48.936 111.943 49.914 111.943 51.162C111.943 51.726 111.865 52.266 111.709 52.782C111.553 53.286 111.295 53.742 110.935 54.15C110.575 54.546 110.095 54.858 109.495 55.086C108.907 55.314 108.181 55.428 107.317 55.428H106.309V60H103.393V47.148H107.407ZM107.317 49.38H106.309V53.196H107.047C107.431 53.196 107.773 53.13 108.073 52.998C108.373 52.866 108.607 52.656 108.775 52.368C108.943 52.08 109.027 51.708 109.027 51.252C109.027 50.616 108.883 50.148 108.595 49.848C108.319 49.536 107.893 49.38 107.317 49.38ZM118.077 47.148C119.625 47.148 120.765 47.508 121.497 48.228C122.241 48.936 122.613 49.914 122.613 51.162C122.613 51.726 122.535 52.266 122.379 52.782C122.223 53.286 121.965 53.742 121.605 54.15C121.245 54.546 120.765 54.858 120.165 55.086C119.577 55.314 118.851 55.428 117.987 55.428H116.979V60H114.063V47.148H118.077ZM117.987 49.38H116.979V53.196H117.717C118.101 53.196 118.443 53.13 118.743 52.998C119.043 52.866 119.277 52.656 119.445 52.368C119.613 52.08 119.697 51.708 119.697 51.252C119.697 50.616 119.553 50.148 119.265 49.848C118.989 49.536 118.563 49.38 117.987 49.38ZM124.733 60V47.148H127.649V57.75H132.419V60H124.733ZM141.492 60H134.436V47.148H141.492V49.38H137.352V52.206H141.204V54.438H137.352V57.75H141.492V60ZM155.705 56.436C155.705 57.192 155.537 57.852 155.201 58.416C154.865 58.98 154.355 59.418 153.671 59.73C152.999 60.03 152.147 60.18 151.115 60.18C150.635 60.18 150.191 60.15 149.783 60.09C149.375 60.03 148.991 59.946 148.631 59.838C148.271 59.718 147.911 59.574 147.551 59.406V56.868C148.163 57.132 148.787 57.378 149.423 57.606C150.071 57.822 150.683 57.93 151.259 57.93C151.631 57.93 151.931 57.87 152.159 57.75C152.387 57.63 152.555 57.468 152.663 57.264C152.771 57.06 152.825 56.826 152.825 56.562C152.825 56.238 152.735 55.962 152.555 55.734C152.387 55.506 152.135 55.296 151.799 55.104C151.463 54.9 151.049 54.696 150.557 54.492C150.197 54.336 149.843 54.156 149.495 53.952C149.147 53.748 148.835 53.502 148.559 53.214C148.283 52.914 148.061 52.554 147.893 52.134C147.737 51.714 147.659 51.21 147.659 50.622C147.659 49.854 147.839 49.2 148.199 48.66C148.559 48.108 149.063 47.688 149.711 47.4C150.359 47.112 151.115 46.968 151.979 46.968C152.687 46.968 153.341 47.046 153.941 47.202C154.553 47.358 155.135 47.58 155.687 47.868L154.769 49.992C154.241 49.752 153.737 49.566 153.257 49.434C152.789 49.302 152.333 49.236 151.889 49.236C151.589 49.236 151.337 49.29 151.133 49.398C150.929 49.506 150.773 49.656 150.665 49.848C150.569 50.04 150.521 50.268 150.521 50.532C150.521 50.832 150.599 51.09 150.755 51.306C150.923 51.51 151.181 51.714 151.529 51.918C151.877 52.11 152.321 52.344 152.861 52.62C153.461 52.92 153.971 53.238 154.391 53.574C154.823 53.898 155.147 54.288 155.363 54.744C155.591 55.2 155.705 55.764 155.705 56.436ZM162.73 60H159.814V49.416H156.7V47.148H165.844V49.416H162.73V60ZM178.431 53.556C178.431 54.552 178.317 55.458 178.089 56.274C177.861 57.078 177.513 57.774 177.045 58.362C176.577 58.95 175.971 59.4 175.227 59.712C174.495 60.024 173.625 60.18 172.617 60.18C171.621 60.18 170.757 60.024 170.025 59.712C169.293 59.388 168.687 58.938 168.207 58.362C167.739 57.774 167.385 57.072 167.145 56.256C166.917 55.44 166.803 54.534 166.803 53.538C166.803 52.206 167.007 51.048 167.415 50.064C167.835 49.08 168.477 48.318 169.341 47.778C170.205 47.226 171.303 46.95 172.635 46.95C173.979 46.95 175.077 47.226 175.929 47.778C176.781 48.318 177.411 49.086 177.819 50.082C178.227 51.066 178.431 52.224 178.431 53.556ZM169.863 53.556C169.863 54.456 169.953 55.23 170.133 55.878C170.325 56.526 170.625 57.024 171.033 57.372C171.441 57.72 171.969 57.894 172.617 57.894C173.277 57.894 173.805 57.72 174.201 57.372C174.609 57.024 174.903 56.526 175.083 55.878C175.275 55.23 175.371 54.456 175.371 53.556C175.371 52.2 175.155 51.138 174.723 50.37C174.303 49.602 173.607 49.218 172.635 49.218C171.975 49.218 171.441 49.392 171.033 49.74C170.625 50.088 170.325 50.586 170.133 51.234C169.953 51.882 169.863 52.656 169.863 53.556ZM184.533 47.148C185.625 47.148 186.531 47.292 187.251 47.58C187.971 47.856 188.505 48.282 188.853 48.858C189.213 49.422 189.393 50.136 189.393 51C189.393 51.588 189.297 52.104 189.105 52.548C188.925 52.98 188.673 53.352 188.349 53.664C188.025 53.964 187.659 54.21 187.251 54.402L190.779 60H187.521L184.803 55.068H183.705V60H180.789V47.148H184.533ZM184.407 49.38H183.705V52.854H184.425C184.869 52.854 185.241 52.788 185.541 52.656C185.841 52.524 186.069 52.326 186.225 52.062C186.381 51.786 186.459 51.456 186.459 51.072C186.459 50.664 186.387 50.34 186.243 50.1C186.099 49.848 185.877 49.668 185.577 49.56C185.277 49.44 184.887 49.38 184.407 49.38ZM199.148 60H192.092V47.148H199.148V49.38H195.008V52.206H198.86V54.438H195.008V57.75H199.148V60Z" fill="white"/>
<circle cx="45" cy="40" r="25" fill="white"/>
<mask id="mask0_1_136" style="mask-type:alpha" maskUnits="userSpaceOnUse" x="20" y="15" width="50" height="50">
<circle cx="45" cy="40" r="25" fill="white"/>
</mask>
<g mask="url(#mask0_1_136)">
<path d="M66.3631 65.5438C66.2722 55.4371 74.6386 50.5201 75.0211 50.2912C70.2829 43.3829 62.9388 42.439 60.358 42.3638C54.1898 41.7147 48.2066 46.0546 45.0645 46.0546C41.8597 46.0546 37.0211 42.4265 31.8062 42.5331C25.0955 42.6366 18.8176 46.5219 15.3745 52.5552C8.26866 64.8571 13.5682 82.9352 20.3761 92.8789C23.7816 97.7488 27.761 103.186 32.9696 102.995C38.0653 102.785 39.9688 99.7464 46.1182 99.7464C52.2111 99.7464 53.9985 102.995 59.3106 102.873C64.7795 102.785 68.2227 97.9809 71.509 93.0671C75.4445 87.4853 77.0249 81.9882 77.0877 81.7059C76.9591 81.662 66.4666 77.6576 66.3631 65.5438Z" fill="#ABACAE"/>
<path d="M56.3284 35.8224C59.0692 32.395 60.9444 27.732 60.4238 23C56.457 23.1756 51.4961 25.7439 48.6394 29.0961C46.1119 32.05 43.8541 36.8917 44.4374 41.445C48.8934 41.7774 53.4686 39.1966 56.3284 35.8224Z" fill="#ABACAE"/>
</g>
</svg>
