<svg width="260" height="80" viewBox="0 0 260 80" fill="none" xmlns="http://www.w3.org/2000/svg">
<g clip-path="url(#clip0_2_11)">
<rect width="260" height="80" fill="#434B57"/>
<path d="M101.556 26.448C101.556 27.888 101.292 29.094 100.764 30.066C100.248 31.038 99.504 31.77 98.532 32.262C97.572 32.754 96.42 33 95.076 33H91.422V20.148H95.4C96.684 20.148 97.782 20.388 98.694 20.868C99.618 21.348 100.326 22.056 100.818 22.992C101.31 23.916 101.556 25.068 101.556 26.448ZM98.532 26.52C98.532 25.572 98.418 24.792 98.19 24.18C97.962 23.568 97.62 23.118 97.164 22.83C96.72 22.53 96.162 22.38 95.49 22.38H94.338V30.75H95.238C96.366 30.75 97.194 30.396 97.722 29.688C98.262 28.98 98.532 27.924 98.532 26.52ZM115.026 26.556C115.026 27.552 114.912 28.458 114.684 29.274C114.456 30.078 114.108 30.774 113.64 31.362C113.172 31.95 112.566 32.4 111.822 32.712C111.09 33.024 110.22 33.18 109.212 33.18C108.216 33.18 107.352 33.024 106.62 32.712C105.888 32.388 105.282 31.938 104.802 31.362C104.334 30.774 103.98 30.072 103.74 29.256C103.512 28.44 103.398 27.534 103.398 26.538C103.398 25.206 103.602 24.048 104.01 23.064C104.43 22.08 105.072 21.318 105.936 20.778C106.8 20.226 107.898 19.95 109.23 19.95C110.574 19.95 111.672 20.226 112.524 20.778C113.376 21.318 114.006 22.086 114.414 23.082C114.822 24.066 115.026 25.224 115.026 26.556ZM106.458 26.556C106.458 27.456 106.548 28.23 106.728 28.878C106.92 29.526 107.22 30.024 107.628 30.372C108.036 30.72 108.564 30.894 109.212 30.894C109.872 30.894 110.4 30.72 110.796 30.372C111.204 30.024 111.498 29.526 111.678 28.878C111.87 28.23 111.966 27.456 111.966 26.556C111.966 25.2 111.75 24.138 111.318 23.37C110.898 22.602 110.202 22.218 109.23 22.218C108.57 22.218 108.036 22.392 107.628 22.74C107.22 23.088 106.92 23.586 106.728 24.234C106.548 24.882 106.458 25.656 106.458 26.556ZM132.653 20.148L129.611 33H126.227L124.805 26.25C124.781 26.118 124.745 25.92 124.697 25.656C124.649 25.392 124.595 25.104 124.535 24.792C124.487 24.48 124.439 24.186 124.391 23.91C124.355 23.622 124.325 23.4 124.301 23.244C124.289 23.4 124.259 23.622 124.211 23.91C124.163 24.186 124.109 24.48 124.049 24.792C124.001 25.092 123.953 25.38 123.905 25.656C123.857 25.92 123.815 26.124 123.779 26.268L122.357 33H118.973L115.931 20.148H118.775L120.197 27.168C120.233 27.372 120.281 27.624 120.341 27.924C120.401 28.212 120.461 28.518 120.521 28.842C120.581 29.154 120.635 29.46 120.683 29.76C120.731 30.06 120.767 30.318 120.791 30.534C120.827 30.306 120.869 30.048 120.917 29.76C120.977 29.46 121.031 29.154 121.079 28.842C121.139 28.53 121.193 28.242 121.241 27.978C121.301 27.702 121.349 27.48 121.385 27.312L122.951 20.148H125.651L127.181 27.348C127.217 27.504 127.259 27.72 127.307 27.996C127.367 28.26 127.427 28.548 127.487 28.86C127.547 29.172 127.601 29.478 127.649 29.778C127.697 30.066 127.739 30.318 127.775 30.534C127.811 30.234 127.865 29.88 127.937 29.472C128.009 29.052 128.087 28.632 128.171 28.212C128.255 27.792 128.327 27.444 128.387 27.168L129.809 20.148H132.653ZM145.313 33H141.551L136.709 23.28H136.637C136.649 23.58 136.661 23.886 136.673 24.198C136.685 24.498 136.697 24.804 136.709 25.116C136.733 25.416 136.751 25.722 136.763 26.034C136.775 26.334 136.787 26.64 136.799 26.952V33H134.207V20.148H137.951L142.775 29.778H142.829C142.829 29.478 142.823 29.184 142.811 28.896C142.799 28.596 142.781 28.302 142.757 28.014C142.745 27.714 142.733 27.42 142.721 27.132C142.709 26.832 142.703 26.532 142.703 26.232V20.148H145.313V33ZM148.164 33V20.148H151.08V30.75H155.85V33H148.164ZM168.657 26.556C168.657 27.552 168.543 28.458 168.315 29.274C168.087 30.078 167.739 30.774 167.271 31.362C166.803 31.95 166.197 32.4 165.453 32.712C164.721 33.024 163.851 33.18 162.843 33.18C161.847 33.18 160.983 33.024 160.251 32.712C159.519 32.388 158.913 31.938 158.433 31.362C157.965 30.774 157.611 30.072 157.371 29.256C157.143 28.44 157.029 27.534 157.029 26.538C157.029 25.206 157.233 24.048 157.641 23.064C158.061 22.08 158.703 21.318 159.567 20.778C160.431 20.226 161.529 19.95 162.861 19.95C164.205 19.95 165.303 20.226 166.155 20.778C167.007 21.318 167.637 22.086 168.045 23.082C168.453 24.066 168.657 25.224 168.657 26.556ZM160.089 26.556C160.089 27.456 160.179 28.23 160.359 28.878C160.551 29.526 160.851 30.024 161.259 30.372C161.667 30.72 162.195 30.894 162.843 30.894C163.503 30.894 164.031 30.72 164.427 30.372C164.835 30.024 165.129 29.526 165.309 28.878C165.501 28.23 165.597 27.456 165.597 26.556C165.597 25.2 165.381 24.138 164.949 23.37C164.529 22.602 163.833 22.218 162.861 22.218C162.201 22.218 161.667 22.392 161.259 22.74C160.851 23.088 160.551 23.586 160.359 24.234C160.179 24.882 160.089 25.656 160.089 26.556ZM178.08 33L177.342 29.94H173.184L172.428 33H169.26L173.364 20.094H177.108L181.23 33H178.08ZM175.866 24.666C175.794 24.414 175.722 24.15 175.65 23.874C175.578 23.598 175.506 23.31 175.434 23.01C175.374 22.71 175.314 22.404 175.254 22.092C175.206 22.404 175.146 22.716 175.074 23.028C175.002 23.328 174.93 23.616 174.858 23.892C174.798 24.168 174.732 24.426 174.66 24.666L173.832 27.654H176.712L175.866 24.666ZM192.786 26.448C192.786 27.888 192.522 29.094 191.994 30.066C191.478 31.038 190.734 31.77 189.762 32.262C188.802 32.754 187.65 33 186.306 33H182.652V20.148H186.63C187.914 20.148 189.012 20.388 189.924 20.868C190.848 21.348 191.556 22.056 192.048 22.992C192.54 23.916 192.786 25.068 192.786 26.448ZM189.762 26.52C189.762 25.572 189.648 24.792 189.42 24.18C189.192 23.568 188.85 23.118 188.394 22.83C187.95 22.53 187.392 22.38 186.72 22.38H185.568V30.75H186.468C187.596 30.75 188.424 30.396 188.952 29.688C189.492 28.98 189.762 27.924 189.762 26.52ZM210.651 26.556C210.651 27.552 210.537 28.458 210.309 29.274C210.081 30.078 209.733 30.774 209.265 31.362C208.797 31.95 208.191 32.4 207.447 32.712C206.715 33.024 205.845 33.18 204.837 33.18C203.841 33.18 202.977 33.024 202.245 32.712C201.513 32.388 200.907 31.938 200.427 31.362C199.959 30.774 199.605 30.072 199.365 29.256C199.137 28.44 199.023 27.534 199.023 26.538C199.023 25.206 199.227 24.048 199.635 23.064C200.055 22.08 200.697 21.318 201.561 20.778C202.425 20.226 203.523 19.95 204.855 19.95C206.199 19.95 207.297 20.226 208.149 20.778C209.001 21.318 209.631 22.086 210.039 23.082C210.447 24.066 210.651 25.224 210.651 26.556ZM202.083 26.556C202.083 27.456 202.173 28.23 202.353 28.878C202.545 29.526 202.845 30.024 203.253 30.372C203.661 30.72 204.189 30.894 204.837 30.894C205.497 30.894 206.025 30.72 206.421 30.372C206.829 30.024 207.123 29.526 207.303 28.878C207.495 28.23 207.591 27.456 207.591 26.556C207.591 25.2 207.375 24.138 206.943 23.37C206.523 22.602 205.827 22.218 204.855 22.218C204.195 22.218 203.661 22.392 203.253 22.74C202.845 23.088 202.545 23.586 202.353 24.234C202.173 24.882 202.083 25.656 202.083 26.556ZM224.116 33H220.354L215.512 23.28H215.44C215.452 23.58 215.464 23.886 215.476 24.198C215.488 24.498 215.5 24.804 215.512 25.116C215.536 25.416 215.554 25.722 215.566 26.034C215.578 26.334 215.59 26.64 215.602 26.952V33H213.01V20.148H216.754L221.578 29.778H221.632C221.632 29.478 221.626 29.184 221.614 28.896C221.602 28.596 221.584 28.302 221.56 28.014C221.548 27.714 221.536 27.42 221.524 27.132C221.512 26.832 221.506 26.532 221.506 26.232V20.148H224.116V33ZM96.408 60H93.492V49.416H90.378V47.148H99.522V49.416H96.408V60ZM111.452 60H108.518V54.456H104.234V60H101.318V47.148H104.234V52.188H108.518V47.148H111.452V60ZM121.347 60H114.291V47.148H121.347V49.38H117.207V52.206H121.059V54.438H117.207V57.75H121.347V60ZM135.47 60L134.732 56.94H130.574L129.818 60H126.65L130.754 47.094H134.498L138.62 60H135.47ZM133.256 51.666C133.184 51.414 133.112 51.15 133.04 50.874C132.968 50.598 132.896 50.31 132.824 50.01C132.764 49.71 132.704 49.404 132.644 49.092C132.596 49.404 132.536 49.716 132.464 50.028C132.392 50.328 132.32 50.616 132.248 50.892C132.188 51.168 132.122 51.426 132.05 51.666L131.222 54.654H134.102L133.256 51.666ZM144.057 47.148C145.605 47.148 146.745 47.508 147.477 48.228C148.221 48.936 148.593 49.914 148.593 51.162C148.593 51.726 148.515 52.266 148.359 52.782C148.203 53.286 147.945 53.742 147.585 54.15C147.225 54.546 146.745 54.858 146.145 55.086C145.557 55.314 144.831 55.428 143.967 55.428H142.959V60H140.043V47.148H144.057ZM143.967 49.38H142.959V53.196H143.697C144.081 53.196 144.423 53.13 144.723 52.998C145.023 52.866 145.257 52.656 145.425 52.368C145.593 52.08 145.677 51.708 145.677 51.252C145.677 50.616 145.533 50.148 145.245 49.848C144.969 49.536 144.543 49.38 143.967 49.38ZM154.727 47.148C156.275 47.148 157.415 47.508 158.147 48.228C158.891 48.936 159.263 49.914 159.263 51.162C159.263 51.726 159.185 52.266 159.029 52.782C158.873 53.286 158.615 53.742 158.255 54.15C157.895 54.546 157.415 54.858 156.815 55.086C156.227 55.314 155.501 55.428 154.637 55.428H153.629V60H150.713V47.148H154.727ZM154.637 49.38H153.629V53.196H154.367C154.751 53.196 155.093 53.13 155.393 52.998C155.693 52.866 155.927 52.656 156.095 52.368C156.263 52.08 156.347 51.708 156.347 51.252C156.347 50.616 156.203 50.148 155.915 49.848C155.639 49.536 155.213 49.38 154.637 49.38ZM173.265 56.436C173.265 57.192 173.097 57.852 172.761 58.416C172.425 58.98 171.915 59.418 171.231 59.73C170.559 60.03 169.707 60.18 168.675 60.18C168.195 60.18 167.751 60.15 167.343 60.09C166.935 60.03 166.551 59.946 166.191 59.838C165.831 59.718 165.471 59.574 165.111 59.406V56.868C165.723 57.132 166.347 57.378 166.983 57.606C167.631 57.822 168.243 57.93 168.819 57.93C169.191 57.93 169.491 57.87 169.719 57.75C169.947 57.63 170.115 57.468 170.223 57.264C170.331 57.06 170.385 56.826 170.385 56.562C170.385 56.238 170.295 55.962 170.115 55.734C169.947 55.506 169.695 55.296 169.359 55.104C169.023 54.9 168.609 54.696 168.117 54.492C167.757 54.336 167.403 54.156 167.055 53.952C166.707 53.748 166.395 53.502 166.119 53.214C165.843 52.914 165.621 52.554 165.453 52.134C165.297 51.714 165.219 51.21 165.219 50.622C165.219 49.854 165.399 49.2 165.759 48.66C166.119 48.108 166.623 47.688 167.271 47.4C167.919 47.112 168.675 46.968 169.539 46.968C170.247 46.968 170.901 47.046 171.501 47.202C172.113 47.358 172.695 47.58 173.247 47.868L172.329 49.992C171.801 49.752 171.297 49.566 170.817 49.434C170.349 49.302 169.893 49.236 169.449 49.236C169.149 49.236 168.897 49.29 168.693 49.398C168.489 49.506 168.333 49.656 168.225 49.848C168.129 50.04 168.081 50.268 168.081 50.532C168.081 50.832 168.159 51.09 168.315 51.306C168.483 51.51 168.741 51.714 169.089 51.918C169.437 52.11 169.881 52.344 170.421 52.62C171.021 52.92 171.531 53.238 171.951 53.574C172.383 53.898 172.707 54.288 172.923 54.744C173.151 55.2 173.265 55.764 173.265 56.436ZM180.291 60H177.375V49.416H174.261V47.148H183.405V49.416H180.291V60ZM195.991 53.556C195.991 54.552 195.877 55.458 195.649 56.274C195.421 57.078 195.073 57.774 194.605 58.362C194.137 58.95 193.531 59.4 192.787 59.712C192.055 60.024 191.185 60.18 190.177 60.18C189.181 60.18 188.317 60.024 187.585 59.712C186.853 59.388 186.247 58.938 185.767 58.362C185.299 57.774 184.945 57.072 184.705 56.256C184.477 55.44 184.363 54.534 184.363 53.538C184.363 52.206 184.567 51.048 184.975 50.064C185.395 49.08 186.037 48.318 186.901 47.778C187.765 47.226 188.863 46.95 190.195 46.95C191.539 46.95 192.637 47.226 193.489 47.778C194.341 48.318 194.971 49.086 195.379 50.082C195.787 51.066 195.991 52.224 195.991 53.556ZM187.423 53.556C187.423 54.456 187.513 55.23 187.693 55.878C187.885 56.526 188.185 57.024 188.593 57.372C189.001 57.72 189.529 57.894 190.177 57.894C190.837 57.894 191.365 57.72 191.761 57.372C192.169 57.024 192.463 56.526 192.643 55.878C192.835 55.23 192.931 54.456 192.931 53.556C192.931 52.2 192.715 51.138 192.283 50.37C191.863 49.602 191.167 49.218 190.195 49.218C189.535 49.218 189.001 49.392 188.593 49.74C188.185 50.088 187.885 50.586 187.693 51.234C187.513 51.882 187.423 52.656 187.423 53.556ZM202.094 47.148C203.186 47.148 204.092 47.292 204.812 47.58C205.532 47.856 206.066 48.282 206.414 48.858C206.774 49.422 206.954 50.136 206.954 51C206.954 51.588 206.858 52.104 206.666 52.548C206.486 52.98 206.234 53.352 205.91 53.664C205.586 53.964 205.22 54.21 204.812 54.402L208.34 60H205.082L202.364 55.068H201.266V60H198.35V47.148H202.094ZM201.968 49.38H201.266V52.854H201.986C202.43 52.854 202.802 52.788 203.102 52.656C203.402 52.524 203.63 52.326 203.786 52.062C203.942 51.786 204.02 51.456 204.02 51.072C204.02 50.664 203.948 50.34 203.804 50.1C203.66 49.848 203.438 49.668 203.138 49.56C202.838 49.44 202.448 49.38 201.968 49.38ZM216.708 60H209.652V47.148H216.708V49.38H212.568V52.206H216.42V54.438H212.568V57.75H216.708V60Z" fill="white"/>
<circle cx="45" cy="40" r="25" fill="white"/>
<mask id="mask0_2_11" style="mask-type:alpha" maskUnits="userSpaceOnUse" x="20" y="15" width="50" height="50">
<circle cx="45" cy="40" r="25" fill="white"/>
</mask>
<g mask="url(#mask0_2_11)">
<path d="M66.3631 65.5438C66.2722 55.4371 74.6386 50.5201 75.0211 50.2912C70.2829 43.3829 62.9388 42.439 60.358 42.3638C54.1898 41.7147 48.2066 46.0546 45.0645 46.0546C41.8597 46.0546 37.0211 42.4265 31.8062 42.5331C25.0955 42.6366 18.8176 46.5219 15.3745 52.5552C8.26866 64.8571 13.5682 82.9352 20.3761 92.8789C23.7816 97.7488 27.761 103.186 32.9696 102.995C38.0653 102.785 39.9688 99.7464 46.1182 99.7464C52.2111 99.7464 53.9985 102.995 59.3106 102.873C64.7795 102.785 68.2227 97.9809 71.509 93.0671C75.4445 87.4853 77.0249 81.9882 77.0877 81.7059C76.9591 81.662 66.4666 77.6576 66.3631 65.5438Z" fill="#ABACAE"/>
<path d="M56.3284 35.8224C59.0692 32.395 60.9444 27.732 60.4238 23C56.457 23.1756 51.4961 25.7439 48.6394 29.0961C46.1119 32.05 43.8541 36.8917 44.4374 41.445C48.8934 41.7774 53.4686 39.1966 56.3284 35.8224Z" fill="#ABACAE"/>
</g>
</g>
<defs>
<clipPath id="clip0_2_11">
<rect width="260" height="80" fill="white"/>
</clipPath>
</defs>
</svg>
