<svg width="260" height="80" viewBox="0 0 260 80" fill="none" xmlns="http://www.w3.org/2000/svg">
<rect width="260" height="80" fill="#434B57"/>
<path d="M116.138 26.782H121.124V33.442C120.5 33.67 119.816 33.85 119.072 33.982C118.328 34.114 117.518 34.18 116.642 34.18C115.466 34.18 114.446 33.928 113.582 33.424C112.73 32.92 112.07 32.176 111.602 31.192C111.146 30.208 110.918 28.996 110.918 27.556C110.918 26.212 111.158 25.048 111.638 24.064C112.13 23.08 112.844 22.318 113.78 21.778C114.728 21.238 115.886 20.968 117.254 20.968C117.95 20.968 118.622 21.04 119.27 21.184C119.918 21.328 120.494 21.52 120.998 21.76L120.062 23.938C119.654 23.734 119.216 23.566 118.748 23.434C118.28 23.302 117.782 23.236 117.254 23.236C116.522 23.236 115.904 23.416 115.4 23.776C114.908 24.136 114.536 24.646 114.284 25.306C114.044 25.954 113.924 26.722 113.924 27.61C113.924 28.45 114.032 29.194 114.248 29.842C114.464 30.49 114.788 31 115.22 31.372C115.652 31.732 116.198 31.912 116.858 31.912C117.05 31.912 117.236 31.906 117.416 31.894C117.596 31.87 117.764 31.846 117.92 31.822C118.088 31.786 118.232 31.756 118.352 31.732V29.05H116.138V26.782ZM130.871 34H123.815V21.148H130.871V23.38H126.731V26.206H130.583V28.438H126.731V31.75H130.871V34ZM138.187 34H135.271V23.416H132.157V21.148H141.301V23.416H138.187V34ZM152.514 34H146.628V32.452L148.122 31.732V23.416L146.628 22.696V21.148H152.514V22.696L151.038 23.416V31.732L152.514 32.452V34ZM159.474 34H156.558V23.416H153.444V21.148H162.588V23.416H159.474V34ZM179.903 27.556C179.903 28.552 179.789 29.458 179.561 30.274C179.333 31.078 178.985 31.774 178.517 32.362C178.049 32.95 177.443 33.4 176.699 33.712C175.967 34.024 175.097 34.18 174.089 34.18C173.093 34.18 172.229 34.024 171.497 33.712C170.765 33.388 170.159 32.938 169.679 32.362C169.211 31.774 168.857 31.072 168.617 30.256C168.389 29.44 168.275 28.534 168.275 27.538C168.275 26.206 168.479 25.048 168.887 24.064C169.307 23.08 169.949 22.318 170.813 21.778C171.677 21.226 172.775 20.95 174.107 20.95C175.451 20.95 176.549 21.226 177.401 21.778C178.253 22.318 178.883 23.086 179.291 24.082C179.699 25.066 179.903 26.224 179.903 27.556ZM171.335 27.556C171.335 28.456 171.425 29.23 171.605 29.878C171.797 30.526 172.097 31.024 172.505 31.372C172.913 31.72 173.441 31.894 174.089 31.894C174.749 31.894 175.277 31.72 175.673 31.372C176.081 31.024 176.375 30.526 176.555 29.878C176.747 29.23 176.843 28.456 176.843 27.556C176.843 26.2 176.627 25.138 176.195 24.37C175.775 23.602 175.079 23.218 174.107 23.218C173.447 23.218 172.913 23.392 172.505 23.74C172.097 24.088 171.797 24.586 171.605 25.234C171.425 25.882 171.335 26.656 171.335 27.556ZM193.368 34H189.606L184.764 24.28H184.692C184.704 24.58 184.716 24.886 184.728 25.198C184.74 25.498 184.752 25.804 184.764 26.116C184.788 26.416 184.806 26.722 184.818 27.034C184.83 27.334 184.842 27.64 184.854 27.952V34H182.262V21.148H186.006L190.83 30.778H190.884C190.884 30.478 190.878 30.184 190.866 29.896C190.854 29.596 190.836 29.302 190.812 29.014C190.8 28.714 190.788 28.42 190.776 28.132C190.764 27.832 190.758 27.532 190.758 27.232V21.148H193.368V34ZM118.82 59L118.082 55.94H113.924L113.168 59H110L114.104 46.094H117.848L121.97 59H118.82ZM116.606 50.666C116.534 50.414 116.462 50.15 116.39 49.874C116.318 49.598 116.246 49.31 116.174 49.01C116.114 48.71 116.054 48.404 115.994 48.092C115.946 48.404 115.886 48.716 115.814 49.028C115.742 49.328 115.67 49.616 115.598 49.892C115.538 50.168 115.472 50.426 115.4 50.666L114.572 53.654H117.452L116.606 50.666ZM127.407 46.148C128.955 46.148 130.095 46.508 130.827 47.228C131.571 47.936 131.943 48.914 131.943 50.162C131.943 50.726 131.865 51.266 131.709 51.782C131.553 52.286 131.295 52.742 130.935 53.15C130.575 53.546 130.095 53.858 129.495 54.086C128.907 54.314 128.181 54.428 127.317 54.428H126.309V59H123.393V46.148H127.407ZM127.317 48.38H126.309V52.196H127.047C127.431 52.196 127.773 52.13 128.073 51.998C128.373 51.866 128.607 51.656 128.775 51.368C128.943 51.08 129.027 50.708 129.027 50.252C129.027 49.616 128.883 49.148 128.595 48.848C128.319 48.536 127.893 48.38 127.317 48.38ZM138.077 46.148C139.625 46.148 140.765 46.508 141.497 47.228C142.241 47.936 142.613 48.914 142.613 50.162C142.613 50.726 142.535 51.266 142.379 51.782C142.223 52.286 141.965 52.742 141.605 53.15C141.245 53.546 140.765 53.858 140.165 54.086C139.577 54.314 138.851 54.428 137.987 54.428H136.979V59H134.063V46.148H138.077ZM137.987 48.38H136.979V52.196H137.717C138.101 52.196 138.443 52.13 138.743 51.998C139.043 51.866 139.277 51.656 139.445 51.368C139.613 51.08 139.697 50.708 139.697 50.252C139.697 49.616 139.553 49.148 139.265 48.848C138.989 48.536 138.563 48.38 137.987 48.38ZM144.733 59V46.148H147.649V56.75H152.419V59H144.733ZM161.492 59H154.436V46.148H161.492V48.38H157.352V51.206H161.204V53.438H157.352V56.75H161.492V59ZM175.705 55.436C175.705 56.192 175.537 56.852 175.201 57.416C174.865 57.98 174.355 58.418 173.671 58.73C172.999 59.03 172.147 59.18 171.115 59.18C170.635 59.18 170.191 59.15 169.783 59.09C169.375 59.03 168.991 58.946 168.631 58.838C168.271 58.718 167.911 58.574 167.551 58.406V55.868C168.163 56.132 168.787 56.378 169.423 56.606C170.071 56.822 170.683 56.93 171.259 56.93C171.631 56.93 171.931 56.87 172.159 56.75C172.387 56.63 172.555 56.468 172.663 56.264C172.771 56.06 172.825 55.826 172.825 55.562C172.825 55.238 172.735 54.962 172.555 54.734C172.387 54.506 172.135 54.296 171.799 54.104C171.463 53.9 171.049 53.696 170.557 53.492C170.197 53.336 169.843 53.156 169.495 52.952C169.147 52.748 168.835 52.502 168.559 52.214C168.283 51.914 168.061 51.554 167.893 51.134C167.737 50.714 167.659 50.21 167.659 49.622C167.659 48.854 167.839 48.2 168.199 47.66C168.559 47.108 169.063 46.688 169.711 46.4C170.359 46.112 171.115 45.968 171.979 45.968C172.687 45.968 173.341 46.046 173.941 46.202C174.553 46.358 175.135 46.58 175.687 46.868L174.769 48.992C174.241 48.752 173.737 48.566 173.257 48.434C172.789 48.302 172.333 48.236 171.889 48.236C171.589 48.236 171.337 48.29 171.133 48.398C170.929 48.506 170.773 48.656 170.665 48.848C170.569 49.04 170.521 49.268 170.521 49.532C170.521 49.832 170.599 50.09 170.755 50.306C170.923 50.51 171.181 50.714 171.529 50.918C171.877 51.11 172.321 51.344 172.861 51.62C173.461 51.92 173.971 52.238 174.391 52.574C174.823 52.898 175.147 53.288 175.363 53.744C175.591 54.2 175.705 54.764 175.705 55.436ZM182.73 59H179.814V48.416H176.7V46.148H185.844V48.416H182.73V59ZM198.431 52.556C198.431 53.552 198.317 54.458 198.089 55.274C197.861 56.078 197.513 56.774 197.045 57.362C196.577 57.95 195.971 58.4 195.227 58.712C194.495 59.024 193.625 59.18 192.617 59.18C191.621 59.18 190.757 59.024 190.025 58.712C189.293 58.388 188.687 57.938 188.207 57.362C187.739 56.774 187.385 56.072 187.145 55.256C186.917 54.44 186.803 53.534 186.803 52.538C186.803 51.206 187.007 50.048 187.415 49.064C187.835 48.08 188.477 47.318 189.341 46.778C190.205 46.226 191.303 45.95 192.635 45.95C193.979 45.95 195.077 46.226 195.929 46.778C196.781 47.318 197.411 48.086 197.819 49.082C198.227 50.066 198.431 51.224 198.431 52.556ZM189.863 52.556C189.863 53.456 189.953 54.23 190.133 54.878C190.325 55.526 190.625 56.024 191.033 56.372C191.441 56.72 191.969 56.894 192.617 56.894C193.277 56.894 193.805 56.72 194.201 56.372C194.609 56.024 194.903 55.526 195.083 54.878C195.275 54.23 195.371 53.456 195.371 52.556C195.371 51.2 195.155 50.138 194.723 49.37C194.303 48.602 193.607 48.218 192.635 48.218C191.975 48.218 191.441 48.392 191.033 48.74C190.625 49.088 190.325 49.586 190.133 50.234C189.953 50.882 189.863 51.656 189.863 52.556ZM204.533 46.148C205.625 46.148 206.531 46.292 207.251 46.58C207.971 46.856 208.505 47.282 208.853 47.858C209.213 48.422 209.393 49.136 209.393 50C209.393 50.588 209.297 51.104 209.105 51.548C208.925 51.98 208.673 52.352 208.349 52.664C208.025 52.964 207.659 53.21 207.251 53.402L210.779 59H207.521L204.803 54.068H203.705V59H200.789V46.148H204.533ZM204.407 48.38H203.705V51.854H204.425C204.869 51.854 205.241 51.788 205.541 51.656C205.841 51.524 206.069 51.326 206.225 51.062C206.381 50.786 206.459 50.456 206.459 50.072C206.459 49.664 206.387 49.34 206.243 49.1C206.099 48.848 205.877 48.668 205.577 48.56C205.277 48.44 204.887 48.38 204.407 48.38ZM219.148 59H212.092V46.148H219.148V48.38H215.008V51.206H218.86V53.438H215.008V56.75H219.148V59Z" fill="white"/>
<rect width="90" height="80" fill="black"/>
<mask id="mask0_1_101" style="mask-type:alpha" maskUnits="userSpaceOnUse" x="21" y="16" width="50" height="50">
<circle cx="46" cy="41" r="25" fill="white"/>
</mask>
<g mask="url(#mask0_1_101)">
<path d="M67.3631 63.5438C67.2722 53.4371 75.6386 48.5201 76.0211 48.2912C71.2829 41.3829 63.9388 40.439 61.358 40.3638C55.1898 39.7147 49.2066 44.0546 46.0645 44.0546C42.8597 44.0546 38.0211 40.4265 32.8062 40.5331C26.0955 40.6366 19.8176 44.5219 16.3745 50.5552C9.26866 62.8571 14.5682 80.9352 21.3761 90.8789C24.7816 95.7488 28.761 101.186 33.9696 100.995C39.0653 100.785 40.9688 97.7464 47.1182 97.7464C53.2111 97.7464 54.9985 100.995 60.3106 100.873C65.7795 100.785 69.2227 95.9809 72.509 91.0671C76.4445 85.4853 78.0249 79.9882 78.0877 79.7059C77.9591 79.662 67.4666 75.6576 67.3631 63.5438Z" fill="white"/>
<path d="M57.3284 33.8224C60.0692 30.395 61.9444 25.732 61.4238 21C57.457 21.1756 52.4961 23.7439 49.6394 27.0961C47.1119 30.05 44.8541 34.8917 45.4374 39.445C49.8934 39.7774 54.4686 37.1966 57.3284 33.8224Z" fill="white"/>
</g>
</svg>
