<svg width="260" height="80" viewBox="0 0 260 80" fill="none" xmlns="http://www.w3.org/2000/svg">
<rect width="260" height="80" fill="#485A6C"/>
<path d="M116.138 25.782H121.124V32.442C120.5 32.67 119.816 32.85 119.072 32.982C118.328 33.114 117.518 33.18 116.642 33.18C115.466 33.18 114.446 32.928 113.582 32.424C112.73 31.92 112.07 31.176 111.602 30.192C111.146 29.208 110.918 27.996 110.918 26.556C110.918 25.212 111.158 24.048 111.638 23.064C112.13 22.08 112.844 21.318 113.78 20.778C114.728 20.238 115.886 19.968 117.254 19.968C117.95 19.968 118.622 20.04 119.27 20.184C119.918 20.328 120.494 20.52 120.998 20.76L120.062 22.938C119.654 22.734 119.216 22.566 118.748 22.434C118.28 22.302 117.782 22.236 117.254 22.236C116.522 22.236 115.904 22.416 115.4 22.776C114.908 23.136 114.536 23.646 114.284 24.306C114.044 24.954 113.924 25.722 113.924 26.61C113.924 27.45 114.032 28.194 114.248 28.842C114.464 29.49 114.788 30 115.22 30.372C115.652 30.732 116.198 30.912 116.858 30.912C117.05 30.912 117.236 30.906 117.416 30.894C117.596 30.87 117.764 30.846 117.92 30.822C118.088 30.786 118.232 30.756 118.352 30.732V28.05H116.138V25.782ZM130.871 33H123.815V20.148H130.871V22.38H126.731V25.206H130.583V27.438H126.731V30.75H130.871V33ZM138.187 33H135.271V22.416H132.157V20.148H141.301V22.416H138.187V33ZM152.514 33H146.628V31.452L148.122 30.732V22.416L146.628 21.696V20.148H152.514V21.696L151.038 22.416V30.732L152.514 31.452V33ZM159.474 33H156.558V22.416H153.444V20.148H162.588V22.416H159.474V33ZM179.903 26.556C179.903 27.552 179.789 28.458 179.561 29.274C179.333 30.078 178.985 30.774 178.517 31.362C178.049 31.95 177.443 32.4 176.699 32.712C175.967 33.024 175.097 33.18 174.089 33.18C173.093 33.18 172.229 33.024 171.497 32.712C170.765 32.388 170.159 31.938 169.679 31.362C169.211 30.774 168.857 30.072 168.617 29.256C168.389 28.44 168.275 27.534 168.275 26.538C168.275 25.206 168.479 24.048 168.887 23.064C169.307 22.08 169.949 21.318 170.813 20.778C171.677 20.226 172.775 19.95 174.107 19.95C175.451 19.95 176.549 20.226 177.401 20.778C178.253 21.318 178.883 22.086 179.291 23.082C179.699 24.066 179.903 25.224 179.903 26.556ZM171.335 26.556C171.335 27.456 171.425 28.23 171.605 28.878C171.797 29.526 172.097 30.024 172.505 30.372C172.913 30.72 173.441 30.894 174.089 30.894C174.749 30.894 175.277 30.72 175.673 30.372C176.081 30.024 176.375 29.526 176.555 28.878C176.747 28.23 176.843 27.456 176.843 26.556C176.843 25.2 176.627 24.138 176.195 23.37C175.775 22.602 175.079 22.218 174.107 22.218C173.447 22.218 172.913 22.392 172.505 22.74C172.097 23.088 171.797 23.586 171.605 24.234C171.425 24.882 171.335 25.656 171.335 26.556ZM193.368 33H189.606L184.764 23.28H184.692C184.704 23.58 184.716 23.886 184.728 24.198C184.74 24.498 184.752 24.804 184.764 25.116C184.788 25.416 184.806 25.722 184.818 26.034C184.83 26.334 184.842 26.64 184.854 26.952V33H182.262V20.148H186.006L190.83 29.778H190.884C190.884 29.478 190.878 29.184 190.866 28.896C190.854 28.596 190.836 28.302 190.812 28.014C190.8 27.714 190.788 27.42 190.776 27.132C190.764 26.832 190.758 26.532 190.758 26.232V20.148H193.368V33ZM118.82 60L118.082 56.94H113.924L113.168 60H110L114.104 47.094H117.848L121.97 60H118.82ZM116.606 51.666C116.534 51.414 116.462 51.15 116.39 50.874C116.318 50.598 116.246 50.31 116.174 50.01C116.114 49.71 116.054 49.404 115.994 49.092C115.946 49.404 115.886 49.716 115.814 50.028C115.742 50.328 115.67 50.616 115.598 50.892C115.538 51.168 115.472 51.426 115.4 51.666L114.572 54.654H117.452L116.606 51.666ZM127.407 47.148C128.955 47.148 130.095 47.508 130.827 48.228C131.571 48.936 131.943 49.914 131.943 51.162C131.943 51.726 131.865 52.266 131.709 52.782C131.553 53.286 131.295 53.742 130.935 54.15C130.575 54.546 130.095 54.858 129.495 55.086C128.907 55.314 128.181 55.428 127.317 55.428H126.309V60H123.393V47.148H127.407ZM127.317 49.38H126.309V53.196H127.047C127.431 53.196 127.773 53.13 128.073 52.998C128.373 52.866 128.607 52.656 128.775 52.368C128.943 52.08 129.027 51.708 129.027 51.252C129.027 50.616 128.883 50.148 128.595 49.848C128.319 49.536 127.893 49.38 127.317 49.38ZM138.077 47.148C139.625 47.148 140.765 47.508 141.497 48.228C142.241 48.936 142.613 49.914 142.613 51.162C142.613 51.726 142.535 52.266 142.379 52.782C142.223 53.286 141.965 53.742 141.605 54.15C141.245 54.546 140.765 54.858 140.165 55.086C139.577 55.314 138.851 55.428 137.987 55.428H136.979V60H134.063V47.148H138.077ZM137.987 49.38H136.979V53.196H137.717C138.101 53.196 138.443 53.13 138.743 52.998C139.043 52.866 139.277 52.656 139.445 52.368C139.613 52.08 139.697 51.708 139.697 51.252C139.697 50.616 139.553 50.148 139.265 49.848C138.989 49.536 138.563 49.38 137.987 49.38ZM144.733 60V47.148H147.649V57.75H152.419V60H144.733ZM161.492 60H154.436V47.148H161.492V49.38H157.352V52.206H161.204V54.438H157.352V57.75H161.492V60ZM175.705 56.436C175.705 57.192 175.537 57.852 175.201 58.416C174.865 58.98 174.355 59.418 173.671 59.73C172.999 60.03 172.147 60.18 171.115 60.18C170.635 60.18 170.191 60.15 169.783 60.09C169.375 60.03 168.991 59.946 168.631 59.838C168.271 59.718 167.911 59.574 167.551 59.406V56.868C168.163 57.132 168.787 57.378 169.423 57.606C170.071 57.822 170.683 57.93 171.259 57.93C171.631 57.93 171.931 57.87 172.159 57.75C172.387 57.63 172.555 57.468 172.663 57.264C172.771 57.06 172.825 56.826 172.825 56.562C172.825 56.238 172.735 55.962 172.555 55.734C172.387 55.506 172.135 55.296 171.799 55.104C171.463 54.9 171.049 54.696 170.557 54.492C170.197 54.336 169.843 54.156 169.495 53.952C169.147 53.748 168.835 53.502 168.559 53.214C168.283 52.914 168.061 52.554 167.893 52.134C167.737 51.714 167.659 51.21 167.659 50.622C167.659 49.854 167.839 49.2 168.199 48.66C168.559 48.108 169.063 47.688 169.711 47.4C170.359 47.112 171.115 46.968 171.979 46.968C172.687 46.968 173.341 47.046 173.941 47.202C174.553 47.358 175.135 47.58 175.687 47.868L174.769 49.992C174.241 49.752 173.737 49.566 173.257 49.434C172.789 49.302 172.333 49.236 171.889 49.236C171.589 49.236 171.337 49.29 171.133 49.398C170.929 49.506 170.773 49.656 170.665 49.848C170.569 50.04 170.521 50.268 170.521 50.532C170.521 50.832 170.599 51.09 170.755 51.306C170.923 51.51 171.181 51.714 171.529 51.918C171.877 52.11 172.321 52.344 172.861 52.62C173.461 52.92 173.971 53.238 174.391 53.574C174.823 53.898 175.147 54.288 175.363 54.744C175.591 55.2 175.705 55.764 175.705 56.436ZM182.73 60H179.814V49.416H176.7V47.148H185.844V49.416H182.73V60ZM198.431 53.556C198.431 54.552 198.317 55.458 198.089 56.274C197.861 57.078 197.513 57.774 197.045 58.362C196.577 58.95 195.971 59.4 195.227 59.712C194.495 60.024 193.625 60.18 192.617 60.18C191.621 60.18 190.757 60.024 190.025 59.712C189.293 59.388 188.687 58.938 188.207 58.362C187.739 57.774 187.385 57.072 187.145 56.256C186.917 55.44 186.803 54.534 186.803 53.538C186.803 52.206 187.007 51.048 187.415 50.064C187.835 49.08 188.477 48.318 189.341 47.778C190.205 47.226 191.303 46.95 192.635 46.95C193.979 46.95 195.077 47.226 195.929 47.778C196.781 48.318 197.411 49.086 197.819 50.082C198.227 51.066 198.431 52.224 198.431 53.556ZM189.863 53.556C189.863 54.456 189.953 55.23 190.133 55.878C190.325 56.526 190.625 57.024 191.033 57.372C191.441 57.72 191.969 57.894 192.617 57.894C193.277 57.894 193.805 57.72 194.201 57.372C194.609 57.024 194.903 56.526 195.083 55.878C195.275 55.23 195.371 54.456 195.371 53.556C195.371 52.2 195.155 51.138 194.723 50.37C194.303 49.602 193.607 49.218 192.635 49.218C191.975 49.218 191.441 49.392 191.033 49.74C190.625 50.088 190.325 50.586 190.133 51.234C189.953 51.882 189.863 52.656 189.863 53.556ZM204.533 47.148C205.625 47.148 206.531 47.292 207.251 47.58C207.971 47.856 208.505 48.282 208.853 48.858C209.213 49.422 209.393 50.136 209.393 51C209.393 51.588 209.297 52.104 209.105 52.548C208.925 52.98 208.673 53.352 208.349 53.664C208.025 53.964 207.659 54.21 207.251 54.402L210.779 60H207.521L204.803 55.068H203.705V60H200.789V47.148H204.533ZM204.407 49.38H203.705V52.854H204.425C204.869 52.854 205.241 52.788 205.541 52.656C205.841 52.524 206.069 52.326 206.225 52.062C206.381 51.786 206.459 51.456 206.459 51.072C206.459 50.664 206.387 50.34 206.243 50.1C206.099 49.848 205.877 49.668 205.577 49.56C205.277 49.44 204.887 49.38 204.407 49.38ZM219.148 60H212.092V47.148H219.148V49.38H215.008V52.206H218.86V54.438H215.008V57.75H219.148V60Z" fill="white"/>
<rect width="90" height="80" fill="#1A1A1A"/>
<circle cx="45" cy="40" r="25" fill="white"/>
<mask id="mask0_1_101" style="mask-type:alpha" maskUnits="userSpaceOnUse" x="20" y="15" width="50" height="50">
<circle cx="45" cy="40" r="25" fill="white"/>
</mask>
<g mask="url(#mask0_1_101)">
<path d="M66.3631 65.5438C66.2722 55.4371 74.6386 50.5201 75.0211 50.2912C70.2829 43.3829 62.9388 42.439 60.358 42.3638C54.1898 41.7147 48.2066 46.0546 45.0645 46.0546C41.8597 46.0546 37.0211 42.4265 31.8062 42.5331C25.0955 42.6366 18.8176 46.5219 15.3745 52.5552C8.26866 64.8571 13.5682 82.9352 20.3761 92.8789C23.7816 97.7488 27.761 103.186 32.9696 102.995C38.0653 102.785 39.9688 99.7464 46.1182 99.7464C52.2111 99.7464 53.9985 102.995 59.3106 102.873C64.7795 102.785 68.2227 97.9809 71.509 93.0671C75.4445 87.4853 77.0249 81.9882 77.0877 81.7059C76.9591 81.662 66.4666 77.6576 66.3631 65.5438Z" fill="#ABACAE"/>
<path d="M56.3284 35.8224C59.0692 32.395 60.9444 27.732 60.4238 23C56.457 23.1756 51.4961 25.7439 48.6394 29.0961C46.1119 32.05 43.8541 36.8917 44.4374 41.445C48.8934 41.7774 53.4686 39.1966 56.3284 35.8224Z" fill="#ABACAE"/>
</g>
</svg>
