<svg width="260" height="80" viewBox="0 0 260 80" fill="none" xmlns="http://www.w3.org/2000/svg">
<g clip-path="url(#clip0_101_14)">
<rect width="260" height="80" fill="#5778C5"/>
<path d="M66.0703 57.4141C65.4609 57.6953 64.8594 57.9062 64.2656 58.0469C63.6719 58.2031 63.1406 58.3203 62.6719 58.3984C62.125 58.4766 61.5938 58.5234 61.0781 58.5391C60.5156 58.5391 59.9062 58.4375 59.25 58.2344C58.6094 58.0312 57.9609 57.6875 57.3047 57.2031C56.6484 56.7031 56.0156 56.0312 55.4062 55.1875C54.7969 54.3281 54.2578 53.2578 53.7891 51.9766C53.3203 50.6797 52.9453 49.1328 52.6641 47.3359C52.3828 45.5391 52.2422 43.4453 52.2422 41.0547C52.2422 38.6641 52.4062 36.5781 52.7344 34.7969C53.0781 33.0156 53.5156 31.4922 54.0469 30.2266C54.5938 28.9453 55.2031 27.8984 55.875 27.0859C56.5625 26.2578 57.2578 25.6094 57.9609 25.1406C58.6641 24.6562 59.3438 24.3281 60 24.1562C60.6719 23.9688 61.25 23.875 61.7344 23.875C62.1875 23.8906 62.6328 23.9375 63.0703 24.0156C63.4453 24.0938 63.8359 24.2109 64.2422 24.3672C64.6641 24.5234 65.0312 24.7422 65.3438 25.0234L64.875 29.7344C64.4375 29.5156 64.0234 29.3594 63.6328 29.2656C63.2578 29.1562 62.8984 29.1016 62.5547 29.1016C61.8984 29.1016 61.3125 29.2812 60.7969 29.6406C60.2969 29.9844 59.8594 30.4453 59.4844 31.0234C59.125 31.6016 58.8125 32.2578 58.5469 32.9922C58.2969 33.7266 58.0938 34.4766 57.9375 35.2422C57.5469 37.0391 57.3281 39.0859 57.2812 41.3828C57.3281 43.6641 57.5547 45.6953 57.9609 47.4766C58.1328 48.2422 58.3438 48.9922 58.5938 49.7266C58.8594 50.4453 59.1797 51.0938 59.5547 51.6719C59.9297 52.2344 60.3672 52.6875 60.8672 53.0312C61.3828 53.375 61.9766 53.5469 62.6484 53.5469C63.3828 53.5469 64.2344 53.2891 65.2031 52.7734L66.0703 57.4141ZM83.3672 41.5938C83.3672 44.7344 83.1484 47.3984 82.7109 49.5859C82.2891 51.7734 81.7109 53.5547 80.9766 54.9297C80.2422 56.2891 79.375 57.2812 78.375 57.9062C77.375 58.5156 76.3047 58.8203 75.1641 58.8203C74.0234 58.8203 72.9531 58.5312 71.9531 57.9531C70.9531 57.3594 70.0781 56.3906 69.3281 55.0469C68.5781 53.7031 67.9844 51.9297 67.5469 49.7266C67.125 47.5234 66.9141 44.8125 66.9141 41.5938C66.9141 38.3594 67.125 35.6172 67.5469 33.3672C67.9844 31.1016 68.5781 29.2656 69.3281 27.8594C70.0781 26.4375 70.9531 25.4141 71.9531 24.7891C72.9531 24.1484 74.0234 23.8281 75.1641 23.8281C76.3047 23.8281 77.375 24.1406 78.375 24.7656C79.375 25.375 80.2422 26.3828 80.9766 27.7891C81.7109 29.1953 82.2891 31.0312 82.7109 33.2969C83.1484 35.5469 83.3672 38.3125 83.3672 41.5938ZM78.1406 41.5938C78.1406 39.1406 78.0625 37.0703 77.9062 35.3828C77.75 33.6953 77.5312 32.3281 77.25 31.2812C76.9844 30.2188 76.6719 29.4531 76.3125 28.9844C75.9531 28.5156 75.5703 28.2812 75.1641 28.2812C74.7422 28.2812 74.3438 28.5234 73.9688 29.0078C73.6094 29.4766 73.2891 30.2422 73.0078 31.3047C72.7422 32.3516 72.5312 33.7266 72.375 35.4297C72.2188 37.1172 72.1406 39.1719 72.1406 41.5938C72.1406 44 72.2188 46.0234 72.375 47.6641C72.5312 49.2891 72.7422 50.6016 73.0078 51.6016C73.2891 52.5859 73.6094 53.2891 73.9688 53.7109C74.3438 54.1328 74.7422 54.3438 75.1641 54.3438C75.5703 54.3438 75.9531 54.125 76.3125 53.6875C76.6719 53.2344 76.9844 52.5078 77.25 51.5078C77.5312 50.4922 77.75 49.1719 77.9062 47.5469C78.0625 45.9219 78.1406 43.9375 78.1406 41.5938ZM102.867 24.2031C102.664 27.3438 102.508 30.4609 102.398 33.5547C102.289 36.6328 102.234 39.7266 102.234 42.8359C102.234 45.2578 102.266 47.6484 102.328 50.0078C102.406 52.3672 102.531 54.7422 102.703 57.1328L97.9688 56.9922C97.3438 54.9609 96.7266 52.9453 96.1172 50.9453C95.5234 48.9297 94.9297 46.9297 94.3359 44.9453C93.7422 42.9609 93.1328 40.9844 92.5078 39.0156C91.8984 37.0469 91.2656 35.0859 90.6094 33.1328C90.6562 37.2109 90.7266 41.2812 90.8203 45.3438C90.9297 49.3906 91.1172 53.4297 91.3828 57.4609L85.9688 57.4141C86.1562 52.4297 86.25 47.4219 86.25 42.3906C86.25 39.2969 86.2188 36.2344 86.1562 33.2031C86.0938 30.1719 86 27.125 85.875 24.0625L92.4375 24.2031C93.2344 27.6406 94.0859 31.1328 94.9922 34.6797C95.8984 38.2266 96.8594 41.7266 97.875 45.1797C97.7656 41.6484 97.6016 38.1172 97.3828 34.5859C97.1797 31.0391 96.9531 27.5625 96.7031 24.1562L102.867 24.2031ZM117.492 29.2422C116.992 29.2109 116.414 29.1875 115.758 29.1719C115.117 29.1562 114.43 29.1484 113.695 29.1484C113.586 30.6016 113.492 32.1094 113.414 33.6719C113.352 35.2188 113.297 36.7969 113.25 38.4062C113.203 40 113.172 41.6094 113.156 43.2344C113.141 44.8438 113.133 46.4375 113.133 48.0156C113.133 49.8125 113.141 51.5547 113.156 53.2422C113.188 54.9141 113.242 56.5312 113.32 58.0938H108.328C108.469 55.4375 108.578 52.6094 108.656 49.6094C108.734 46.6094 108.773 43.5859 108.773 40.5391C108.773 38.5547 108.75 36.6172 108.703 34.7266C108.656 32.8359 108.609 30.9922 108.562 29.1953C107.812 29.1953 107.102 29.2031 106.43 29.2188C105.758 29.2344 105.156 29.2578 104.625 29.2891L104.672 24.3906C105.234 24.4375 105.867 24.4766 106.57 24.5078C107.273 24.5234 108.008 24.5391 108.773 24.5547C109.555 24.5703 110.352 24.5859 111.164 24.6016C111.977 24.6016 112.773 24.6016 113.555 24.6016C114.336 24.6016 115.07 24.6016 115.758 24.6016C116.461 24.6016 117.086 24.5859 117.633 24.5547L117.492 29.2422ZM128.508 58.1875C128.43 57.1094 128.352 56.0234 128.273 54.9297C128.211 53.8359 128.133 52.7344 128.039 51.625C127.352 51.5781 126.688 51.5312 126.047 51.4844C125.406 51.4375 124.758 51.4141 124.102 51.4141H123.797C123.719 52.5391 123.648 53.6484 123.586 54.7422C123.523 55.8359 123.469 56.9219 123.422 58L117.562 57.9062C118.531 52.3281 119.406 46.7656 120.188 41.2188C120.969 35.6719 121.633 30.0781 122.18 24.4375L129.234 24.5547C129.828 30.1328 130.539 35.6797 131.367 41.1953C132.211 46.6953 133.195 52.2344 134.32 57.8125L128.508 58.1875ZM125.766 30.3438C125.453 33.2188 125.156 36.0859 124.875 38.9453C124.594 41.8047 124.336 44.6875 124.102 47.5938C124.43 47.625 124.766 47.6406 125.109 47.6406C125.453 47.6406 125.805 47.6406 126.164 47.6406H127.688C127.422 44.7344 127.125 41.8516 126.797 38.9922C126.469 36.1328 126.125 33.25 125.766 30.3438ZM148.805 57.4141C148.195 57.6953 147.594 57.9062 147 58.0469C146.406 58.2031 145.875 58.3203 145.406 58.3984C144.859 58.4766 144.328 58.5234 143.812 58.5391C143.25 58.5391 142.641 58.4375 141.984 58.2344C141.344 58.0312 140.695 57.6875 140.039 57.2031C139.383 56.7031 138.75 56.0312 138.141 55.1875C137.531 54.3281 136.992 53.2578 136.523 51.9766C136.055 50.6797 135.68 49.1328 135.398 47.3359C135.117 45.5391 134.977 43.4453 134.977 41.0547C134.977 38.6641 135.141 36.5781 135.469 34.7969C135.812 33.0156 136.25 31.4922 136.781 30.2266C137.328 28.9453 137.938 27.8984 138.609 27.0859C139.297 26.2578 139.992 25.6094 140.695 25.1406C141.398 24.6562 142.078 24.3281 142.734 24.1562C143.406 23.9688 143.984 23.875 144.469 23.875C144.922 23.8906 145.367 23.9375 145.805 24.0156C146.18 24.0938 146.57 24.2109 146.977 24.3672C147.398 24.5234 147.766 24.7422 148.078 25.0234L147.609 29.7344C147.172 29.5156 146.758 29.3594 146.367 29.2656C145.992 29.1562 145.633 29.1016 145.289 29.1016C144.633 29.1016 144.047 29.2812 143.531 29.6406C143.031 29.9844 142.594 30.4453 142.219 31.0234C141.859 31.6016 141.547 32.2578 141.281 32.9922C141.031 33.7266 140.828 34.4766 140.672 35.2422C140.281 37.0391 140.062 39.0859 140.016 41.3828C140.062 43.6641 140.289 45.6953 140.695 47.4766C140.867 48.2422 141.078 48.9922 141.328 49.7266C141.594 50.4453 141.914 51.0938 142.289 51.6719C142.664 52.2344 143.102 52.6875 143.602 53.0312C144.117 53.375 144.711 53.5469 145.383 53.5469C146.117 53.5469 146.969 53.2891 147.938 52.7734L148.805 57.4141ZM162.211 29.2422C161.711 29.2109 161.133 29.1875 160.477 29.1719C159.836 29.1562 159.148 29.1484 158.414 29.1484C158.305 30.6016 158.211 32.1094 158.133 33.6719C158.07 35.2188 158.016 36.7969 157.969 38.4062C157.922 40 157.891 41.6094 157.875 43.2344C157.859 44.8438 157.852 46.4375 157.852 48.0156C157.852 49.8125 157.859 51.5547 157.875 53.2422C157.906 54.9141 157.961 56.5312 158.039 58.0938H153.047C153.188 55.4375 153.297 52.6094 153.375 49.6094C153.453 46.6094 153.492 43.5859 153.492 40.5391C153.492 38.5547 153.469 36.6172 153.422 34.7266C153.375 32.8359 153.328 30.9922 153.281 29.1953C152.531 29.1953 151.82 29.2031 151.148 29.2188C150.477 29.2344 149.875 29.2578 149.344 29.2891L149.391 24.3906C149.953 24.4375 150.586 24.4766 151.289 24.5078C151.992 24.5234 152.727 24.5391 153.492 24.5547C154.273 24.5703 155.07 24.5859 155.883 24.6016C156.695 24.6016 157.492 24.6016 158.273 24.6016C159.055 24.6016 159.789 24.6016 160.477 24.6016C161.18 24.6016 161.805 24.5859 162.352 24.5547L162.211 29.2422ZM188.391 58.0469C188.438 55.6562 188.492 53.2266 188.555 50.7578C188.57 49.7109 188.586 48.6016 188.602 47.4297C188.633 46.2578 188.656 45.0703 188.672 43.8672C188.688 42.6641 188.695 41.4609 188.695 40.2578C188.711 39.0547 188.719 37.8984 188.719 36.7891C188.719 36.0547 188.719 35.3594 188.719 34.7031C188.719 34.0312 188.703 33.3984 188.672 32.8047C188.484 33.9609 188.242 35.4531 187.945 37.2812C187.664 39.0938 187.367 41.1016 187.055 43.3047C186.742 45.4922 186.43 47.8125 186.117 50.2656C185.82 52.7188 185.555 55.1562 185.32 57.5781L180.867 57.4609C180.492 55.0234 180.125 52.625 179.766 50.2656C179.422 47.9062 179.086 45.6641 178.758 43.5391C178.445 41.4141 178.156 39.4453 177.891 37.6328C177.625 35.8203 177.398 34.2422 177.211 32.8984V41.0547C177.211 42.7422 177.219 44.4453 177.234 46.1641C177.25 47.8672 177.266 49.4766 177.281 50.9922C177.312 52.5078 177.352 53.875 177.398 55.0938C177.445 56.2969 177.508 57.2344 177.586 57.9062L171.211 58.2812C171.445 56.9531 171.633 55.4609 171.773 53.8047C171.93 52.1484 172.047 50.4141 172.125 48.6016C172.219 46.7891 172.281 44.9453 172.312 43.0703C172.344 41.1953 172.359 39.375 172.359 37.6094C172.359 35.7969 172.344 34.1016 172.312 32.5234C172.297 30.9453 172.273 29.5625 172.242 28.375C172.195 26.9844 172.156 25.7109 172.125 24.5547C172.625 24.6328 173.148 24.7031 173.695 24.7656C174.242 24.8125 174.781 24.8516 175.312 24.8828C175.844 24.9141 176.359 24.9375 176.859 24.9531C177.359 24.9688 177.812 24.9766 178.219 24.9766C178.484 24.9766 178.727 24.9766 178.945 24.9766C179.18 24.9766 179.383 24.9688 179.555 24.9531C179.742 24.9531 179.906 24.9453 180.047 24.9297C180.797 30.1172 181.43 34.4922 181.945 38.0547C182.461 41.6172 182.867 44.3281 183.164 46.1875C183.336 45 183.5 43.7812 183.656 42.5312C183.828 41.2656 183.984 40.0156 184.125 38.7812C184.266 37.5469 184.391 36.3438 184.5 35.1719C184.625 33.9844 184.734 32.8672 184.828 31.8203C185.047 29.3516 185.242 26.9609 185.414 24.6484C185.758 24.6797 186.133 24.7109 186.539 24.7422C186.898 24.7734 187.32 24.7969 187.805 24.8125C188.305 24.8281 188.852 24.8359 189.445 24.8359C190.039 24.8359 190.68 24.8281 191.367 24.8125C192.055 24.7812 192.773 24.7266 193.523 24.6484C193.336 30.4922 193.242 35.5469 193.242 39.8125C193.242 42.9531 193.273 45.6562 193.336 47.9219C193.414 50.1875 193.492 52.0625 193.57 53.5469C193.664 55.2969 193.781 56.75 193.922 57.9062L188.391 58.0469ZM206.367 45.4609C205.883 45.4297 205.391 45.4062 204.891 45.3906C204.391 45.375 203.891 45.3672 203.391 45.3672C203.109 45.3672 202.812 45.375 202.5 45.3906C202.203 45.4062 201.906 45.4141 201.609 45.4141L201.516 53.7812C202.797 53.75 204.039 53.6875 205.242 53.5938C206.461 53.5 207.75 53.3516 209.109 53.1484V58.0469C208.234 58.0156 207.383 57.9922 206.555 57.9766C205.742 57.9609 204.93 57.9531 204.117 57.9531C202.898 57.9531 201.695 57.9688 200.508 58C199.32 58.0469 198.094 58.1094 196.828 58.1875C196.969 55.2812 197.078 52.4062 197.156 49.5625C197.25 46.7031 197.297 43.8203 197.297 40.9141C197.297 38.1328 197.258 35.375 197.18 32.6406C197.117 29.8906 197 27.125 196.828 24.3438C198.672 24.4844 200.43 24.5547 202.102 24.5547C203.164 24.5547 204.219 24.5312 205.266 24.4844C206.328 24.4219 207.461 24.3438 208.664 24.25V29.6406C207.695 29.4688 206.734 29.3359 205.781 29.2422C204.844 29.1484 203.906 29.1016 202.969 29.1016H202.055C201.898 31.0547 201.789 33 201.727 34.9375C201.68 36.875 201.641 38.8203 201.609 40.7734C202.016 40.8047 202.422 40.8203 202.828 40.8203C203.25 40.8203 203.68 40.8203 204.117 40.8203C204.477 40.8203 204.844 40.8203 205.219 40.8203C205.594 40.8203 205.977 40.8047 206.367 40.7734V45.4609Z" fill="white"/>
</g>
<defs>
<clipPath id="clip0_101_14">
<rect width="260" height="80" fill="white"/>
</clipPath>
</defs>
</svg>
