<svg width="260" height="80" viewBox="0 0 260 80" fill="none" xmlns="http://www.w3.org/2000/svg">
<g clip-path="url(#clip0_102_4)">
<rect width="260" height="80" fill="#ABACAE"/>
<path d="M117.283 57.6719C116.658 57.6406 116.033 57.6172 115.408 57.6016C114.783 57.5859 114.158 57.5781 113.533 57.5781C112.502 57.5781 111.471 57.6016 110.439 57.6484C109.408 57.6797 108.377 57.7344 107.346 57.8125L107.392 52.7734C107.752 52.8203 108.111 52.8594 108.471 52.8906C108.83 52.9062 109.189 52.9297 109.549 52.9609C109.642 50.5391 109.728 48.1328 109.807 45.7422C109.9 43.3359 109.947 40.9297 109.947 38.5234C109.947 36.9141 109.924 35.3281 109.877 33.7656C109.83 32.1875 109.783 30.6016 109.736 29.0078C109.33 29.0078 108.916 29.0156 108.494 29.0312C108.072 29.0469 107.642 29.0703 107.205 29.1016L107.252 24.2031C108.455 24.2812 109.658 24.3438 110.861 24.3906C112.064 24.4219 113.275 24.4375 114.494 24.4375C114.932 24.4375 115.369 24.4375 115.807 24.4375C116.244 24.4375 116.689 24.4219 117.142 24.3906L117.002 29.0547C116.642 29.0547 116.283 29.0469 115.924 29.0312C115.58 29.0156 115.228 29.0078 114.869 29.0078C114.65 31.8203 114.494 34.6172 114.4 37.3984C114.307 40.1641 114.26 42.9531 114.26 45.7656C114.26 48.2188 114.307 50.6641 114.4 53.1016C114.9 53.1016 115.408 53.0938 115.924 53.0781C116.455 53.0625 116.986 53.0391 117.517 53.0078L117.283 57.6719ZM137.25 41.5938C137.25 44.7344 137.031 47.3984 136.594 49.5859C136.172 51.7734 135.594 53.5547 134.859 54.9297C134.125 56.2891 133.258 57.2812 132.258 57.9062C131.258 58.5156 130.188 58.8203 129.047 58.8203C127.906 58.8203 126.836 58.5312 125.836 57.9531C124.836 57.3594 123.961 56.3906 123.211 55.0469C122.461 53.7031 121.867 51.9297 121.43 49.7266C121.008 47.5234 120.797 44.8125 120.797 41.5938C120.797 38.3594 121.008 35.6172 121.43 33.3672C121.867 31.1016 122.461 29.2656 123.211 27.8594C123.961 26.4375 124.836 25.4141 125.836 24.7891C126.836 24.1484 127.906 23.8281 129.047 23.8281C130.188 23.8281 131.258 24.1406 132.258 24.7656C133.258 25.375 134.125 26.3828 134.859 27.7891C135.594 29.1953 136.172 31.0312 136.594 33.2969C137.031 35.5469 137.25 38.3125 137.25 41.5938ZM132.023 41.5938C132.023 39.1406 131.945 37.0703 131.789 35.3828C131.633 33.6953 131.414 32.3281 131.133 31.2812C130.867 30.2188 130.555 29.4531 130.195 28.9844C129.836 28.5156 129.453 28.2812 129.047 28.2812C128.625 28.2812 128.227 28.5234 127.852 29.0078C127.492 29.4766 127.172 30.2422 126.891 31.3047C126.625 32.3516 126.414 33.7266 126.258 35.4297C126.102 37.1172 126.023 39.1719 126.023 41.5938C126.023 44 126.102 46.0234 126.258 47.6641C126.414 49.2891 126.625 50.6016 126.891 51.6016C127.172 52.5859 127.492 53.2891 127.852 53.7109C128.227 54.1328 128.625 54.3438 129.047 54.3438C129.453 54.3438 129.836 54.125 130.195 53.6875C130.555 53.2344 130.867 52.5078 131.133 51.5078C131.414 50.4922 131.633 49.1719 131.789 47.5469C131.945 45.9219 132.023 43.9375 132.023 41.5938ZM153.561 49.7031C153.561 50.9375 153.428 52.0234 153.162 52.9609C152.912 53.8828 152.576 54.6797 152.154 55.3516C151.748 56.0078 151.287 56.5547 150.772 56.9922C150.256 57.4141 149.725 57.75 149.178 58C148.647 58.25 148.131 58.4219 147.631 58.5156C147.147 58.625 146.725 58.6797 146.365 58.6797C146.178 58.6797 145.92 58.6641 145.592 58.6328C145.264 58.6172 144.889 58.5703 144.467 58.4922C144.045 58.4141 143.576 58.2969 143.061 58.1406C142.561 58 142.029 57.7969 141.467 57.5312L141.725 51.625C142.647 52.4062 143.467 52.9297 144.186 53.1953C144.92 53.4609 145.537 53.5938 146.037 53.5938C147.006 53.5938 147.732 53.2422 148.217 52.5391C148.717 51.8359 148.967 50.9219 148.967 49.7969C148.967 49.0469 148.779 48.2109 148.404 47.2891C148.045 46.3516 147.397 45.3438 146.459 44.2656C145.818 43.5156 145.154 42.7344 144.467 41.9219C143.779 41.1094 143.154 40.2422 142.592 39.3203C142.029 38.3984 141.568 37.4062 141.209 36.3438C140.85 35.2812 140.67 34.1328 140.67 32.8984C140.67 31.3359 140.881 29.9844 141.303 28.8438C141.74 27.7031 142.318 26.7578 143.037 26.0078C143.756 25.2578 144.576 24.7031 145.498 24.3438C146.436 23.9688 147.412 23.7812 148.428 23.7812C149.318 23.7812 150.225 23.9062 151.147 24.1562C152.084 24.3906 153.022 24.7578 153.959 25.2578L153.514 31.1641C153.107 30.6484 152.678 30.2422 152.225 29.9453C151.787 29.6328 151.357 29.3984 150.936 29.2422C150.529 29.0859 150.147 28.9844 149.787 28.9375C149.443 28.8906 149.154 28.8672 148.92 28.8672C148.467 28.8672 148.045 28.9844 147.654 29.2188C147.279 29.4375 146.951 29.7422 146.67 30.1328C146.404 30.5078 146.193 30.9609 146.037 31.4922C145.881 32.0078 145.803 32.5547 145.803 33.1328C145.803 34.0234 145.99 34.8281 146.365 35.5469C146.756 36.2656 147.24 36.9766 147.818 37.6797C148.397 38.3828 149.014 39.1094 149.67 39.8594C150.342 40.5938 150.967 41.4297 151.545 42.3672C152.123 43.2891 152.6 44.3516 152.975 45.5547C153.365 46.7422 153.561 48.125 153.561 49.7031Z" fill="#F2F2F2"/>
</g>
<defs>
<clipPath id="clip0_102_4">
<rect width="260" height="80" fill="white"/>
</clipPath>
</defs>
</svg>
