<svg width="260" height="80" viewBox="0 0 260 80" fill="none" xmlns="http://www.w3.org/2000/svg">
<g clip-path="url(#clip0_2_20)">
<rect width="260" height="80" fill="#434B57"/>
<path d="M93.91 29.436C93.91 30.192 93.742 30.852 93.406 31.416C93.07 31.98 92.56 32.418 91.876 32.73C91.204 33.03 90.352 33.18 89.32 33.18C88.84 33.18 88.396 33.15 87.988 33.09C87.58 33.03 87.196 32.946 86.836 32.838C86.476 32.718 86.116 32.574 85.756 32.406V29.868C86.368 30.132 86.992 30.378 87.628 30.606C88.276 30.822 88.888 30.93 89.464 30.93C89.836 30.93 90.136 30.87 90.364 30.75C90.592 30.63 90.76 30.468 90.868 30.264C90.976 30.06 91.03 29.826 91.03 29.562C91.03 29.238 90.94 28.962 90.76 28.734C90.592 28.506 90.34 28.296 90.004 28.104C89.668 27.9 89.254 27.696 88.762 27.492C88.402 27.336 88.048 27.156 87.7 26.952C87.352 26.748 87.04 26.502 86.764 26.214C86.488 25.914 86.266 25.554 86.098 25.134C85.942 24.714 85.864 24.21 85.864 23.622C85.864 22.854 86.044 22.2 86.404 21.66C86.764 21.108 87.268 20.688 87.916 20.4C88.564 20.112 89.32 19.968 90.184 19.968C90.892 19.968 91.546 20.046 92.146 20.202C92.758 20.358 93.34 20.58 93.892 20.868L92.974 22.992C92.446 22.752 91.942 22.566 91.462 22.434C90.994 22.302 90.538 22.236 90.094 22.236C89.794 22.236 89.542 22.29 89.338 22.398C89.134 22.506 88.978 22.656 88.87 22.848C88.774 23.04 88.726 23.268 88.726 23.532C88.726 23.832 88.804 24.09 88.96 24.306C89.128 24.51 89.386 24.714 89.734 24.918C90.082 25.11 90.526 25.344 91.066 25.62C91.666 25.92 92.176 26.238 92.596 26.574C93.028 26.898 93.352 27.288 93.568 27.744C93.796 28.2 93.91 28.764 93.91 29.436ZM105.993 28.464C105.993 29.352 105.801 30.156 105.417 30.876C105.045 31.584 104.481 32.148 103.725 32.568C102.969 32.976 102.021 33.18 100.881 33.18C99.2493 33.18 98.0013 32.748 97.1373 31.884C96.2853 31.008 95.8593 29.856 95.8593 28.428V20.148H98.7753V28.014C98.7753 29.07 98.9553 29.814 99.3153 30.246C99.6873 30.678 100.227 30.894 100.935 30.894C101.439 30.894 101.847 30.792 102.159 30.588C102.471 30.384 102.699 30.066 102.843 29.634C102.999 29.202 103.077 28.656 103.077 27.996V20.148H105.993V28.464ZM112.76 20.148C114.308 20.148 115.448 20.508 116.18 21.228C116.924 21.936 117.296 22.914 117.296 24.162C117.296 24.726 117.218 25.266 117.062 25.782C116.906 26.286 116.648 26.742 116.288 27.15C115.928 27.546 115.448 27.858 114.848 28.086C114.26 28.314 113.534 28.428 112.67 28.428H111.662V33H108.746V20.148H112.76ZM112.67 22.38H111.662V26.196H112.4C112.784 26.196 113.126 26.13 113.426 25.998C113.726 25.866 113.96 25.656 114.128 25.368C114.296 25.08 114.38 24.708 114.38 24.252C114.38 23.616 114.236 23.148 113.948 22.848C113.672 22.536 113.246 22.38 112.67 22.38ZM123.43 20.148C124.978 20.148 126.118 20.508 126.85 21.228C127.594 21.936 127.966 22.914 127.966 24.162C127.966 24.726 127.888 25.266 127.732 25.782C127.576 26.286 127.318 26.742 126.958 27.15C126.598 27.546 126.118 27.858 125.518 28.086C124.93 28.314 124.204 28.428 123.34 28.428H122.332V33H119.416V20.148H123.43ZM123.34 22.38H122.332V26.196H123.07C123.454 26.196 123.796 26.13 124.096 25.998C124.396 25.866 124.63 25.656 124.798 25.368C124.966 25.08 125.05 24.708 125.05 24.252C125.05 23.616 124.906 23.148 124.618 22.848C124.342 22.536 123.916 22.38 123.34 22.38ZM141.21 26.556C141.21 27.552 141.096 28.458 140.868 29.274C140.64 30.078 140.292 30.774 139.824 31.362C139.356 31.95 138.75 32.4 138.006 32.712C137.274 33.024 136.404 33.18 135.396 33.18C134.4 33.18 133.536 33.024 132.804 32.712C132.072 32.388 131.466 31.938 130.986 31.362C130.518 30.774 130.164 30.072 129.924 29.256C129.696 28.44 129.582 27.534 129.582 26.538C129.582 25.206 129.786 24.048 130.194 23.064C130.614 22.08 131.256 21.318 132.12 20.778C132.984 20.226 134.082 19.95 135.414 19.95C136.758 19.95 137.856 20.226 138.708 20.778C139.56 21.318 140.19 22.086 140.598 23.082C141.006 24.066 141.21 25.224 141.21 26.556ZM132.642 26.556C132.642 27.456 132.732 28.23 132.912 28.878C133.104 29.526 133.404 30.024 133.812 30.372C134.22 30.72 134.748 30.894 135.396 30.894C136.056 30.894 136.584 30.72 136.98 30.372C137.388 30.024 137.682 29.526 137.862 28.878C138.054 28.23 138.15 27.456 138.15 26.556C138.15 25.2 137.934 24.138 137.502 23.37C137.082 22.602 136.386 22.218 135.414 22.218C134.754 22.218 134.22 22.392 133.812 22.74C133.404 23.088 133.104 23.586 132.912 24.234C132.732 24.882 132.642 25.656 132.642 26.556ZM147.312 20.148C148.404 20.148 149.31 20.292 150.03 20.58C150.75 20.856 151.284 21.282 151.632 21.858C151.992 22.422 152.172 23.136 152.172 24C152.172 24.588 152.076 25.104 151.884 25.548C151.704 25.98 151.452 26.352 151.128 26.664C150.804 26.964 150.438 27.21 150.03 27.402L153.558 33H150.3L147.582 28.068H146.484V33H143.568V20.148H147.312ZM147.186 22.38H146.484V25.854H147.204C147.648 25.854 148.02 25.788 148.32 25.656C148.62 25.524 148.848 25.326 149.004 25.062C149.16 24.786 149.238 24.456 149.238 24.072C149.238 23.664 149.166 23.34 149.022 23.1C148.878 22.848 148.656 22.668 148.356 22.56C148.056 22.44 147.666 22.38 147.186 22.38ZM159.857 33H156.941V22.416H153.827V20.148H162.971V22.416H159.857V33ZM174.346 33L171.664 22.92H171.592C171.604 23.16 171.622 23.52 171.646 24C171.67 24.48 171.694 24.996 171.718 25.548C171.742 26.088 171.754 26.58 171.754 27.024V33H169.162V20.148H173.086L175.768 29.976H175.822L178.576 20.148H182.5V33H179.8V26.916C179.8 26.508 179.806 26.04 179.818 25.512C179.83 24.984 179.848 24.486 179.872 24.018C179.896 23.538 179.914 23.178 179.926 22.938H179.854L177.082 33H174.346ZM192.408 33H185.352V20.148H192.408V22.38H188.268V25.206H192.12V27.438H188.268V30.75H192.408V33ZM97.546 53.556C97.546 54.552 97.432 55.458 97.204 56.274C96.976 57.078 96.628 57.774 96.16 58.362C95.692 58.95 95.086 59.4 94.342 59.712C93.61 60.024 92.74 60.18 91.732 60.18C90.736 60.18 89.872 60.024 89.14 59.712C88.408 59.388 87.802 58.938 87.322 58.362C86.854 57.774 86.5 57.072 86.26 56.256C86.032 55.44 85.918 54.534 85.918 53.538C85.918 52.206 86.122 51.048 86.53 50.064C86.95 49.08 87.592 48.318 88.456 47.778C89.32 47.226 90.418 46.95 91.75 46.95C93.094 46.95 94.192 47.226 95.044 47.778C95.896 48.318 96.526 49.086 96.934 50.082C97.342 51.066 97.546 52.224 97.546 53.556ZM88.978 53.556C88.978 54.456 89.068 55.23 89.248 55.878C89.44 56.526 89.74 57.024 90.148 57.372C90.556 57.72 91.084 57.894 91.732 57.894C92.392 57.894 92.92 57.72 93.316 57.372C93.724 57.024 94.018 56.526 94.198 55.878C94.39 55.23 94.486 54.456 94.486 53.556C94.486 52.2 94.27 51.138 93.838 50.37C93.418 49.602 92.722 49.218 91.75 49.218C91.09 49.218 90.556 49.392 90.148 49.74C89.74 50.088 89.44 50.586 89.248 51.234C89.068 51.882 88.978 52.656 88.978 53.556ZM111.01 60H107.248L102.406 50.28H102.334C102.346 50.58 102.358 50.886 102.37 51.198C102.382 51.498 102.394 51.804 102.406 52.116C102.43 52.416 102.448 52.722 102.46 53.034C102.472 53.334 102.484 53.64 102.496 53.952V60H99.9044V47.148H103.648L108.472 56.778H108.526C108.526 56.478 108.52 56.184 108.508 55.896C108.496 55.596 108.478 55.302 108.454 55.014C108.442 54.714 108.43 54.42 108.418 54.132C108.406 53.832 108.4 53.532 108.4 53.232V47.148H111.01V60ZM128.264 60H124.97L122.198 54.582L121.172 55.41V60H118.256V47.148H121.172V53.034C121.328 52.782 121.49 52.53 121.658 52.278C121.838 52.026 122.012 51.774 122.18 51.522L125.078 47.148H128.282L124.286 52.836L128.264 60ZM140.472 53.556C140.472 54.552 140.358 55.458 140.13 56.274C139.902 57.078 139.554 57.774 139.086 58.362C138.618 58.95 138.012 59.4 137.268 59.712C136.536 60.024 135.666 60.18 134.658 60.18C133.662 60.18 132.798 60.024 132.066 59.712C131.334 59.388 130.728 58.938 130.248 58.362C129.78 57.774 129.426 57.072 129.186 56.256C128.958 55.44 128.844 54.534 128.844 53.538C128.844 52.206 129.048 51.048 129.456 50.064C129.876 49.08 130.518 48.318 131.382 47.778C132.246 47.226 133.344 46.95 134.676 46.95C136.02 46.95 137.118 47.226 137.97 47.778C138.822 48.318 139.452 49.086 139.86 50.082C140.268 51.066 140.472 52.224 140.472 53.556ZM131.904 53.556C131.904 54.456 131.994 55.23 132.174 55.878C132.366 56.526 132.666 57.024 133.074 57.372C133.482 57.72 134.01 57.894 134.658 57.894C135.318 57.894 135.846 57.72 136.242 57.372C136.65 57.024 136.944 56.526 137.124 55.878C137.316 55.23 137.412 54.456 137.412 53.556C137.412 52.2 137.196 51.138 136.764 50.37C136.344 49.602 135.648 49.218 134.676 49.218C134.016 49.218 133.482 49.392 133.074 49.74C132.666 50.088 132.366 50.586 132.174 51.234C131.994 51.882 131.904 52.656 131.904 53.556ZM141.84 56.274V54.078H146.394V56.274H141.84ZM151.106 60H148.244V47.148H155.282V49.38H151.106V52.692H154.994V54.924H151.106V60ZM162.477 60H156.591V58.452L158.085 57.732V49.416L156.591 48.696V47.148H162.477V48.696L161.001 49.416V57.732L162.477 58.452V60Z" fill="white"/>
<circle cx="45" cy="40" r="25" fill="white"/>
<path d="M57.5542 42.7437C53.7981 47.1556 45.463 54.8165 45.463 54.8165C45.463 54.8165 45.0982 55.1779 44.5285 54.8864C44.2994 54.7133 44.2029 54.6131 44.2029 54.6131C42.8675 53.274 34.05 45.355 32.0424 42.607C29.9051 39.6769 28.9043 34.4087 31.7681 31.3419C34.6349 28.2751 40.8267 28.0443 44.9204 32.5777C44.9204 32.5777 49.6381 27.1668 55.3747 29.6536C61.1144 32.1435 60.8973 38.7963 57.5542 42.7437Z" fill="#FF5E5B"/>
</g>
<defs>
<clipPath id="clip0_2_20">
<rect width="260" height="80" fill="white"/>
</clipPath>
</defs>
</svg>
