<svg width="260" height="80" viewBox="0 0 260 80" fill="none" xmlns="http://www.w3.org/2000/svg">
<g clip-path="url(#clip0_2_38)">
<rect width="260" height="80" rx="40" fill="#434B57"/>
<path d="M83.91 30.436C83.91 31.192 83.742 31.852 83.406 32.416C83.07 32.98 82.56 33.418 81.876 33.73C81.204 34.03 80.352 34.18 79.32 34.18C78.84 34.18 78.396 34.15 77.988 34.09C77.58 34.03 77.196 33.946 76.836 33.838C76.476 33.718 76.116 33.574 75.756 33.406V30.868C76.368 31.132 76.992 31.378 77.628 31.606C78.276 31.822 78.888 31.93 79.464 31.93C79.836 31.93 80.136 31.87 80.364 31.75C80.592 31.63 80.76 31.468 80.868 31.264C80.976 31.06 81.03 30.826 81.03 30.562C81.03 30.238 80.94 29.962 80.76 29.734C80.592 29.506 80.34 29.296 80.004 29.104C79.668 28.9 79.254 28.696 78.762 28.492C78.402 28.336 78.048 28.156 77.7 27.952C77.352 27.748 77.04 27.502 76.764 27.214C76.488 26.914 76.266 26.554 76.098 26.134C75.942 25.714 75.864 25.21 75.864 24.622C75.864 23.854 76.044 23.2 76.404 22.66C76.764 22.108 77.268 21.688 77.916 21.4C78.564 21.112 79.32 20.968 80.184 20.968C80.892 20.968 81.546 21.046 82.146 21.202C82.758 21.358 83.34 21.58 83.892 21.868L82.974 23.992C82.446 23.752 81.942 23.566 81.462 23.434C80.994 23.302 80.538 23.236 80.094 23.236C79.794 23.236 79.542 23.29 79.338 23.398C79.134 23.506 78.978 23.656 78.87 23.848C78.774 24.04 78.726 24.268 78.726 24.532C78.726 24.832 78.804 25.09 78.96 25.306C79.128 25.51 79.386 25.714 79.734 25.918C80.082 26.11 80.526 26.344 81.066 26.62C81.666 26.92 82.176 27.238 82.596 27.574C83.028 27.898 83.352 28.288 83.568 28.744C83.796 29.2 83.91 29.764 83.91 30.436ZM95.9933 29.464C95.9933 30.352 95.8013 31.156 95.4173 31.876C95.0453 32.584 94.4813 33.148 93.7253 33.568C92.9693 33.976 92.0213 34.18 90.8813 34.18C89.2493 34.18 88.0013 33.748 87.1373 32.884C86.2853 32.008 85.8593 30.856 85.8593 29.428V21.148H88.7753V29.014C88.7753 30.07 88.9553 30.814 89.3153 31.246C89.6873 31.678 90.2273 31.894 90.9353 31.894C91.4393 31.894 91.8473 31.792 92.1593 31.588C92.4713 31.384 92.6993 31.066 92.8433 30.634C92.9993 30.202 93.0773 29.656 93.0773 28.996V21.148H95.9933V29.464ZM102.76 21.148C104.308 21.148 105.448 21.508 106.18 22.228C106.924 22.936 107.296 23.914 107.296 25.162C107.296 25.726 107.218 26.266 107.062 26.782C106.906 27.286 106.648 27.742 106.288 28.15C105.928 28.546 105.448 28.858 104.848 29.086C104.26 29.314 103.534 29.428 102.67 29.428H101.662V34H98.7462V21.148H102.76ZM102.67 23.38H101.662V27.196H102.4C102.784 27.196 103.126 27.13 103.426 26.998C103.726 26.866 103.96 26.656 104.128 26.368C104.296 26.08 104.38 25.708 104.38 25.252C104.38 24.616 104.236 24.148 103.948 23.848C103.672 23.536 103.246 23.38 102.67 23.38ZM113.43 21.148C114.978 21.148 116.118 21.508 116.85 22.228C117.594 22.936 117.966 23.914 117.966 25.162C117.966 25.726 117.888 26.266 117.732 26.782C117.576 27.286 117.318 27.742 116.958 28.15C116.598 28.546 116.118 28.858 115.518 29.086C114.93 29.314 114.204 29.428 113.34 29.428H112.332V34H109.416V21.148H113.43ZM113.34 23.38H112.332V27.196H113.07C113.454 27.196 113.796 27.13 114.096 26.998C114.396 26.866 114.63 26.656 114.798 26.368C114.966 26.08 115.05 25.708 115.05 25.252C115.05 24.616 114.906 24.148 114.618 23.848C114.342 23.536 113.916 23.38 113.34 23.38ZM131.21 27.556C131.21 28.552 131.096 29.458 130.868 30.274C130.64 31.078 130.292 31.774 129.824 32.362C129.356 32.95 128.75 33.4 128.006 33.712C127.274 34.024 126.404 34.18 125.396 34.18C124.4 34.18 123.536 34.024 122.804 33.712C122.072 33.388 121.466 32.938 120.986 32.362C120.518 31.774 120.164 31.072 119.924 30.256C119.696 29.44 119.582 28.534 119.582 27.538C119.582 26.206 119.786 25.048 120.194 24.064C120.614 23.08 121.256 22.318 122.12 21.778C122.984 21.226 124.082 20.95 125.414 20.95C126.758 20.95 127.856 21.226 128.708 21.778C129.56 22.318 130.19 23.086 130.598 24.082C131.006 25.066 131.21 26.224 131.21 27.556ZM122.642 27.556C122.642 28.456 122.732 29.23 122.912 29.878C123.104 30.526 123.404 31.024 123.812 31.372C124.22 31.72 124.748 31.894 125.396 31.894C126.056 31.894 126.584 31.72 126.98 31.372C127.388 31.024 127.682 30.526 127.862 29.878C128.054 29.23 128.15 28.456 128.15 27.556C128.15 26.2 127.934 25.138 127.502 24.37C127.082 23.602 126.386 23.218 125.414 23.218C124.754 23.218 124.22 23.392 123.812 23.74C123.404 24.088 123.104 24.586 122.912 25.234C122.732 25.882 122.642 26.656 122.642 27.556ZM137.312 21.148C138.404 21.148 139.31 21.292 140.03 21.58C140.75 21.856 141.284 22.282 141.632 22.858C141.992 23.422 142.172 24.136 142.172 25C142.172 25.588 142.076 26.104 141.884 26.548C141.704 26.98 141.452 27.352 141.128 27.664C140.804 27.964 140.438 28.21 140.03 28.402L143.558 34H140.3L137.582 29.068H136.484V34H133.568V21.148H137.312ZM137.186 23.38H136.484V26.854H137.204C137.648 26.854 138.02 26.788 138.32 26.656C138.62 26.524 138.848 26.326 139.004 26.062C139.16 25.786 139.238 25.456 139.238 25.072C139.238 24.664 139.166 24.34 139.022 24.1C138.878 23.848 138.656 23.668 138.356 23.56C138.056 23.44 137.666 23.38 137.186 23.38ZM149.857 34H146.941V23.416H143.827V21.148H152.971V23.416H149.857V34ZM164.346 34L161.664 23.92H161.592C161.604 24.16 161.622 24.52 161.646 25C161.67 25.48 161.694 25.996 161.718 26.548C161.742 27.088 161.754 27.58 161.754 28.024V34H159.162V21.148H163.086L165.768 30.976H165.822L168.576 21.148H172.5V34H169.8V27.916C169.8 27.508 169.806 27.04 169.818 26.512C169.83 25.984 169.848 25.486 169.872 25.018C169.896 24.538 169.914 24.178 169.926 23.938H169.854L167.082 34H164.346ZM182.408 34H175.352V21.148H182.408V23.38H178.268V26.206H182.12V28.438H178.268V31.75H182.408V34ZM87.546 52.556C87.546 53.552 87.432 54.458 87.204 55.274C86.976 56.078 86.628 56.774 86.16 57.362C85.692 57.95 85.086 58.4 84.342 58.712C83.61 59.024 82.74 59.18 81.732 59.18C80.736 59.18 79.872 59.024 79.14 58.712C78.408 58.388 77.802 57.938 77.322 57.362C76.854 56.774 76.5 56.072 76.26 55.256C76.032 54.44 75.918 53.534 75.918 52.538C75.918 51.206 76.122 50.048 76.53 49.064C76.95 48.08 77.592 47.318 78.456 46.778C79.32 46.226 80.418 45.95 81.75 45.95C83.094 45.95 84.192 46.226 85.044 46.778C85.896 47.318 86.526 48.086 86.934 49.082C87.342 50.066 87.546 51.224 87.546 52.556ZM78.978 52.556C78.978 53.456 79.068 54.23 79.248 54.878C79.44 55.526 79.74 56.024 80.148 56.372C80.556 56.72 81.084 56.894 81.732 56.894C82.392 56.894 82.92 56.72 83.316 56.372C83.724 56.024 84.018 55.526 84.198 54.878C84.39 54.23 84.486 53.456 84.486 52.556C84.486 51.2 84.27 50.138 83.838 49.37C83.418 48.602 82.722 48.218 81.75 48.218C81.09 48.218 80.556 48.392 80.148 48.74C79.74 49.088 79.44 49.586 79.248 50.234C79.068 50.882 78.978 51.656 78.978 52.556ZM101.01 59H97.2484L92.4064 49.28H92.3344C92.3464 49.58 92.3584 49.886 92.3704 50.198C92.3824 50.498 92.3944 50.804 92.4064 51.116C92.4304 51.416 92.4484 51.722 92.4604 52.034C92.4724 52.334 92.4844 52.64 92.4964 52.952V59H89.9044V46.148H93.6484L98.4724 55.778H98.5264C98.5264 55.478 98.5204 55.184 98.5084 54.896C98.4964 54.596 98.4784 54.302 98.4544 54.014C98.4424 53.714 98.4304 53.42 98.4184 53.132C98.4064 52.832 98.4004 52.532 98.4004 52.232V46.148H101.01V59ZM118.264 59H114.97L112.198 53.582L111.172 54.41V59H108.256V46.148H111.172V52.034C111.328 51.782 111.49 51.53 111.658 51.278C111.838 51.026 112.012 50.774 112.18 50.522L115.078 46.148H118.282L114.286 51.836L118.264 59ZM130.472 52.556C130.472 53.552 130.358 54.458 130.13 55.274C129.902 56.078 129.554 56.774 129.086 57.362C128.618 57.95 128.012 58.4 127.268 58.712C126.536 59.024 125.666 59.18 124.658 59.18C123.662 59.18 122.798 59.024 122.066 58.712C121.334 58.388 120.728 57.938 120.248 57.362C119.78 56.774 119.426 56.072 119.186 55.256C118.958 54.44 118.844 53.534 118.844 52.538C118.844 51.206 119.048 50.048 119.456 49.064C119.876 48.08 120.518 47.318 121.382 46.778C122.246 46.226 123.344 45.95 124.676 45.95C126.02 45.95 127.118 46.226 127.97 46.778C128.822 47.318 129.452 48.086 129.86 49.082C130.268 50.066 130.472 51.224 130.472 52.556ZM121.904 52.556C121.904 53.456 121.994 54.23 122.174 54.878C122.366 55.526 122.666 56.024 123.074 56.372C123.482 56.72 124.01 56.894 124.658 56.894C125.318 56.894 125.846 56.72 126.242 56.372C126.65 56.024 126.944 55.526 127.124 54.878C127.316 54.23 127.412 53.456 127.412 52.556C127.412 51.2 127.196 50.138 126.764 49.37C126.344 48.602 125.648 48.218 124.676 48.218C124.016 48.218 123.482 48.392 123.074 48.74C122.666 49.088 122.366 49.586 122.174 50.234C121.994 50.882 121.904 51.656 121.904 52.556ZM131.84 55.274V53.078H136.394V55.274H131.84ZM141.106 59H138.244V46.148H145.282V48.38H141.106V51.692H144.994V53.924H141.106V59ZM152.477 59H146.591V57.452L148.085 56.732V48.416L146.591 47.696V46.148H152.477V47.696L151.001 48.416V56.732L152.477 57.452V59Z" fill="white"/>
<circle cx="39" cy="40" r="20" fill="white"/>
<path d="M50.794 42.8657C47.2779 46.9958 39.4752 54.1674 39.4752 54.1674C39.4752 54.1674 39.1338 54.5056 38.6004 54.2327C38.3859 54.0707 38.2956 53.9769 38.2956 53.9769C37.0455 52.7234 28.7913 45.3102 26.9119 42.7378C24.9111 39.9948 23.9743 35.0632 26.6551 32.1923C29.3388 29.3214 35.1351 29.1054 38.9673 33.3492C38.9673 33.3492 43.3836 28.2839 48.7538 30.6119C54.1268 32.9427 53.9236 39.1705 50.794 42.8657Z" fill="#FF5E5B"/>
</g>
<defs>
<clipPath id="clip0_2_38">
<rect width="260" height="80" fill="white"/>
</clipPath>
</defs>
</svg>
