<svg width="260" height="80" viewBox="0 0 260 80" fill="none" xmlns="http://www.w3.org/2000/svg">
<rect width="260" height="80" fill="#434B57"/>
<path d="M108.91 30.436C108.91 31.192 108.742 31.852 108.406 32.416C108.07 32.98 107.56 33.418 106.876 33.73C106.204 34.03 105.352 34.18 104.32 34.18C103.84 34.18 103.396 34.15 102.988 34.09C102.58 34.03 102.196 33.946 101.836 33.838C101.476 33.718 101.116 33.574 100.756 33.406V30.868C101.368 31.132 101.992 31.378 102.628 31.606C103.276 31.822 103.888 31.93 104.464 31.93C104.836 31.93 105.136 31.87 105.364 31.75C105.592 31.63 105.76 31.468 105.868 31.264C105.976 31.06 106.03 30.826 106.03 30.562C106.03 30.238 105.94 29.962 105.76 29.734C105.592 29.506 105.34 29.296 105.004 29.104C104.668 28.9 104.254 28.696 103.762 28.492C103.402 28.336 103.048 28.156 102.7 27.952C102.352 27.748 102.04 27.502 101.764 27.214C101.488 26.914 101.266 26.554 101.098 26.134C100.942 25.714 100.864 25.21 100.864 24.622C100.864 23.854 101.044 23.2 101.404 22.66C101.764 22.108 102.268 21.688 102.916 21.4C103.564 21.112 104.32 20.968 105.184 20.968C105.892 20.968 106.546 21.046 107.146 21.202C107.758 21.358 108.34 21.58 108.892 21.868L107.974 23.992C107.446 23.752 106.942 23.566 106.462 23.434C105.994 23.302 105.538 23.236 105.094 23.236C104.794 23.236 104.542 23.29 104.338 23.398C104.134 23.506 103.978 23.656 103.87 23.848C103.774 24.04 103.726 24.268 103.726 24.532C103.726 24.832 103.804 25.09 103.96 25.306C104.128 25.51 104.386 25.714 104.734 25.918C105.082 26.11 105.526 26.344 106.066 26.62C106.666 26.92 107.176 27.238 107.596 27.574C108.028 27.898 108.352 28.288 108.568 28.744C108.796 29.2 108.91 29.764 108.91 30.436ZM120.993 29.464C120.993 30.352 120.801 31.156 120.417 31.876C120.045 32.584 119.481 33.148 118.725 33.568C117.969 33.976 117.021 34.18 115.881 34.18C114.249 34.18 113.001 33.748 112.137 32.884C111.285 32.008 110.859 30.856 110.859 29.428V21.148H113.775V29.014C113.775 30.07 113.955 30.814 114.315 31.246C114.687 31.678 115.227 31.894 115.935 31.894C116.439 31.894 116.847 31.792 117.159 31.588C117.471 31.384 117.699 31.066 117.843 30.634C117.999 30.202 118.077 29.656 118.077 28.996V21.148H120.993V29.464ZM127.76 21.148C129.308 21.148 130.448 21.508 131.18 22.228C131.924 22.936 132.296 23.914 132.296 25.162C132.296 25.726 132.218 26.266 132.062 26.782C131.906 27.286 131.648 27.742 131.288 28.15C130.928 28.546 130.448 28.858 129.848 29.086C129.26 29.314 128.534 29.428 127.67 29.428H126.662V34H123.746V21.148H127.76ZM127.67 23.38H126.662V27.196H127.4C127.784 27.196 128.126 27.13 128.426 26.998C128.726 26.866 128.96 26.656 129.128 26.368C129.296 26.08 129.38 25.708 129.38 25.252C129.38 24.616 129.236 24.148 128.948 23.848C128.672 23.536 128.246 23.38 127.67 23.38ZM138.43 21.148C139.978 21.148 141.118 21.508 141.85 22.228C142.594 22.936 142.966 23.914 142.966 25.162C142.966 25.726 142.888 26.266 142.732 26.782C142.576 27.286 142.318 27.742 141.958 28.15C141.598 28.546 141.118 28.858 140.518 29.086C139.93 29.314 139.204 29.428 138.34 29.428H137.332V34H134.416V21.148H138.43ZM138.34 23.38H137.332V27.196H138.07C138.454 27.196 138.796 27.13 139.096 26.998C139.396 26.866 139.63 26.656 139.798 26.368C139.966 26.08 140.05 25.708 140.05 25.252C140.05 24.616 139.906 24.148 139.618 23.848C139.342 23.536 138.916 23.38 138.34 23.38ZM156.21 27.556C156.21 28.552 156.096 29.458 155.868 30.274C155.64 31.078 155.292 31.774 154.824 32.362C154.356 32.95 153.75 33.4 153.006 33.712C152.274 34.024 151.404 34.18 150.396 34.18C149.4 34.18 148.536 34.024 147.804 33.712C147.072 33.388 146.466 32.938 145.986 32.362C145.518 31.774 145.164 31.072 144.924 30.256C144.696 29.44 144.582 28.534 144.582 27.538C144.582 26.206 144.786 25.048 145.194 24.064C145.614 23.08 146.256 22.318 147.12 21.778C147.984 21.226 149.082 20.95 150.414 20.95C151.758 20.95 152.856 21.226 153.708 21.778C154.56 22.318 155.19 23.086 155.598 24.082C156.006 25.066 156.21 26.224 156.21 27.556ZM147.642 27.556C147.642 28.456 147.732 29.23 147.912 29.878C148.104 30.526 148.404 31.024 148.812 31.372C149.22 31.72 149.748 31.894 150.396 31.894C151.056 31.894 151.584 31.72 151.98 31.372C152.388 31.024 152.682 30.526 152.862 29.878C153.054 29.23 153.15 28.456 153.15 27.556C153.15 26.2 152.934 25.138 152.502 24.37C152.082 23.602 151.386 23.218 150.414 23.218C149.754 23.218 149.22 23.392 148.812 23.74C148.404 24.088 148.104 24.586 147.912 25.234C147.732 25.882 147.642 26.656 147.642 27.556ZM162.312 21.148C163.404 21.148 164.31 21.292 165.03 21.58C165.75 21.856 166.284 22.282 166.632 22.858C166.992 23.422 167.172 24.136 167.172 25C167.172 25.588 167.076 26.104 166.884 26.548C166.704 26.98 166.452 27.352 166.128 27.664C165.804 27.964 165.438 28.21 165.03 28.402L168.558 34H165.3L162.582 29.068H161.484V34H158.568V21.148H162.312ZM162.186 23.38H161.484V26.854H162.204C162.648 26.854 163.02 26.788 163.32 26.656C163.62 26.524 163.848 26.326 164.004 26.062C164.16 25.786 164.238 25.456 164.238 25.072C164.238 24.664 164.166 24.34 164.022 24.1C163.878 23.848 163.656 23.668 163.356 23.56C163.056 23.44 162.666 23.38 162.186 23.38ZM174.857 34H171.941V23.416H168.827V21.148H177.971V23.416H174.857V34ZM189.346 34L186.664 23.92H186.592C186.604 24.16 186.622 24.52 186.646 25C186.67 25.48 186.694 25.996 186.718 26.548C186.742 27.088 186.754 27.58 186.754 28.024V34H184.162V21.148H188.086L190.768 30.976H190.822L193.576 21.148H197.5V34H194.8V27.916C194.8 27.508 194.806 27.04 194.818 26.512C194.83 25.984 194.848 25.486 194.872 25.018C194.896 24.538 194.914 24.178 194.926 23.938H194.854L192.082 34H189.346ZM207.408 34H200.352V21.148H207.408V23.38H203.268V26.206H207.12V28.438H203.268V31.75H207.408V34ZM112.546 52.556C112.546 53.552 112.432 54.458 112.204 55.274C111.976 56.078 111.628 56.774 111.16 57.362C110.692 57.95 110.086 58.4 109.342 58.712C108.61 59.024 107.74 59.18 106.732 59.18C105.736 59.18 104.872 59.024 104.14 58.712C103.408 58.388 102.802 57.938 102.322 57.362C101.854 56.774 101.5 56.072 101.26 55.256C101.032 54.44 100.918 53.534 100.918 52.538C100.918 51.206 101.122 50.048 101.53 49.064C101.95 48.08 102.592 47.318 103.456 46.778C104.32 46.226 105.418 45.95 106.75 45.95C108.094 45.95 109.192 46.226 110.044 46.778C110.896 47.318 111.526 48.086 111.934 49.082C112.342 50.066 112.546 51.224 112.546 52.556ZM103.978 52.556C103.978 53.456 104.068 54.23 104.248 54.878C104.44 55.526 104.74 56.024 105.148 56.372C105.556 56.72 106.084 56.894 106.732 56.894C107.392 56.894 107.92 56.72 108.316 56.372C108.724 56.024 109.018 55.526 109.198 54.878C109.39 54.23 109.486 53.456 109.486 52.556C109.486 51.2 109.27 50.138 108.838 49.37C108.418 48.602 107.722 48.218 106.75 48.218C106.09 48.218 105.556 48.392 105.148 48.74C104.74 49.088 104.44 49.586 104.248 50.234C104.068 50.882 103.978 51.656 103.978 52.556ZM126.01 59H122.248L117.406 49.28H117.334C117.346 49.58 117.358 49.886 117.37 50.198C117.382 50.498 117.394 50.804 117.406 51.116C117.43 51.416 117.448 51.722 117.46 52.034C117.472 52.334 117.484 52.64 117.496 52.952V59H114.904V46.148H118.648L123.472 55.778H123.526C123.526 55.478 123.52 55.184 123.508 54.896C123.496 54.596 123.478 54.302 123.454 54.014C123.442 53.714 123.43 53.42 123.418 53.132C123.406 52.832 123.4 52.532 123.4 52.232V46.148H126.01V59ZM143.264 59H139.97L137.198 53.582L136.172 54.41V59H133.256V46.148H136.172V52.034C136.328 51.782 136.49 51.53 136.658 51.278C136.838 51.026 137.012 50.774 137.18 50.522L140.078 46.148H143.282L139.286 51.836L143.264 59ZM155.472 52.556C155.472 53.552 155.358 54.458 155.13 55.274C154.902 56.078 154.554 56.774 154.086 57.362C153.618 57.95 153.012 58.4 152.268 58.712C151.536 59.024 150.666 59.18 149.658 59.18C148.662 59.18 147.798 59.024 147.066 58.712C146.334 58.388 145.728 57.938 145.248 57.362C144.78 56.774 144.426 56.072 144.186 55.256C143.958 54.44 143.844 53.534 143.844 52.538C143.844 51.206 144.048 50.048 144.456 49.064C144.876 48.08 145.518 47.318 146.382 46.778C147.246 46.226 148.344 45.95 149.676 45.95C151.02 45.95 152.118 46.226 152.97 46.778C153.822 47.318 154.452 48.086 154.86 49.082C155.268 50.066 155.472 51.224 155.472 52.556ZM146.904 52.556C146.904 53.456 146.994 54.23 147.174 54.878C147.366 55.526 147.666 56.024 148.074 56.372C148.482 56.72 149.01 56.894 149.658 56.894C150.318 56.894 150.846 56.72 151.242 56.372C151.65 56.024 151.944 55.526 152.124 54.878C152.316 54.23 152.412 53.456 152.412 52.556C152.412 51.2 152.196 50.138 151.764 49.37C151.344 48.602 150.648 48.218 149.676 48.218C149.016 48.218 148.482 48.392 148.074 48.74C147.666 49.088 147.366 49.586 147.174 50.234C146.994 50.882 146.904 51.656 146.904 52.556ZM156.84 55.274V53.078H161.394V55.274H156.84ZM166.106 59H163.244V46.148H170.282V48.38H166.106V51.692H169.994V53.924H166.106V59ZM177.477 59H171.591V57.452L173.085 56.732V48.416L171.591 47.696V46.148H177.477V47.696L176.001 48.416V56.732L177.477 57.452V59Z" fill="white"/>
<path d="M25.3521 23.2938H57.4649V55.4066H25.3521V23.2938Z" fill="#FF5E5B"/>
<path d="M79.7016 32.4824C77.7691 22.27 67.5543 21 67.5543 21H21.8074C20.2974 21 20.1099 22.995 20.1099 22.995C20.1099 22.995 19.9049 41.3047 20.0549 52.5496C20.4649 58.6095 26.5198 59.2295 26.5198 59.2295C26.5198 59.2295 47.187 59.172 56.4344 59.107C62.5293 58.042 63.1418 52.6921 63.0793 49.7721C73.9592 50.3721 81.6341 42.6947 79.7016 32.4824ZM52.047 41.2597C48.932 44.8922 42.0196 51.1996 42.0196 51.1996C42.0196 51.1996 41.7171 51.4971 41.2446 51.2571C41.0546 51.1146 40.9746 51.0321 40.9746 51.0321C39.8671 49.9296 32.5547 43.4097 30.8897 41.1472C29.1173 38.7348 28.2873 34.3973 30.6622 31.8724C33.0397 29.3474 38.1747 29.1574 41.5696 32.8898C41.5696 32.8898 45.4821 28.4349 50.2395 30.4824C54.9994 32.5323 54.8194 38.0098 52.047 41.2597ZM67.4793 42.4547C65.1593 42.7447 63.2743 42.5247 63.2743 42.5247V28.3224H67.6993C67.6993 28.3224 72.6267 29.6999 72.6267 34.9173C72.6267 39.6998 70.1642 41.5847 67.4793 42.4547Z" fill="white"/>
</svg>
