<svg width="260" height="80" viewBox="0 0 260 80" fill="none" xmlns="http://www.w3.org/2000/svg">
<rect width="260" height="80" fill="#485A6C"/>
<path d="M108.91 29.436C108.91 30.192 108.742 30.852 108.406 31.416C108.07 31.98 107.56 32.418 106.876 32.73C106.204 33.03 105.352 33.18 104.32 33.18C103.84 33.18 103.396 33.15 102.988 33.09C102.58 33.03 102.196 32.946 101.836 32.838C101.476 32.718 101.116 32.574 100.756 32.406V29.868C101.368 30.132 101.992 30.378 102.628 30.606C103.276 30.822 103.888 30.93 104.464 30.93C104.836 30.93 105.136 30.87 105.364 30.75C105.592 30.63 105.76 30.468 105.868 30.264C105.976 30.06 106.03 29.826 106.03 29.562C106.03 29.238 105.94 28.962 105.76 28.734C105.592 28.506 105.34 28.296 105.004 28.104C104.668 27.9 104.254 27.696 103.762 27.492C103.402 27.336 103.048 27.156 102.7 26.952C102.352 26.748 102.04 26.502 101.764 26.214C101.488 25.914 101.266 25.554 101.098 25.134C100.942 24.714 100.864 24.21 100.864 23.622C100.864 22.854 101.044 22.2 101.404 21.66C101.764 21.108 102.268 20.688 102.916 20.4C103.564 20.112 104.32 19.968 105.184 19.968C105.892 19.968 106.546 20.046 107.146 20.202C107.758 20.358 108.34 20.58 108.892 20.868L107.974 22.992C107.446 22.752 106.942 22.566 106.462 22.434C105.994 22.302 105.538 22.236 105.094 22.236C104.794 22.236 104.542 22.29 104.338 22.398C104.134 22.506 103.978 22.656 103.87 22.848C103.774 23.04 103.726 23.268 103.726 23.532C103.726 23.832 103.804 24.09 103.96 24.306C104.128 24.51 104.386 24.714 104.734 24.918C105.082 25.11 105.526 25.344 106.066 25.62C106.666 25.92 107.176 26.238 107.596 26.574C108.028 26.898 108.352 27.288 108.568 27.744C108.796 28.2 108.91 28.764 108.91 29.436ZM120.993 28.464C120.993 29.352 120.801 30.156 120.417 30.876C120.045 31.584 119.481 32.148 118.725 32.568C117.969 32.976 117.021 33.18 115.881 33.18C114.249 33.18 113.001 32.748 112.137 31.884C111.285 31.008 110.859 29.856 110.859 28.428V20.148H113.775V28.014C113.775 29.07 113.955 29.814 114.315 30.246C114.687 30.678 115.227 30.894 115.935 30.894C116.439 30.894 116.847 30.792 117.159 30.588C117.471 30.384 117.699 30.066 117.843 29.634C117.999 29.202 118.077 28.656 118.077 27.996V20.148H120.993V28.464ZM127.76 20.148C129.308 20.148 130.448 20.508 131.18 21.228C131.924 21.936 132.296 22.914 132.296 24.162C132.296 24.726 132.218 25.266 132.062 25.782C131.906 26.286 131.648 26.742 131.288 27.15C130.928 27.546 130.448 27.858 129.848 28.086C129.26 28.314 128.534 28.428 127.67 28.428H126.662V33H123.746V20.148H127.76ZM127.67 22.38H126.662V26.196H127.4C127.784 26.196 128.126 26.13 128.426 25.998C128.726 25.866 128.96 25.656 129.128 25.368C129.296 25.08 129.38 24.708 129.38 24.252C129.38 23.616 129.236 23.148 128.948 22.848C128.672 22.536 128.246 22.38 127.67 22.38ZM138.43 20.148C139.978 20.148 141.118 20.508 141.85 21.228C142.594 21.936 142.966 22.914 142.966 24.162C142.966 24.726 142.888 25.266 142.732 25.782C142.576 26.286 142.318 26.742 141.958 27.15C141.598 27.546 141.118 27.858 140.518 28.086C139.93 28.314 139.204 28.428 138.34 28.428H137.332V33H134.416V20.148H138.43ZM138.34 22.38H137.332V26.196H138.07C138.454 26.196 138.796 26.13 139.096 25.998C139.396 25.866 139.63 25.656 139.798 25.368C139.966 25.08 140.05 24.708 140.05 24.252C140.05 23.616 139.906 23.148 139.618 22.848C139.342 22.536 138.916 22.38 138.34 22.38ZM156.21 26.556C156.21 27.552 156.096 28.458 155.868 29.274C155.64 30.078 155.292 30.774 154.824 31.362C154.356 31.95 153.75 32.4 153.006 32.712C152.274 33.024 151.404 33.18 150.396 33.18C149.4 33.18 148.536 33.024 147.804 32.712C147.072 32.388 146.466 31.938 145.986 31.362C145.518 30.774 145.164 30.072 144.924 29.256C144.696 28.44 144.582 27.534 144.582 26.538C144.582 25.206 144.786 24.048 145.194 23.064C145.614 22.08 146.256 21.318 147.12 20.778C147.984 20.226 149.082 19.95 150.414 19.95C151.758 19.95 152.856 20.226 153.708 20.778C154.56 21.318 155.19 22.086 155.598 23.082C156.006 24.066 156.21 25.224 156.21 26.556ZM147.642 26.556C147.642 27.456 147.732 28.23 147.912 28.878C148.104 29.526 148.404 30.024 148.812 30.372C149.22 30.72 149.748 30.894 150.396 30.894C151.056 30.894 151.584 30.72 151.98 30.372C152.388 30.024 152.682 29.526 152.862 28.878C153.054 28.23 153.15 27.456 153.15 26.556C153.15 25.2 152.934 24.138 152.502 23.37C152.082 22.602 151.386 22.218 150.414 22.218C149.754 22.218 149.22 22.392 148.812 22.74C148.404 23.088 148.104 23.586 147.912 24.234C147.732 24.882 147.642 25.656 147.642 26.556ZM162.312 20.148C163.404 20.148 164.31 20.292 165.03 20.58C165.75 20.856 166.284 21.282 166.632 21.858C166.992 22.422 167.172 23.136 167.172 24C167.172 24.588 167.076 25.104 166.884 25.548C166.704 25.98 166.452 26.352 166.128 26.664C165.804 26.964 165.438 27.21 165.03 27.402L168.558 33H165.3L162.582 28.068H161.484V33H158.568V20.148H162.312ZM162.186 22.38H161.484V25.854H162.204C162.648 25.854 163.02 25.788 163.32 25.656C163.62 25.524 163.848 25.326 164.004 25.062C164.16 24.786 164.238 24.456 164.238 24.072C164.238 23.664 164.166 23.34 164.022 23.1C163.878 22.848 163.656 22.668 163.356 22.56C163.056 22.44 162.666 22.38 162.186 22.38ZM174.857 33H171.941V22.416H168.827V20.148H177.971V22.416H174.857V33ZM189.346 33L186.664 22.92H186.592C186.604 23.16 186.622 23.52 186.646 24C186.67 24.48 186.694 24.996 186.718 25.548C186.742 26.088 186.754 26.58 186.754 27.024V33H184.162V20.148H188.086L190.768 29.976H190.822L193.576 20.148H197.5V33H194.8V26.916C194.8 26.508 194.806 26.04 194.818 25.512C194.83 24.984 194.848 24.486 194.872 24.018C194.896 23.538 194.914 23.178 194.926 22.938H194.854L192.082 33H189.346ZM207.408 33H200.352V20.148H207.408V22.38H203.268V25.206H207.12V27.438H203.268V30.75H207.408V33ZM112.546 53.556C112.546 54.552 112.432 55.458 112.204 56.274C111.976 57.078 111.628 57.774 111.16 58.362C110.692 58.95 110.086 59.4 109.342 59.712C108.61 60.024 107.74 60.18 106.732 60.18C105.736 60.18 104.872 60.024 104.14 59.712C103.408 59.388 102.802 58.938 102.322 58.362C101.854 57.774 101.5 57.072 101.26 56.256C101.032 55.44 100.918 54.534 100.918 53.538C100.918 52.206 101.122 51.048 101.53 50.064C101.95 49.08 102.592 48.318 103.456 47.778C104.32 47.226 105.418 46.95 106.75 46.95C108.094 46.95 109.192 47.226 110.044 47.778C110.896 48.318 111.526 49.086 111.934 50.082C112.342 51.066 112.546 52.224 112.546 53.556ZM103.978 53.556C103.978 54.456 104.068 55.23 104.248 55.878C104.44 56.526 104.74 57.024 105.148 57.372C105.556 57.72 106.084 57.894 106.732 57.894C107.392 57.894 107.92 57.72 108.316 57.372C108.724 57.024 109.018 56.526 109.198 55.878C109.39 55.23 109.486 54.456 109.486 53.556C109.486 52.2 109.27 51.138 108.838 50.37C108.418 49.602 107.722 49.218 106.75 49.218C106.09 49.218 105.556 49.392 105.148 49.74C104.74 50.088 104.44 50.586 104.248 51.234C104.068 51.882 103.978 52.656 103.978 53.556ZM126.01 60H122.248L117.406 50.28H117.334C117.346 50.58 117.358 50.886 117.37 51.198C117.382 51.498 117.394 51.804 117.406 52.116C117.43 52.416 117.448 52.722 117.46 53.034C117.472 53.334 117.484 53.64 117.496 53.952V60H114.904V47.148H118.648L123.472 56.778H123.526C123.526 56.478 123.52 56.184 123.508 55.896C123.496 55.596 123.478 55.302 123.454 55.014C123.442 54.714 123.43 54.42 123.418 54.132C123.406 53.832 123.4 53.532 123.4 53.232V47.148H126.01V60ZM143.264 60H139.97L137.198 54.582L136.172 55.41V60H133.256V47.148H136.172V53.034C136.328 52.782 136.49 52.53 136.658 52.278C136.838 52.026 137.012 51.774 137.18 51.522L140.078 47.148H143.282L139.286 52.836L143.264 60ZM155.472 53.556C155.472 54.552 155.358 55.458 155.13 56.274C154.902 57.078 154.554 57.774 154.086 58.362C153.618 58.95 153.012 59.4 152.268 59.712C151.536 60.024 150.666 60.18 149.658 60.18C148.662 60.18 147.798 60.024 147.066 59.712C146.334 59.388 145.728 58.938 145.248 58.362C144.78 57.774 144.426 57.072 144.186 56.256C143.958 55.44 143.844 54.534 143.844 53.538C143.844 52.206 144.048 51.048 144.456 50.064C144.876 49.08 145.518 48.318 146.382 47.778C147.246 47.226 148.344 46.95 149.676 46.95C151.02 46.95 152.118 47.226 152.97 47.778C153.822 48.318 154.452 49.086 154.86 50.082C155.268 51.066 155.472 52.224 155.472 53.556ZM146.904 53.556C146.904 54.456 146.994 55.23 147.174 55.878C147.366 56.526 147.666 57.024 148.074 57.372C148.482 57.72 149.01 57.894 149.658 57.894C150.318 57.894 150.846 57.72 151.242 57.372C151.65 57.024 151.944 56.526 152.124 55.878C152.316 55.23 152.412 54.456 152.412 53.556C152.412 52.2 152.196 51.138 151.764 50.37C151.344 49.602 150.648 49.218 149.676 49.218C149.016 49.218 148.482 49.392 148.074 49.74C147.666 50.088 147.366 50.586 147.174 51.234C146.994 51.882 146.904 52.656 146.904 53.556ZM156.84 56.274V54.078H161.394V56.274H156.84ZM166.106 60H163.244V47.148H170.282V49.38H166.106V52.692H169.994V54.924H166.106V60ZM177.477 60H171.591V58.452L173.085 57.732V49.416L171.591 48.696V47.148H177.477V48.696L176.001 49.416V57.732L177.477 58.452V60Z" fill="white"/>
<path d="M25.3521 23.2938H57.4649V55.4066H25.3521V23.2938Z" fill="#FF5E5B"/>
<path d="M79.7016 32.4824C77.7691 22.27 67.5543 21 67.5543 21H21.8074C20.2974 21 20.1099 22.995 20.1099 22.995C20.1099 22.995 19.9049 41.3047 20.0549 52.5496C20.4649 58.6095 26.5198 59.2295 26.5198 59.2295C26.5198 59.2295 47.187 59.172 56.4344 59.107C62.5293 58.042 63.1418 52.6921 63.0793 49.7721C73.9592 50.3721 81.6341 42.6947 79.7016 32.4824ZM52.047 41.2597C48.932 44.8922 42.0196 51.1996 42.0196 51.1996C42.0196 51.1996 41.7171 51.4971 41.2446 51.2571C41.0546 51.1146 40.9746 51.0321 40.9746 51.0321C39.8671 49.9296 32.5547 43.4097 30.8897 41.1472C29.1173 38.7348 28.2873 34.3973 30.6622 31.8724C33.0397 29.3474 38.1747 29.1574 41.5696 32.8898C41.5696 32.8898 45.4821 28.4349 50.2395 30.4824C54.9994 32.5323 54.8194 38.0098 52.047 41.2597ZM67.4793 42.4547C65.1593 42.7447 63.2743 42.5247 63.2743 42.5247V28.3224H67.6993C67.6993 28.3224 72.6267 29.6999 72.6267 34.9173C72.6267 39.6998 70.1642 41.5847 67.4793 42.4547Z" fill="white"/>
</svg>
