<svg width="260" height="80" viewBox="0 0 260 80" fill="none" xmlns="http://www.w3.org/2000/svg">
<g clip-path="url(#clip0_2_20)">
<rect width="260" height="80" fill="#434B57"/>
<path d="M98.91 29.436C98.91 30.192 98.742 30.852 98.406 31.416C98.07 31.98 97.56 32.418 96.876 32.73C96.204 33.03 95.352 33.18 94.32 33.18C93.84 33.18 93.396 33.15 92.988 33.09C92.58 33.03 92.196 32.946 91.836 32.838C91.476 32.718 91.116 32.574 90.756 32.406V29.868C91.368 30.132 91.992 30.378 92.628 30.606C93.276 30.822 93.888 30.93 94.464 30.93C94.836 30.93 95.136 30.87 95.364 30.75C95.592 30.63 95.76 30.468 95.868 30.264C95.976 30.06 96.03 29.826 96.03 29.562C96.03 29.238 95.94 28.962 95.76 28.734C95.592 28.506 95.34 28.296 95.004 28.104C94.668 27.9 94.254 27.696 93.762 27.492C93.402 27.336 93.048 27.156 92.7 26.952C92.352 26.748 92.04 26.502 91.764 26.214C91.488 25.914 91.266 25.554 91.098 25.134C90.942 24.714 90.864 24.21 90.864 23.622C90.864 22.854 91.044 22.2 91.404 21.66C91.764 21.108 92.268 20.688 92.916 20.4C93.564 20.112 94.32 19.968 95.184 19.968C95.892 19.968 96.546 20.046 97.146 20.202C97.758 20.358 98.34 20.58 98.892 20.868L97.974 22.992C97.446 22.752 96.942 22.566 96.462 22.434C95.994 22.302 95.538 22.236 95.094 22.236C94.794 22.236 94.542 22.29 94.338 22.398C94.134 22.506 93.978 22.656 93.87 22.848C93.774 23.04 93.726 23.268 93.726 23.532C93.726 23.832 93.804 24.09 93.96 24.306C94.128 24.51 94.386 24.714 94.734 24.918C95.082 25.11 95.526 25.344 96.066 25.62C96.666 25.92 97.176 26.238 97.596 26.574C98.028 26.898 98.352 27.288 98.568 27.744C98.796 28.2 98.91 28.764 98.91 29.436ZM110.993 28.464C110.993 29.352 110.801 30.156 110.417 30.876C110.045 31.584 109.481 32.148 108.725 32.568C107.969 32.976 107.021 33.18 105.881 33.18C104.249 33.18 103.001 32.748 102.137 31.884C101.285 31.008 100.859 29.856 100.859 28.428V20.148H103.775V28.014C103.775 29.07 103.955 29.814 104.315 30.246C104.687 30.678 105.227 30.894 105.935 30.894C106.439 30.894 106.847 30.792 107.159 30.588C107.471 30.384 107.699 30.066 107.843 29.634C107.999 29.202 108.077 28.656 108.077 27.996V20.148H110.993V28.464ZM117.76 20.148C119.308 20.148 120.448 20.508 121.18 21.228C121.924 21.936 122.296 22.914 122.296 24.162C122.296 24.726 122.218 25.266 122.062 25.782C121.906 26.286 121.648 26.742 121.288 27.15C120.928 27.546 120.448 27.858 119.848 28.086C119.26 28.314 118.534 28.428 117.67 28.428H116.662V33H113.746V20.148H117.76ZM117.67 22.38H116.662V26.196H117.4C117.784 26.196 118.126 26.13 118.426 25.998C118.726 25.866 118.96 25.656 119.128 25.368C119.296 25.08 119.38 24.708 119.38 24.252C119.38 23.616 119.236 23.148 118.948 22.848C118.672 22.536 118.246 22.38 117.67 22.38ZM128.43 20.148C129.978 20.148 131.118 20.508 131.85 21.228C132.594 21.936 132.966 22.914 132.966 24.162C132.966 24.726 132.888 25.266 132.732 25.782C132.576 26.286 132.318 26.742 131.958 27.15C131.598 27.546 131.118 27.858 130.518 28.086C129.93 28.314 129.204 28.428 128.34 28.428H127.332V33H124.416V20.148H128.43ZM128.34 22.38H127.332V26.196H128.07C128.454 26.196 128.796 26.13 129.096 25.998C129.396 25.866 129.63 25.656 129.798 25.368C129.966 25.08 130.05 24.708 130.05 24.252C130.05 23.616 129.906 23.148 129.618 22.848C129.342 22.536 128.916 22.38 128.34 22.38ZM146.21 26.556C146.21 27.552 146.096 28.458 145.868 29.274C145.64 30.078 145.292 30.774 144.824 31.362C144.356 31.95 143.75 32.4 143.006 32.712C142.274 33.024 141.404 33.18 140.396 33.18C139.4 33.18 138.536 33.024 137.804 32.712C137.072 32.388 136.466 31.938 135.986 31.362C135.518 30.774 135.164 30.072 134.924 29.256C134.696 28.44 134.582 27.534 134.582 26.538C134.582 25.206 134.786 24.048 135.194 23.064C135.614 22.08 136.256 21.318 137.12 20.778C137.984 20.226 139.082 19.95 140.414 19.95C141.758 19.95 142.856 20.226 143.708 20.778C144.56 21.318 145.19 22.086 145.598 23.082C146.006 24.066 146.21 25.224 146.21 26.556ZM137.642 26.556C137.642 27.456 137.732 28.23 137.912 28.878C138.104 29.526 138.404 30.024 138.812 30.372C139.22 30.72 139.748 30.894 140.396 30.894C141.056 30.894 141.584 30.72 141.98 30.372C142.388 30.024 142.682 29.526 142.862 28.878C143.054 28.23 143.15 27.456 143.15 26.556C143.15 25.2 142.934 24.138 142.502 23.37C142.082 22.602 141.386 22.218 140.414 22.218C139.754 22.218 139.22 22.392 138.812 22.74C138.404 23.088 138.104 23.586 137.912 24.234C137.732 24.882 137.642 25.656 137.642 26.556ZM152.312 20.148C153.404 20.148 154.31 20.292 155.03 20.58C155.75 20.856 156.284 21.282 156.632 21.858C156.992 22.422 157.172 23.136 157.172 24C157.172 24.588 157.076 25.104 156.884 25.548C156.704 25.98 156.452 26.352 156.128 26.664C155.804 26.964 155.438 27.21 155.03 27.402L158.558 33H155.3L152.582 28.068H151.484V33H148.568V20.148H152.312ZM152.186 22.38H151.484V25.854H152.204C152.648 25.854 153.02 25.788 153.32 25.656C153.62 25.524 153.848 25.326 154.004 25.062C154.16 24.786 154.238 24.456 154.238 24.072C154.238 23.664 154.166 23.34 154.022 23.1C153.878 22.848 153.656 22.668 153.356 22.56C153.056 22.44 152.666 22.38 152.186 22.38ZM164.857 33H161.941V22.416H158.827V20.148H167.971V22.416H164.857V33ZM179.346 33L176.664 22.92H176.592C176.604 23.16 176.622 23.52 176.646 24C176.67 24.48 176.694 24.996 176.718 25.548C176.742 26.088 176.754 26.58 176.754 27.024V33H174.162V20.148H178.086L180.768 29.976H180.822L183.576 20.148H187.5V33H184.8V26.916C184.8 26.508 184.806 26.04 184.818 25.512C184.83 24.984 184.848 24.486 184.872 24.018C184.896 23.538 184.914 23.178 184.926 22.938H184.854L182.082 33H179.346ZM197.408 33H190.352V20.148H197.408V22.38H193.268V25.206H197.12V27.438H193.268V30.75H197.408V33ZM102.546 53.556C102.546 54.552 102.432 55.458 102.204 56.274C101.976 57.078 101.628 57.774 101.16 58.362C100.692 58.95 100.086 59.4 99.342 59.712C98.61 60.024 97.74 60.18 96.732 60.18C95.736 60.18 94.872 60.024 94.14 59.712C93.408 59.388 92.802 58.938 92.322 58.362C91.854 57.774 91.5 57.072 91.26 56.256C91.032 55.44 90.918 54.534 90.918 53.538C90.918 52.206 91.122 51.048 91.53 50.064C91.95 49.08 92.592 48.318 93.456 47.778C94.32 47.226 95.418 46.95 96.75 46.95C98.094 46.95 99.192 47.226 100.044 47.778C100.896 48.318 101.526 49.086 101.934 50.082C102.342 51.066 102.546 52.224 102.546 53.556ZM93.978 53.556C93.978 54.456 94.068 55.23 94.248 55.878C94.44 56.526 94.74 57.024 95.148 57.372C95.556 57.72 96.084 57.894 96.732 57.894C97.392 57.894 97.92 57.72 98.316 57.372C98.724 57.024 99.018 56.526 99.198 55.878C99.39 55.23 99.486 54.456 99.486 53.556C99.486 52.2 99.27 51.138 98.838 50.37C98.418 49.602 97.722 49.218 96.75 49.218C96.09 49.218 95.556 49.392 95.148 49.74C94.74 50.088 94.44 50.586 94.248 51.234C94.068 51.882 93.978 52.656 93.978 53.556ZM116.01 60H112.248L107.406 50.28H107.334C107.346 50.58 107.358 50.886 107.37 51.198C107.382 51.498 107.394 51.804 107.406 52.116C107.43 52.416 107.448 52.722 107.46 53.034C107.472 53.334 107.484 53.64 107.496 53.952V60H104.904V47.148H108.648L113.472 56.778H113.526C113.526 56.478 113.52 56.184 113.508 55.896C113.496 55.596 113.478 55.302 113.454 55.014C113.442 54.714 113.43 54.42 113.418 54.132C113.406 53.832 113.4 53.532 113.4 53.232V47.148H116.01V60ZM133.264 60H129.97L127.198 54.582L126.172 55.41V60H123.256V47.148H126.172V53.034C126.328 52.782 126.49 52.53 126.658 52.278C126.838 52.026 127.012 51.774 127.18 51.522L130.078 47.148H133.282L129.286 52.836L133.264 60ZM145.472 53.556C145.472 54.552 145.358 55.458 145.13 56.274C144.902 57.078 144.554 57.774 144.086 58.362C143.618 58.95 143.012 59.4 142.268 59.712C141.536 60.024 140.666 60.18 139.658 60.18C138.662 60.18 137.798 60.024 137.066 59.712C136.334 59.388 135.728 58.938 135.248 58.362C134.78 57.774 134.426 57.072 134.186 56.256C133.958 55.44 133.844 54.534 133.844 53.538C133.844 52.206 134.048 51.048 134.456 50.064C134.876 49.08 135.518 48.318 136.382 47.778C137.246 47.226 138.344 46.95 139.676 46.95C141.02 46.95 142.118 47.226 142.97 47.778C143.822 48.318 144.452 49.086 144.86 50.082C145.268 51.066 145.472 52.224 145.472 53.556ZM136.904 53.556C136.904 54.456 136.994 55.23 137.174 55.878C137.366 56.526 137.666 57.024 138.074 57.372C138.482 57.72 139.01 57.894 139.658 57.894C140.318 57.894 140.846 57.72 141.242 57.372C141.65 57.024 141.944 56.526 142.124 55.878C142.316 55.23 142.412 54.456 142.412 53.556C142.412 52.2 142.196 51.138 141.764 50.37C141.344 49.602 140.648 49.218 139.676 49.218C139.016 49.218 138.482 49.392 138.074 49.74C137.666 50.088 137.366 50.586 137.174 51.234C136.994 51.882 136.904 52.656 136.904 53.556ZM146.84 56.274V54.078H151.394V56.274H146.84ZM156.106 60H153.244V47.148H160.282V49.38H156.106V52.692H159.994V54.924H156.106V60ZM167.477 60H161.591V58.452L163.085 57.732V49.416L161.591 48.696V47.148H167.477V48.696L166.001 49.416V57.732L167.477 58.452V60Z" fill="white"/>
<circle cx="45" cy="40" r="25" fill="white"/>
<path d="M57.5542 42.7437C53.7981 47.1556 45.463 54.8165 45.463 54.8165C45.463 54.8165 45.0982 55.1779 44.5285 54.8864C44.2994 54.7133 44.2029 54.6131 44.2029 54.6131C42.8675 53.274 34.05 45.355 32.0424 42.607C29.9051 39.6769 28.9043 34.4087 31.7681 31.3419C34.6349 28.2751 40.8267 28.0443 44.9204 32.5777C44.9204 32.5777 49.6381 27.1668 55.3747 29.6536C61.1144 32.1435 60.8973 38.7963 57.5542 42.7437Z" fill="#FF5E5B"/>
</g>
<defs>
<clipPath id="clip0_2_20">
<rect width="260" height="80" fill="white"/>
</clipPath>
</defs>
</svg>
