<svg width="260" height="80" viewBox="0 0 260 80" fill="none" xmlns="http://www.w3.org/2000/svg">
<rect width="260" height="80" fill="#485A6C"/>
<path d="M118.91 29.436C118.91 30.192 118.742 30.852 118.406 31.416C118.07 31.98 117.56 32.418 116.876 32.73C116.204 33.03 115.352 33.18 114.32 33.18C113.84 33.18 113.396 33.15 112.988 33.09C112.58 33.03 112.196 32.946 111.836 32.838C111.476 32.718 111.116 32.574 110.756 32.406V29.868C111.368 30.132 111.992 30.378 112.628 30.606C113.276 30.822 113.888 30.93 114.464 30.93C114.836 30.93 115.136 30.87 115.364 30.75C115.592 30.63 115.76 30.468 115.868 30.264C115.976 30.06 116.03 29.826 116.03 29.562C116.03 29.238 115.94 28.962 115.76 28.734C115.592 28.506 115.34 28.296 115.004 28.104C114.668 27.9 114.254 27.696 113.762 27.492C113.402 27.336 113.048 27.156 112.7 26.952C112.352 26.748 112.04 26.502 111.764 26.214C111.488 25.914 111.266 25.554 111.098 25.134C110.942 24.714 110.864 24.21 110.864 23.622C110.864 22.854 111.044 22.2 111.404 21.66C111.764 21.108 112.268 20.688 112.916 20.4C113.564 20.112 114.32 19.968 115.184 19.968C115.892 19.968 116.546 20.046 117.146 20.202C117.758 20.358 118.34 20.58 118.892 20.868L117.974 22.992C117.446 22.752 116.942 22.566 116.462 22.434C115.994 22.302 115.538 22.236 115.094 22.236C114.794 22.236 114.542 22.29 114.338 22.398C114.134 22.506 113.978 22.656 113.87 22.848C113.774 23.04 113.726 23.268 113.726 23.532C113.726 23.832 113.804 24.09 113.96 24.306C114.128 24.51 114.386 24.714 114.734 24.918C115.082 25.11 115.526 25.344 116.066 25.62C116.666 25.92 117.176 26.238 117.596 26.574C118.028 26.898 118.352 27.288 118.568 27.744C118.796 28.2 118.91 28.764 118.91 29.436ZM130.993 28.464C130.993 29.352 130.801 30.156 130.417 30.876C130.045 31.584 129.481 32.148 128.725 32.568C127.969 32.976 127.021 33.18 125.881 33.18C124.249 33.18 123.001 32.748 122.137 31.884C121.285 31.008 120.859 29.856 120.859 28.428V20.148H123.775V28.014C123.775 29.07 123.955 29.814 124.315 30.246C124.687 30.678 125.227 30.894 125.935 30.894C126.439 30.894 126.847 30.792 127.159 30.588C127.471 30.384 127.699 30.066 127.843 29.634C127.999 29.202 128.077 28.656 128.077 27.996V20.148H130.993V28.464ZM137.76 20.148C139.308 20.148 140.448 20.508 141.18 21.228C141.924 21.936 142.296 22.914 142.296 24.162C142.296 24.726 142.218 25.266 142.062 25.782C141.906 26.286 141.648 26.742 141.288 27.15C140.928 27.546 140.448 27.858 139.848 28.086C139.26 28.314 138.534 28.428 137.67 28.428H136.662V33H133.746V20.148H137.76ZM137.67 22.38H136.662V26.196H137.4C137.784 26.196 138.126 26.13 138.426 25.998C138.726 25.866 138.96 25.656 139.128 25.368C139.296 25.08 139.38 24.708 139.38 24.252C139.38 23.616 139.236 23.148 138.948 22.848C138.672 22.536 138.246 22.38 137.67 22.38ZM148.43 20.148C149.978 20.148 151.118 20.508 151.85 21.228C152.594 21.936 152.966 22.914 152.966 24.162C152.966 24.726 152.888 25.266 152.732 25.782C152.576 26.286 152.318 26.742 151.958 27.15C151.598 27.546 151.118 27.858 150.518 28.086C149.93 28.314 149.204 28.428 148.34 28.428H147.332V33H144.416V20.148H148.43ZM148.34 22.38H147.332V26.196H148.07C148.454 26.196 148.796 26.13 149.096 25.998C149.396 25.866 149.63 25.656 149.798 25.368C149.966 25.08 150.05 24.708 150.05 24.252C150.05 23.616 149.906 23.148 149.618 22.848C149.342 22.536 148.916 22.38 148.34 22.38ZM166.21 26.556C166.21 27.552 166.096 28.458 165.868 29.274C165.64 30.078 165.292 30.774 164.824 31.362C164.356 31.95 163.75 32.4 163.006 32.712C162.274 33.024 161.404 33.18 160.396 33.18C159.4 33.18 158.536 33.024 157.804 32.712C157.072 32.388 156.466 31.938 155.986 31.362C155.518 30.774 155.164 30.072 154.924 29.256C154.696 28.44 154.582 27.534 154.582 26.538C154.582 25.206 154.786 24.048 155.194 23.064C155.614 22.08 156.256 21.318 157.12 20.778C157.984 20.226 159.082 19.95 160.414 19.95C161.758 19.95 162.856 20.226 163.708 20.778C164.56 21.318 165.19 22.086 165.598 23.082C166.006 24.066 166.21 25.224 166.21 26.556ZM157.642 26.556C157.642 27.456 157.732 28.23 157.912 28.878C158.104 29.526 158.404 30.024 158.812 30.372C159.22 30.72 159.748 30.894 160.396 30.894C161.056 30.894 161.584 30.72 161.98 30.372C162.388 30.024 162.682 29.526 162.862 28.878C163.054 28.23 163.15 27.456 163.15 26.556C163.15 25.2 162.934 24.138 162.502 23.37C162.082 22.602 161.386 22.218 160.414 22.218C159.754 22.218 159.22 22.392 158.812 22.74C158.404 23.088 158.104 23.586 157.912 24.234C157.732 24.882 157.642 25.656 157.642 26.556ZM172.312 20.148C173.404 20.148 174.31 20.292 175.03 20.58C175.75 20.856 176.284 21.282 176.632 21.858C176.992 22.422 177.172 23.136 177.172 24C177.172 24.588 177.076 25.104 176.884 25.548C176.704 25.98 176.452 26.352 176.128 26.664C175.804 26.964 175.438 27.21 175.03 27.402L178.558 33H175.3L172.582 28.068H171.484V33H168.568V20.148H172.312ZM172.186 22.38H171.484V25.854H172.204C172.648 25.854 173.02 25.788 173.32 25.656C173.62 25.524 173.848 25.326 174.004 25.062C174.16 24.786 174.238 24.456 174.238 24.072C174.238 23.664 174.166 23.34 174.022 23.1C173.878 22.848 173.656 22.668 173.356 22.56C173.056 22.44 172.666 22.38 172.186 22.38ZM184.857 33H181.941V22.416H178.827V20.148H187.971V22.416H184.857V33ZM199.346 33L196.664 22.92H196.592C196.604 23.16 196.622 23.52 196.646 24C196.67 24.48 196.694 24.996 196.718 25.548C196.742 26.088 196.754 26.58 196.754 27.024V33H194.162V20.148H198.086L200.768 29.976H200.822L203.576 20.148H207.5V33H204.8V26.916C204.8 26.508 204.806 26.04 204.818 25.512C204.83 24.984 204.848 24.486 204.872 24.018C204.896 23.538 204.914 23.178 204.926 22.938H204.854L202.082 33H199.346ZM217.408 33H210.352V20.148H217.408V22.38H213.268V25.206H217.12V27.438H213.268V30.75H217.408V33ZM122.546 53.556C122.546 54.552 122.432 55.458 122.204 56.274C121.976 57.078 121.628 57.774 121.16 58.362C120.692 58.95 120.086 59.4 119.342 59.712C118.61 60.024 117.74 60.18 116.732 60.18C115.736 60.18 114.872 60.024 114.14 59.712C113.408 59.388 112.802 58.938 112.322 58.362C111.854 57.774 111.5 57.072 111.26 56.256C111.032 55.44 110.918 54.534 110.918 53.538C110.918 52.206 111.122 51.048 111.53 50.064C111.95 49.08 112.592 48.318 113.456 47.778C114.32 47.226 115.418 46.95 116.75 46.95C118.094 46.95 119.192 47.226 120.044 47.778C120.896 48.318 121.526 49.086 121.934 50.082C122.342 51.066 122.546 52.224 122.546 53.556ZM113.978 53.556C113.978 54.456 114.068 55.23 114.248 55.878C114.44 56.526 114.74 57.024 115.148 57.372C115.556 57.72 116.084 57.894 116.732 57.894C117.392 57.894 117.92 57.72 118.316 57.372C118.724 57.024 119.018 56.526 119.198 55.878C119.39 55.23 119.486 54.456 119.486 53.556C119.486 52.2 119.27 51.138 118.838 50.37C118.418 49.602 117.722 49.218 116.75 49.218C116.09 49.218 115.556 49.392 115.148 49.74C114.74 50.088 114.44 50.586 114.248 51.234C114.068 51.882 113.978 52.656 113.978 53.556ZM136.01 60H132.248L127.406 50.28H127.334C127.346 50.58 127.358 50.886 127.37 51.198C127.382 51.498 127.394 51.804 127.406 52.116C127.43 52.416 127.448 52.722 127.46 53.034C127.472 53.334 127.484 53.64 127.496 53.952V60H124.904V47.148H128.648L133.472 56.778H133.526C133.526 56.478 133.52 56.184 133.508 55.896C133.496 55.596 133.478 55.302 133.454 55.014C133.442 54.714 133.43 54.42 133.418 54.132C133.406 53.832 133.4 53.532 133.4 53.232V47.148H136.01V60ZM153.264 60H149.97L147.198 54.582L146.172 55.41V60H143.256V47.148H146.172V53.034C146.328 52.782 146.49 52.53 146.658 52.278C146.838 52.026 147.012 51.774 147.18 51.522L150.078 47.148H153.282L149.286 52.836L153.264 60ZM165.472 53.556C165.472 54.552 165.358 55.458 165.13 56.274C164.902 57.078 164.554 57.774 164.086 58.362C163.618 58.95 163.012 59.4 162.268 59.712C161.536 60.024 160.666 60.18 159.658 60.18C158.662 60.18 157.798 60.024 157.066 59.712C156.334 59.388 155.728 58.938 155.248 58.362C154.78 57.774 154.426 57.072 154.186 56.256C153.958 55.44 153.844 54.534 153.844 53.538C153.844 52.206 154.048 51.048 154.456 50.064C154.876 49.08 155.518 48.318 156.382 47.778C157.246 47.226 158.344 46.95 159.676 46.95C161.02 46.95 162.118 47.226 162.97 47.778C163.822 48.318 164.452 49.086 164.86 50.082C165.268 51.066 165.472 52.224 165.472 53.556ZM156.904 53.556C156.904 54.456 156.994 55.23 157.174 55.878C157.366 56.526 157.666 57.024 158.074 57.372C158.482 57.72 159.01 57.894 159.658 57.894C160.318 57.894 160.846 57.72 161.242 57.372C161.65 57.024 161.944 56.526 162.124 55.878C162.316 55.23 162.412 54.456 162.412 53.556C162.412 52.2 162.196 51.138 161.764 50.37C161.344 49.602 160.648 49.218 159.676 49.218C159.016 49.218 158.482 49.392 158.074 49.74C157.666 50.088 157.366 50.586 157.174 51.234C156.994 51.882 156.904 52.656 156.904 53.556ZM166.84 56.274V54.078H171.394V56.274H166.84ZM176.106 60H173.244V47.148H180.282V49.38H176.106V52.692H179.994V54.924H176.106V60ZM187.477 60H181.591V58.452L183.085 57.732V49.416L181.591 48.696V47.148H187.477V48.696L186.001 49.416V57.732L187.477 58.452V60Z" fill="white"/>
<rect width="90" height="80" fill="#1A1A1A"/>
<circle cx="45" cy="40" r="25" fill="white"/>
<path d="M57.5542 42.7437C53.7981 47.1556 45.463 54.8165 45.463 54.8165C45.463 54.8165 45.0982 55.1779 44.5285 54.8864C44.2994 54.7133 44.2029 54.6131 44.2029 54.6131C42.8675 53.274 34.05 45.355 32.0424 42.607C29.9051 39.6769 28.9043 34.4087 31.7681 31.3419C34.6349 28.2751 40.8267 28.0443 44.9204 32.5777C44.9204 32.5777 49.6381 27.1668 55.3747 29.6536C61.1144 32.1435 60.8973 38.7963 57.5542 42.7437Z" fill="#FF5E5B"/>
</svg>
