<svg width="260" height="80" viewBox="0 0 260 80" fill="none" xmlns="http://www.w3.org/2000/svg">
<g clip-path="url(#clip0_2_16)">
<rect width="260" height="80" fill="#434B57"/>
<path d="M96.556 26.448C96.556 27.888 96.292 29.094 95.764 30.066C95.248 31.038 94.504 31.77 93.532 32.262C92.572 32.754 91.42 33 90.076 33H86.422V20.148H90.4C91.684 20.148 92.782 20.388 93.694 20.868C94.618 21.348 95.326 22.056 95.818 22.992C96.31 23.916 96.556 25.068 96.556 26.448ZM93.532 26.52C93.532 25.572 93.418 24.792 93.19 24.18C92.962 23.568 92.62 23.118 92.164 22.83C91.72 22.53 91.162 22.38 90.49 22.38H89.338V30.75H90.238C91.366 30.75 92.194 30.396 92.722 29.688C93.262 28.98 93.532 27.924 93.532 26.52ZM110.026 26.556C110.026 27.552 109.912 28.458 109.684 29.274C109.456 30.078 109.108 30.774 108.64 31.362C108.172 31.95 107.566 32.4 106.822 32.712C106.09 33.024 105.22 33.18 104.212 33.18C103.216 33.18 102.352 33.024 101.62 32.712C100.888 32.388 100.282 31.938 99.8025 31.362C99.3345 30.774 98.9805 30.072 98.7405 29.256C98.5125 28.44 98.3985 27.534 98.3985 26.538C98.3985 25.206 98.6025 24.048 99.0105 23.064C99.4305 22.08 100.072 21.318 100.936 20.778C101.8 20.226 102.898 19.95 104.23 19.95C105.574 19.95 106.672 20.226 107.524 20.778C108.376 21.318 109.006 22.086 109.414 23.082C109.822 24.066 110.026 25.224 110.026 26.556ZM101.458 26.556C101.458 27.456 101.548 28.23 101.728 28.878C101.92 29.526 102.22 30.024 102.628 30.372C103.036 30.72 103.564 30.894 104.212 30.894C104.872 30.894 105.4 30.72 105.796 30.372C106.204 30.024 106.498 29.526 106.678 28.878C106.87 28.23 106.966 27.456 106.966 26.556C106.966 25.2 106.75 24.138 106.318 23.37C105.898 22.602 105.202 22.218 104.23 22.218C103.57 22.218 103.036 22.392 102.628 22.74C102.22 23.088 101.92 23.586 101.728 24.234C101.548 24.882 101.458 25.656 101.458 26.556ZM127.653 20.148L124.611 33H121.227L119.805 26.25C119.781 26.118 119.745 25.92 119.697 25.656C119.649 25.392 119.595 25.104 119.535 24.792C119.487 24.48 119.439 24.186 119.391 23.91C119.355 23.622 119.325 23.4 119.301 23.244C119.289 23.4 119.259 23.622 119.211 23.91C119.163 24.186 119.109 24.48 119.049 24.792C119.001 25.092 118.953 25.38 118.905 25.656C118.857 25.92 118.815 26.124 118.779 26.268L117.357 33H113.973L110.931 20.148H113.775L115.197 27.168C115.233 27.372 115.281 27.624 115.341 27.924C115.401 28.212 115.461 28.518 115.521 28.842C115.581 29.154 115.635 29.46 115.683 29.76C115.731 30.06 115.767 30.318 115.791 30.534C115.827 30.306 115.869 30.048 115.917 29.76C115.977 29.46 116.031 29.154 116.079 28.842C116.139 28.53 116.193 28.242 116.241 27.978C116.301 27.702 116.349 27.48 116.385 27.312L117.951 20.148H120.651L122.181 27.348C122.217 27.504 122.259 27.72 122.307 27.996C122.367 28.26 122.427 28.548 122.487 28.86C122.547 29.172 122.601 29.478 122.649 29.778C122.697 30.066 122.739 30.318 122.775 30.534C122.811 30.234 122.865 29.88 122.937 29.472C123.009 29.052 123.087 28.632 123.171 28.212C123.255 27.792 123.327 27.444 123.387 27.168L124.809 20.148H127.653ZM140.313 33H136.551L131.709 23.28H131.637C131.649 23.58 131.661 23.886 131.673 24.198C131.685 24.498 131.697 24.804 131.709 25.116C131.733 25.416 131.751 25.722 131.763 26.034C131.775 26.334 131.787 26.64 131.799 26.952V33H129.207V20.148H132.951L137.775 29.778H137.829C137.829 29.478 137.823 29.184 137.811 28.896C137.799 28.596 137.781 28.302 137.757 28.014C137.745 27.714 137.733 27.42 137.721 27.132C137.709 26.832 137.703 26.532 137.703 26.232V20.148H140.313V33ZM143.164 33V20.148H146.08V30.75H150.85V33H143.164ZM163.657 26.556C163.657 27.552 163.543 28.458 163.315 29.274C163.087 30.078 162.739 30.774 162.271 31.362C161.803 31.95 161.197 32.4 160.453 32.712C159.721 33.024 158.851 33.18 157.843 33.18C156.847 33.18 155.983 33.024 155.251 32.712C154.519 32.388 153.913 31.938 153.433 31.362C152.965 30.774 152.611 30.072 152.371 29.256C152.143 28.44 152.029 27.534 152.029 26.538C152.029 25.206 152.233 24.048 152.641 23.064C153.061 22.08 153.703 21.318 154.567 20.778C155.431 20.226 156.529 19.95 157.861 19.95C159.205 19.95 160.303 20.226 161.155 20.778C162.007 21.318 162.637 22.086 163.045 23.082C163.453 24.066 163.657 25.224 163.657 26.556ZM155.089 26.556C155.089 27.456 155.179 28.23 155.359 28.878C155.551 29.526 155.851 30.024 156.259 30.372C156.667 30.72 157.195 30.894 157.843 30.894C158.503 30.894 159.031 30.72 159.427 30.372C159.835 30.024 160.129 29.526 160.309 28.878C160.501 28.23 160.597 27.456 160.597 26.556C160.597 25.2 160.381 24.138 159.949 23.37C159.529 22.602 158.833 22.218 157.861 22.218C157.201 22.218 156.667 22.392 156.259 22.74C155.851 23.088 155.551 23.586 155.359 24.234C155.179 24.882 155.089 25.656 155.089 26.556ZM173.08 33L172.342 29.94H168.184L167.428 33H164.26L168.364 20.094H172.108L176.23 33H173.08ZM170.866 24.666C170.794 24.414 170.722 24.15 170.65 23.874C170.578 23.598 170.506 23.31 170.434 23.01C170.374 22.71 170.314 22.404 170.254 22.092C170.206 22.404 170.146 22.716 170.074 23.028C170.002 23.328 169.93 23.616 169.858 23.892C169.798 24.168 169.732 24.426 169.66 24.666L168.832 27.654H171.712L170.866 24.666ZM187.786 26.448C187.786 27.888 187.522 29.094 186.994 30.066C186.478 31.038 185.734 31.77 184.762 32.262C183.802 32.754 182.65 33 181.306 33H177.652V20.148H181.63C182.914 20.148 184.012 20.388 184.924 20.868C185.848 21.348 186.556 22.056 187.048 22.992C187.54 23.916 187.786 25.068 187.786 26.448ZM184.762 26.52C184.762 25.572 184.648 24.792 184.42 24.18C184.192 23.568 183.85 23.118 183.394 22.83C182.95 22.53 182.392 22.38 181.72 22.38H180.568V30.75H181.468C182.596 30.75 183.424 30.396 183.952 29.688C184.492 28.98 184.762 27.924 184.762 26.52ZM205.651 26.556C205.651 27.552 205.537 28.458 205.309 29.274C205.081 30.078 204.733 30.774 204.265 31.362C203.797 31.95 203.191 32.4 202.447 32.712C201.715 33.024 200.845 33.18 199.837 33.18C198.841 33.18 197.977 33.024 197.245 32.712C196.513 32.388 195.907 31.938 195.427 31.362C194.959 30.774 194.605 30.072 194.365 29.256C194.137 28.44 194.023 27.534 194.023 26.538C194.023 25.206 194.227 24.048 194.635 23.064C195.055 22.08 195.697 21.318 196.561 20.778C197.425 20.226 198.523 19.95 199.855 19.95C201.199 19.95 202.297 20.226 203.149 20.778C204.001 21.318 204.631 22.086 205.039 23.082C205.447 24.066 205.651 25.224 205.651 26.556ZM197.083 26.556C197.083 27.456 197.173 28.23 197.353 28.878C197.545 29.526 197.845 30.024 198.253 30.372C198.661 30.72 199.189 30.894 199.837 30.894C200.497 30.894 201.025 30.72 201.421 30.372C201.829 30.024 202.123 29.526 202.303 28.878C202.495 28.23 202.591 27.456 202.591 26.556C202.591 25.2 202.375 24.138 201.943 23.37C201.523 22.602 200.827 22.218 199.855 22.218C199.195 22.218 198.661 22.392 198.253 22.74C197.845 23.088 197.545 23.586 197.353 24.234C197.173 24.882 197.083 25.656 197.083 26.556ZM219.116 33H215.354L210.512 23.28H210.44C210.452 23.58 210.464 23.886 210.476 24.198C210.488 24.498 210.5 24.804 210.512 25.116C210.536 25.416 210.554 25.722 210.566 26.034C210.578 26.334 210.59 26.64 210.602 26.952V33H208.01V20.148H211.754L216.578 29.778H216.632C216.632 29.478 216.626 29.184 216.614 28.896C216.602 28.596 216.584 28.302 216.56 28.014C216.548 27.714 216.536 27.42 216.524 27.132C216.512 26.832 216.506 26.532 216.506 26.232V20.148H219.116V33ZM91.408 60H88.492V49.416H85.378V47.148H94.522V49.416H91.408V60ZM106.452 60H103.518V54.456H99.2345V60H96.3185V47.148H99.2345V52.188H103.518V47.148H106.452V60ZM116.347 60H109.291V47.148H116.347V49.38H112.207V52.206H116.059V54.438H112.207V57.75H116.347V60ZM127.086 47.148C128.634 47.148 129.774 47.508 130.506 48.228C131.25 48.936 131.622 49.914 131.622 51.162C131.622 51.726 131.544 52.266 131.388 52.782C131.232 53.286 130.974 53.742 130.614 54.15C130.254 54.546 129.774 54.858 129.174 55.086C128.586 55.314 127.86 55.428 126.996 55.428H125.988V60H123.072V47.148H127.086ZM126.996 49.38H125.988V53.196H126.726C127.11 53.196 127.452 53.13 127.752 52.998C128.052 52.866 128.286 52.656 128.454 52.368C128.622 52.08 128.706 51.708 128.706 51.252C128.706 50.616 128.562 50.148 128.274 49.848C127.998 49.536 127.572 49.38 126.996 49.38ZM133.742 60V47.148H136.658V57.75H141.428V60H133.742ZM150.843 60L150.105 56.94H145.947L145.191 60H142.023L146.127 47.094H149.871L153.993 60H150.843ZM148.629 51.666C148.557 51.414 148.485 51.15 148.413 50.874C148.341 50.598 148.269 50.31 148.197 50.01C148.137 49.71 148.077 49.404 148.017 49.092C147.969 49.404 147.909 49.716 147.837 50.028C147.765 50.328 147.693 50.616 147.621 50.892C147.561 51.168 147.495 51.426 147.423 51.666L146.595 54.654H149.475L148.629 51.666ZM158.446 52.44L160.75 47.148H163.882L159.886 54.996V60H156.988V55.086L152.992 47.148H156.16L158.446 52.44ZM177.195 56.436C177.195 57.192 177.027 57.852 176.691 58.416C176.355 58.98 175.845 59.418 175.161 59.73C174.489 60.03 173.637 60.18 172.605 60.18C172.125 60.18 171.681 60.15 171.273 60.09C170.865 60.03 170.481 59.946 170.121 59.838C169.761 59.718 169.401 59.574 169.041 59.406V56.868C169.653 57.132 170.277 57.378 170.913 57.606C171.561 57.822 172.173 57.93 172.749 57.93C173.121 57.93 173.421 57.87 173.649 57.75C173.877 57.63 174.045 57.468 174.153 57.264C174.261 57.06 174.315 56.826 174.315 56.562C174.315 56.238 174.225 55.962 174.045 55.734C173.877 55.506 173.625 55.296 173.289 55.104C172.953 54.9 172.539 54.696 172.047 54.492C171.687 54.336 171.333 54.156 170.985 53.952C170.637 53.748 170.325 53.502 170.049 53.214C169.773 52.914 169.551 52.554 169.383 52.134C169.227 51.714 169.149 51.21 169.149 50.622C169.149 49.854 169.329 49.2 169.689 48.66C170.049 48.108 170.553 47.688 171.201 47.4C171.849 47.112 172.605 46.968 173.469 46.968C174.177 46.968 174.831 47.046 175.431 47.202C176.043 47.358 176.625 47.58 177.177 47.868L176.259 49.992C175.731 49.752 175.227 49.566 174.747 49.434C174.279 49.302 173.823 49.236 173.379 49.236C173.079 49.236 172.827 49.29 172.623 49.398C172.419 49.506 172.263 49.656 172.155 49.848C172.059 50.04 172.011 50.268 172.011 50.532C172.011 50.832 172.089 51.09 172.245 51.306C172.413 51.51 172.671 51.714 173.019 51.918C173.367 52.11 173.811 52.344 174.351 52.62C174.951 52.92 175.461 53.238 175.881 53.574C176.313 53.898 176.637 54.288 176.853 54.744C177.081 55.2 177.195 55.764 177.195 56.436ZM184.221 60H181.305V49.416H178.191V47.148H187.335V49.416H184.221V60ZM199.921 53.556C199.921 54.552 199.807 55.458 199.579 56.274C199.351 57.078 199.003 57.774 198.535 58.362C198.067 58.95 197.461 59.4 196.717 59.712C195.985 60.024 195.115 60.18 194.107 60.18C193.111 60.18 192.247 60.024 191.515 59.712C190.783 59.388 190.177 58.938 189.697 58.362C189.229 57.774 188.875 57.072 188.635 56.256C188.407 55.44 188.293 54.534 188.293 53.538C188.293 52.206 188.497 51.048 188.905 50.064C189.325 49.08 189.967 48.318 190.831 47.778C191.695 47.226 192.793 46.95 194.125 46.95C195.469 46.95 196.567 47.226 197.419 47.778C198.271 48.318 198.901 49.086 199.309 50.082C199.717 51.066 199.921 52.224 199.921 53.556ZM191.353 53.556C191.353 54.456 191.443 55.23 191.623 55.878C191.815 56.526 192.115 57.024 192.523 57.372C192.931 57.72 193.459 57.894 194.107 57.894C194.767 57.894 195.295 57.72 195.691 57.372C196.099 57.024 196.393 56.526 196.573 55.878C196.765 55.23 196.861 54.456 196.861 53.556C196.861 52.2 196.645 51.138 196.213 50.37C195.793 49.602 195.097 49.218 194.125 49.218C193.465 49.218 192.931 49.392 192.523 49.74C192.115 50.088 191.815 50.586 191.623 51.234C191.443 51.882 191.353 52.656 191.353 53.556ZM206.023 47.148C207.115 47.148 208.021 47.292 208.741 47.58C209.461 47.856 209.995 48.282 210.343 48.858C210.703 49.422 210.883 50.136 210.883 51C210.883 51.588 210.787 52.104 210.595 52.548C210.415 52.98 210.163 53.352 209.839 53.664C209.515 53.964 209.149 54.21 208.741 54.402L212.269 60H209.011L206.293 55.068H205.195V60H202.279V47.148H206.023ZM205.897 49.38H205.195V52.854H205.915C206.359 52.854 206.731 52.788 207.031 52.656C207.331 52.524 207.559 52.326 207.715 52.062C207.871 51.786 207.949 51.456 207.949 51.072C207.949 50.664 207.877 50.34 207.733 50.1C207.589 49.848 207.367 49.668 207.067 49.56C206.767 49.44 206.377 49.38 205.897 49.38ZM220.638 60H213.582V47.148H220.638V49.38H216.498V52.206H220.35V54.438H216.498V57.75H220.638V60Z" fill="white"/>
<mask id="mask0_2_16" style="mask-type:alpha" maskUnits="userSpaceOnUse" x="20" y="15" width="50" height="50">
<circle cx="45" cy="40" r="25" fill="#5778C5"/>
</mask>
<g mask="url(#mask0_2_16)">
<path d="M53.4207 38.206L20.3084 73.3526C20.3097 73.3598 20.3121 73.3659 20.3133 73.3733C21.3288 77.1899 24.8148 80 28.9518 80C30.6056 80 32.1583 79.5529 33.4899 78.768L33.5956 78.706L70.8697 57.1973L53.4224 38.2056" fill="#EB3131"/>
<path d="M86.9226 32.2223L86.8909 32.2006L70.7985 22.8716L52.6684 39.0046L70.8615 57.1953L86.8689 47.9592C89.6753 46.4441 91.5806 43.4855 91.5806 40.0737C91.5806 36.6864 89.7012 33.7424 86.9226 32.2223Z" fill="#F6B60B"/>
<path d="M20.3037 6.64505C20.1046 7.3791 20 8.14798 20 8.94641V71.0536C20 71.8505 20.1034 72.622 20.3049 73.3535L54.5604 39.105L20.3049 6.64593" fill="#5778C5"/>
<path d="M53.6657 40L70.8057 22.8651L33.5736 1.27837C32.2203 0.467804 30.6408 0 28.9506 0C24.8136 0 21.3229 2.81527 20.3072 6.63623C20.306 6.63996 20.3049 6.64267 20.3049 6.64593L53.6657 40Z" fill="#3BAD49"/>
</g>
</g>
<defs>
<clipPath id="clip0_2_16">
<rect width="260" height="80" fill="white"/>
</clipPath>
</defs>
</svg>
