<svg width="260" height="80" viewBox="0 0 260 80" fill="none" xmlns="http://www.w3.org/2000/svg">
<rect width="260" height="80" fill="#485A6C"/>
<path d="M96.138 25.782H101.124V32.442C100.5 32.67 99.816 32.85 99.072 32.982C98.328 33.114 97.518 33.18 96.642 33.18C95.466 33.18 94.446 32.928 93.582 32.424C92.73 31.92 92.07 31.176 91.602 30.192C91.146 29.208 90.918 27.996 90.918 26.556C90.918 25.212 91.158 24.048 91.638 23.064C92.13 22.08 92.844 21.318 93.78 20.778C94.728 20.238 95.886 19.968 97.254 19.968C97.95 19.968 98.622 20.04 99.27 20.184C99.918 20.328 100.494 20.52 100.998 20.76L100.062 22.938C99.654 22.734 99.216 22.566 98.748 22.434C98.28 22.302 97.782 22.236 97.254 22.236C96.522 22.236 95.904 22.416 95.4 22.776C94.908 23.136 94.536 23.646 94.284 24.306C94.044 24.954 93.924 25.722 93.924 26.61C93.924 27.45 94.032 28.194 94.248 28.842C94.464 29.49 94.788 30 95.22 30.372C95.652 30.732 96.198 30.912 96.858 30.912C97.05 30.912 97.236 30.906 97.416 30.894C97.596 30.87 97.764 30.846 97.92 30.822C98.088 30.786 98.232 30.756 98.352 30.732V28.05H96.138V25.782ZM110.871 33H103.815V20.148H110.871V22.38H106.731V25.206H110.583V27.438H106.731V30.75H110.871V33ZM118.187 33H115.271V22.416H112.157V20.148H121.301V22.416H118.187V33ZM132.514 33H126.628V31.452L128.122 30.732V22.416L126.628 21.696V20.148H132.514V21.696L131.038 22.416V30.732L132.514 31.452V33ZM139.474 33H136.558V22.416H133.444V20.148H142.588V22.416H139.474V33ZM159.903 26.556C159.903 27.552 159.789 28.458 159.561 29.274C159.333 30.078 158.985 30.774 158.517 31.362C158.049 31.95 157.443 32.4 156.699 32.712C155.967 33.024 155.097 33.18 154.089 33.18C153.093 33.18 152.229 33.024 151.497 32.712C150.765 32.388 150.159 31.938 149.679 31.362C149.211 30.774 148.857 30.072 148.617 29.256C148.389 28.44 148.275 27.534 148.275 26.538C148.275 25.206 148.479 24.048 148.887 23.064C149.307 22.08 149.949 21.318 150.813 20.778C151.677 20.226 152.775 19.95 154.107 19.95C155.451 19.95 156.549 20.226 157.401 20.778C158.253 21.318 158.883 22.086 159.291 23.082C159.699 24.066 159.903 25.224 159.903 26.556ZM151.335 26.556C151.335 27.456 151.425 28.23 151.605 28.878C151.797 29.526 152.097 30.024 152.505 30.372C152.913 30.72 153.441 30.894 154.089 30.894C154.749 30.894 155.277 30.72 155.673 30.372C156.081 30.024 156.375 29.526 156.555 28.878C156.747 28.23 156.843 27.456 156.843 26.556C156.843 25.2 156.627 24.138 156.195 23.37C155.775 22.602 155.079 22.218 154.107 22.218C153.447 22.218 152.913 22.392 152.505 22.74C152.097 23.088 151.797 23.586 151.605 24.234C151.425 24.882 151.335 25.656 151.335 26.556ZM173.368 33H169.606L164.764 23.28H164.692C164.704 23.58 164.716 23.886 164.728 24.198C164.74 24.498 164.752 24.804 164.764 25.116C164.788 25.416 164.806 25.722 164.818 26.034C164.83 26.334 164.842 26.64 164.854 26.952V33H162.262V20.148H166.006L170.83 29.778H170.884C170.884 29.478 170.878 29.184 170.866 28.896C170.854 28.596 170.836 28.302 170.812 28.014C170.8 27.714 170.788 27.42 170.776 27.132C170.764 26.832 170.758 26.532 170.758 26.232V20.148H173.368V33ZM95.436 47.148C96.984 47.148 98.124 47.508 98.856 48.228C99.6 48.936 99.972 49.914 99.972 51.162C99.972 51.726 99.894 52.266 99.738 52.782C99.582 53.286 99.324 53.742 98.964 54.15C98.604 54.546 98.124 54.858 97.524 55.086C96.936 55.314 96.21 55.428 95.346 55.428H94.338V60H91.422V47.148H95.436ZM95.346 49.38H94.338V53.196H95.076C95.46 53.196 95.802 53.13 96.102 52.998C96.402 52.866 96.636 52.656 96.804 52.368C96.972 52.08 97.056 51.708 97.056 51.252C97.056 50.616 96.912 50.148 96.624 49.848C96.348 49.536 95.922 49.38 95.346 49.38ZM102.092 60V47.148H105.008V57.75H109.778V60H102.092ZM119.193 60L118.455 56.94H114.297L113.541 60H110.373L114.477 47.094H118.221L122.343 60H119.193ZM116.979 51.666C116.907 51.414 116.835 51.15 116.763 50.874C116.691 50.598 116.619 50.31 116.547 50.01C116.487 49.71 116.427 49.404 116.367 49.092C116.319 49.404 116.259 49.716 116.187 50.028C116.115 50.328 116.043 50.616 115.971 50.892C115.911 51.168 115.845 51.426 115.773 51.666L114.945 54.654H117.825L116.979 51.666ZM126.796 52.44L129.1 47.148H132.232L128.236 54.996V60H125.338V55.086L121.342 47.148H124.51L126.796 52.44ZM145.545 56.436C145.545 57.192 145.377 57.852 145.041 58.416C144.705 58.98 144.195 59.418 143.511 59.73C142.839 60.03 141.987 60.18 140.955 60.18C140.475 60.18 140.031 60.15 139.623 60.09C139.215 60.03 138.831 59.946 138.471 59.838C138.111 59.718 137.751 59.574 137.391 59.406V56.868C138.003 57.132 138.627 57.378 139.263 57.606C139.911 57.822 140.523 57.93 141.099 57.93C141.471 57.93 141.771 57.87 141.999 57.75C142.227 57.63 142.395 57.468 142.503 57.264C142.611 57.06 142.665 56.826 142.665 56.562C142.665 56.238 142.575 55.962 142.395 55.734C142.227 55.506 141.975 55.296 141.639 55.104C141.303 54.9 140.889 54.696 140.397 54.492C140.037 54.336 139.683 54.156 139.335 53.952C138.987 53.748 138.675 53.502 138.399 53.214C138.123 52.914 137.901 52.554 137.733 52.134C137.577 51.714 137.499 51.21 137.499 50.622C137.499 49.854 137.679 49.2 138.039 48.66C138.399 48.108 138.903 47.688 139.551 47.4C140.199 47.112 140.955 46.968 141.819 46.968C142.527 46.968 143.181 47.046 143.781 47.202C144.393 47.358 144.975 47.58 145.527 47.868L144.609 49.992C144.081 49.752 143.577 49.566 143.097 49.434C142.629 49.302 142.173 49.236 141.729 49.236C141.429 49.236 141.177 49.29 140.973 49.398C140.769 49.506 140.613 49.656 140.505 49.848C140.409 50.04 140.361 50.268 140.361 50.532C140.361 50.832 140.439 51.09 140.595 51.306C140.763 51.51 141.021 51.714 141.369 51.918C141.717 52.11 142.161 52.344 142.701 52.62C143.301 52.92 143.811 53.238 144.231 53.574C144.663 53.898 144.987 54.288 145.203 54.744C145.431 55.2 145.545 55.764 145.545 56.436ZM152.57 60H149.654V49.416H146.54V47.148H155.684V49.416H152.57V60ZM168.271 53.556C168.271 54.552 168.157 55.458 167.929 56.274C167.701 57.078 167.353 57.774 166.885 58.362C166.417 58.95 165.811 59.4 165.067 59.712C164.335 60.024 163.465 60.18 162.457 60.18C161.461 60.18 160.597 60.024 159.865 59.712C159.133 59.388 158.527 58.938 158.047 58.362C157.579 57.774 157.225 57.072 156.985 56.256C156.757 55.44 156.643 54.534 156.643 53.538C156.643 52.206 156.847 51.048 157.255 50.064C157.675 49.08 158.317 48.318 159.181 47.778C160.045 47.226 161.143 46.95 162.475 46.95C163.819 46.95 164.917 47.226 165.769 47.778C166.621 48.318 167.251 49.086 167.659 50.082C168.067 51.066 168.271 52.224 168.271 53.556ZM159.703 53.556C159.703 54.456 159.793 55.23 159.973 55.878C160.165 56.526 160.465 57.024 160.873 57.372C161.281 57.72 161.809 57.894 162.457 57.894C163.117 57.894 163.645 57.72 164.041 57.372C164.449 57.024 164.743 56.526 164.923 55.878C165.115 55.23 165.211 54.456 165.211 53.556C165.211 52.2 164.995 51.138 164.563 50.37C164.143 49.602 163.447 49.218 162.475 49.218C161.815 49.218 161.281 49.392 160.873 49.74C160.465 50.088 160.165 50.586 159.973 51.234C159.793 51.882 159.703 52.656 159.703 53.556ZM174.373 47.148C175.465 47.148 176.371 47.292 177.091 47.58C177.811 47.856 178.345 48.282 178.693 48.858C179.053 49.422 179.233 50.136 179.233 51C179.233 51.588 179.137 52.104 178.945 52.548C178.765 52.98 178.513 53.352 178.189 53.664C177.865 53.964 177.499 54.21 177.091 54.402L180.619 60H177.361L174.643 55.068H173.545V60H170.629V47.148H174.373ZM174.247 49.38H173.545V52.854H174.265C174.709 52.854 175.081 52.788 175.381 52.656C175.681 52.524 175.909 52.326 176.065 52.062C176.221 51.786 176.299 51.456 176.299 51.072C176.299 50.664 176.227 50.34 176.083 50.1C175.939 49.848 175.717 49.668 175.417 49.56C175.117 49.44 174.727 49.38 174.247 49.38ZM188.988 60H181.932V47.148H188.988V49.38H184.848V52.206H188.7V54.438H184.848V57.75H188.988V60Z" fill="white"/>
<mask id="mask0_1_131" style="mask-type:alpha" maskUnits="userSpaceOnUse" x="20" y="15" width="50" height="50">
<circle cx="45" cy="40" r="25" fill="#5778C5"/>
</mask>
<g mask="url(#mask0_1_131)">
<path d="M53.4207 38.206L20.3084 73.3526C20.3097 73.3598 20.3121 73.3659 20.3133 73.3733C21.3288 77.1899 24.8148 80 28.9518 80C30.6056 80 32.1583 79.5529 33.4899 78.768L33.5956 78.706L70.8697 57.1973L53.4224 38.2056" fill="#EB3131"/>
<path d="M86.9226 32.2223L86.8909 32.2006L70.7985 22.8716L52.6684 39.0046L70.8615 57.1953L86.8689 47.9592C89.6753 46.4441 91.5806 43.4855 91.5806 40.0737C91.5806 36.6864 89.7012 33.7424 86.9226 32.2223Z" fill="#F6B60B"/>
<path d="M20.3037 6.64505C20.1046 7.3791 20 8.14798 20 8.94641V71.0536C20 71.8505 20.1034 72.622 20.3049 73.3535L54.5604 39.1051L20.3049 6.64593" fill="#5778C5"/>
<path d="M53.6657 40L70.8057 22.8651L33.5736 1.27837C32.2203 0.467804 30.6408 0 28.9506 0C24.8136 0 21.3229 2.81527 20.3072 6.63623C20.306 6.63996 20.3049 6.64267 20.3049 6.64593L53.6657 40Z" fill="#3BAD49"/>
</g>
</svg>
