<svg width="260" height="80" viewBox="0 0 260 80" fill="none" xmlns="http://www.w3.org/2000/svg">
<rect width="260" height="80" fill="#434B57"/>
<path d="M116.138 26.782H121.124V33.442C120.5 33.67 119.816 33.85 119.072 33.982C118.328 34.114 117.518 34.18 116.642 34.18C115.466 34.18 114.446 33.928 113.582 33.424C112.73 32.92 112.07 32.176 111.602 31.192C111.146 30.208 110.918 28.996 110.918 27.556C110.918 26.212 111.158 25.048 111.638 24.064C112.13 23.08 112.844 22.318 113.78 21.778C114.728 21.238 115.886 20.968 117.254 20.968C117.95 20.968 118.622 21.04 119.27 21.184C119.918 21.328 120.494 21.52 120.998 21.76L120.062 23.938C119.654 23.734 119.216 23.566 118.748 23.434C118.28 23.302 117.782 23.236 117.254 23.236C116.522 23.236 115.904 23.416 115.4 23.776C114.908 24.136 114.536 24.646 114.284 25.306C114.044 25.954 113.924 26.722 113.924 27.61C113.924 28.45 114.032 29.194 114.248 29.842C114.464 30.49 114.788 31 115.22 31.372C115.652 31.732 116.198 31.912 116.858 31.912C117.05 31.912 117.236 31.906 117.416 31.894C117.596 31.87 117.764 31.846 117.92 31.822C118.088 31.786 118.232 31.756 118.352 31.732V29.05H116.138V26.782ZM130.871 34H123.815V21.148H130.871V23.38H126.731V26.206H130.583V28.438H126.731V31.75H130.871V34ZM138.187 34H135.271V23.416H132.157V21.148H141.301V23.416H138.187V34ZM152.514 34H146.628V32.452L148.122 31.732V23.416L146.628 22.696V21.148H152.514V22.696L151.038 23.416V31.732L152.514 32.452V34ZM159.474 34H156.558V23.416H153.444V21.148H162.588V23.416H159.474V34ZM179.903 27.556C179.903 28.552 179.789 29.458 179.561 30.274C179.333 31.078 178.985 31.774 178.517 32.362C178.049 32.95 177.443 33.4 176.699 33.712C175.967 34.024 175.097 34.18 174.089 34.18C173.093 34.18 172.229 34.024 171.497 33.712C170.765 33.388 170.159 32.938 169.679 32.362C169.211 31.774 168.857 31.072 168.617 30.256C168.389 29.44 168.275 28.534 168.275 27.538C168.275 26.206 168.479 25.048 168.887 24.064C169.307 23.08 169.949 22.318 170.813 21.778C171.677 21.226 172.775 20.95 174.107 20.95C175.451 20.95 176.549 21.226 177.401 21.778C178.253 22.318 178.883 23.086 179.291 24.082C179.699 25.066 179.903 26.224 179.903 27.556ZM171.335 27.556C171.335 28.456 171.425 29.23 171.605 29.878C171.797 30.526 172.097 31.024 172.505 31.372C172.913 31.72 173.441 31.894 174.089 31.894C174.749 31.894 175.277 31.72 175.673 31.372C176.081 31.024 176.375 30.526 176.555 29.878C176.747 29.23 176.843 28.456 176.843 27.556C176.843 26.2 176.627 25.138 176.195 24.37C175.775 23.602 175.079 23.218 174.107 23.218C173.447 23.218 172.913 23.392 172.505 23.74C172.097 24.088 171.797 24.586 171.605 25.234C171.425 25.882 171.335 26.656 171.335 27.556ZM193.368 34H189.606L184.764 24.28H184.692C184.704 24.58 184.716 24.886 184.728 25.198C184.74 25.498 184.752 25.804 184.764 26.116C184.788 26.416 184.806 26.722 184.818 27.034C184.83 27.334 184.842 27.64 184.854 27.952V34H182.262V21.148H186.006L190.83 30.778H190.884C190.884 30.478 190.878 30.184 190.866 29.896C190.854 29.596 190.836 29.302 190.812 29.014C190.8 28.714 190.788 28.42 190.776 28.132C190.764 27.832 190.758 27.532 190.758 27.232V21.148H193.368V34ZM115.436 46.148C116.984 46.148 118.124 46.508 118.856 47.228C119.6 47.936 119.972 48.914 119.972 50.162C119.972 50.726 119.894 51.266 119.738 51.782C119.582 52.286 119.324 52.742 118.964 53.15C118.604 53.546 118.124 53.858 117.524 54.086C116.936 54.314 116.21 54.428 115.346 54.428H114.338V59H111.422V46.148H115.436ZM115.346 48.38H114.338V52.196H115.076C115.46 52.196 115.802 52.13 116.102 51.998C116.402 51.866 116.636 51.656 116.804 51.368C116.972 51.08 117.056 50.708 117.056 50.252C117.056 49.616 116.912 49.148 116.624 48.848C116.348 48.536 115.922 48.38 115.346 48.38ZM122.092 59V46.148H125.008V56.75H129.778V59H122.092ZM139.193 59L138.455 55.94H134.297L133.541 59H130.373L134.477 46.094H138.221L142.343 59H139.193ZM136.979 50.666C136.907 50.414 136.835 50.15 136.763 49.874C136.691 49.598 136.619 49.31 136.547 49.01C136.487 48.71 136.427 48.404 136.367 48.092C136.319 48.404 136.259 48.716 136.187 49.028C136.115 49.328 136.043 49.616 135.971 49.892C135.911 50.168 135.845 50.426 135.773 50.666L134.945 53.654H137.825L136.979 50.666ZM146.796 51.44L149.1 46.148H152.232L148.236 53.996V59H145.338V54.086L141.342 46.148H144.51L146.796 51.44ZM165.545 55.436C165.545 56.192 165.377 56.852 165.041 57.416C164.705 57.98 164.195 58.418 163.511 58.73C162.839 59.03 161.987 59.18 160.955 59.18C160.475 59.18 160.031 59.15 159.623 59.09C159.215 59.03 158.831 58.946 158.471 58.838C158.111 58.718 157.751 58.574 157.391 58.406V55.868C158.003 56.132 158.627 56.378 159.263 56.606C159.911 56.822 160.523 56.93 161.099 56.93C161.471 56.93 161.771 56.87 161.999 56.75C162.227 56.63 162.395 56.468 162.503 56.264C162.611 56.06 162.665 55.826 162.665 55.562C162.665 55.238 162.575 54.962 162.395 54.734C162.227 54.506 161.975 54.296 161.639 54.104C161.303 53.9 160.889 53.696 160.397 53.492C160.037 53.336 159.683 53.156 159.335 52.952C158.987 52.748 158.675 52.502 158.399 52.214C158.123 51.914 157.901 51.554 157.733 51.134C157.577 50.714 157.499 50.21 157.499 49.622C157.499 48.854 157.679 48.2 158.039 47.66C158.399 47.108 158.903 46.688 159.551 46.4C160.199 46.112 160.955 45.968 161.819 45.968C162.527 45.968 163.181 46.046 163.781 46.202C164.393 46.358 164.975 46.58 165.527 46.868L164.609 48.992C164.081 48.752 163.577 48.566 163.097 48.434C162.629 48.302 162.173 48.236 161.729 48.236C161.429 48.236 161.177 48.29 160.973 48.398C160.769 48.506 160.613 48.656 160.505 48.848C160.409 49.04 160.361 49.268 160.361 49.532C160.361 49.832 160.439 50.09 160.595 50.306C160.763 50.51 161.021 50.714 161.369 50.918C161.717 51.11 162.161 51.344 162.701 51.62C163.301 51.92 163.811 52.238 164.231 52.574C164.663 52.898 164.987 53.288 165.203 53.744C165.431 54.2 165.545 54.764 165.545 55.436ZM172.57 59H169.654V48.416H166.54V46.148H175.684V48.416H172.57V59ZM188.271 52.556C188.271 53.552 188.157 54.458 187.929 55.274C187.701 56.078 187.353 56.774 186.885 57.362C186.417 57.95 185.811 58.4 185.067 58.712C184.335 59.024 183.465 59.18 182.457 59.18C181.461 59.18 180.597 59.024 179.865 58.712C179.133 58.388 178.527 57.938 178.047 57.362C177.579 56.774 177.225 56.072 176.985 55.256C176.757 54.44 176.643 53.534 176.643 52.538C176.643 51.206 176.847 50.048 177.255 49.064C177.675 48.08 178.317 47.318 179.181 46.778C180.045 46.226 181.143 45.95 182.475 45.95C183.819 45.95 184.917 46.226 185.769 46.778C186.621 47.318 187.251 48.086 187.659 49.082C188.067 50.066 188.271 51.224 188.271 52.556ZM179.703 52.556C179.703 53.456 179.793 54.23 179.973 54.878C180.165 55.526 180.465 56.024 180.873 56.372C181.281 56.72 181.809 56.894 182.457 56.894C183.117 56.894 183.645 56.72 184.041 56.372C184.449 56.024 184.743 55.526 184.923 54.878C185.115 54.23 185.211 53.456 185.211 52.556C185.211 51.2 184.995 50.138 184.563 49.37C184.143 48.602 183.447 48.218 182.475 48.218C181.815 48.218 181.281 48.392 180.873 48.74C180.465 49.088 180.165 49.586 179.973 50.234C179.793 50.882 179.703 51.656 179.703 52.556ZM194.373 46.148C195.465 46.148 196.371 46.292 197.091 46.58C197.811 46.856 198.345 47.282 198.693 47.858C199.053 48.422 199.233 49.136 199.233 50C199.233 50.588 199.137 51.104 198.945 51.548C198.765 51.98 198.513 52.352 198.189 52.664C197.865 52.964 197.499 53.21 197.091 53.402L200.619 59H197.361L194.643 54.068H193.545V59H190.629V46.148H194.373ZM194.247 48.38H193.545V51.854H194.265C194.709 51.854 195.081 51.788 195.381 51.656C195.681 51.524 195.909 51.326 196.065 51.062C196.221 50.786 196.299 50.456 196.299 50.072C196.299 49.664 196.227 49.34 196.083 49.1C195.939 48.848 195.717 48.668 195.417 48.56C195.117 48.44 194.727 48.38 194.247 48.38ZM208.988 59H201.932V46.148H208.988V48.38H204.848V51.206H208.7V53.438H204.848V56.75H208.988V59Z" fill="white"/>
<rect width="90" height="80" fill="black"/>
<mask id="mask0_1_96" style="mask-type:alpha" maskUnits="userSpaceOnUse" x="20" y="15" width="50" height="50">
<circle cx="45" cy="40" r="25" fill="#5778C5"/>
</mask>
<g mask="url(#mask0_1_96)">
<path d="M53.4207 38.206L20.3084 73.3526C20.3097 73.3598 20.3121 73.3659 20.3133 73.3733C21.3288 77.1899 24.8148 80 28.9518 80C30.6056 80 32.1583 79.5529 33.4899 78.768L33.5956 78.706L70.8697 57.1973L53.4224 38.2056" fill="#EB3131"/>
<path d="M86.9226 32.2223L86.8909 32.2006L70.7985 22.8716L52.6684 39.0046L70.8615 57.1953L86.8689 47.9592C89.6753 46.4441 91.5806 43.4855 91.5806 40.0737C91.5806 36.6864 89.7012 33.7424 86.9226 32.2223Z" fill="#F6B60B"/>
<path d="M20.3037 6.64505C20.1046 7.3791 20 8.14798 20 8.94641V71.0536C20 71.8505 20.1034 72.622 20.3049 73.3535L54.5604 39.1051L20.3049 6.64593" fill="#5778C5"/>
<path d="M53.6657 40L70.8057 22.8651L33.5736 1.27837C32.2203 0.467804 30.6408 0 28.9506 0C24.8136 0 21.3229 2.81527 20.3072 6.63623C20.306 6.63996 20.3049 6.64267 20.3049 6.64593L53.6657 40Z" fill="#3BAD49"/>
</g>
</svg>
