<svg width="260" height="80" viewBox="0 0 260 80" fill="none" xmlns="http://www.w3.org/2000/svg">
<rect width="260" height="80" fill="#485A6C"/>
<path d="M116.138 25.782H121.124V32.442C120.5 32.67 119.816 32.85 119.072 32.982C118.328 33.114 117.518 33.18 116.642 33.18C115.466 33.18 114.446 32.928 113.582 32.424C112.73 31.92 112.07 31.176 111.602 30.192C111.146 29.208 110.918 27.996 110.918 26.556C110.918 25.212 111.158 24.048 111.638 23.064C112.13 22.08 112.844 21.318 113.78 20.778C114.728 20.238 115.886 19.968 117.254 19.968C117.95 19.968 118.622 20.04 119.27 20.184C119.918 20.328 120.494 20.52 120.998 20.76L120.062 22.938C119.654 22.734 119.216 22.566 118.748 22.434C118.28 22.302 117.782 22.236 117.254 22.236C116.522 22.236 115.904 22.416 115.4 22.776C114.908 23.136 114.536 23.646 114.284 24.306C114.044 24.954 113.924 25.722 113.924 26.61C113.924 27.45 114.032 28.194 114.248 28.842C114.464 29.49 114.788 30 115.22 30.372C115.652 30.732 116.198 30.912 116.858 30.912C117.05 30.912 117.236 30.906 117.416 30.894C117.596 30.87 117.764 30.846 117.92 30.822C118.088 30.786 118.232 30.756 118.352 30.732V28.05H116.138V25.782ZM130.871 33H123.815V20.148H130.871V22.38H126.731V25.206H130.583V27.438H126.731V30.75H130.871V33ZM138.187 33H135.271V22.416H132.157V20.148H141.301V22.416H138.187V33ZM152.514 33H146.628V31.452L148.122 30.732V22.416L146.628 21.696V20.148H152.514V21.696L151.038 22.416V30.732L152.514 31.452V33ZM159.474 33H156.558V22.416H153.444V20.148H162.588V22.416H159.474V33ZM179.903 26.556C179.903 27.552 179.789 28.458 179.561 29.274C179.333 30.078 178.985 30.774 178.517 31.362C178.049 31.95 177.443 32.4 176.699 32.712C175.967 33.024 175.097 33.18 174.089 33.18C173.093 33.18 172.229 33.024 171.497 32.712C170.765 32.388 170.159 31.938 169.679 31.362C169.211 30.774 168.857 30.072 168.617 29.256C168.389 28.44 168.275 27.534 168.275 26.538C168.275 25.206 168.479 24.048 168.887 23.064C169.307 22.08 169.949 21.318 170.813 20.778C171.677 20.226 172.775 19.95 174.107 19.95C175.451 19.95 176.549 20.226 177.401 20.778C178.253 21.318 178.883 22.086 179.291 23.082C179.699 24.066 179.903 25.224 179.903 26.556ZM171.335 26.556C171.335 27.456 171.425 28.23 171.605 28.878C171.797 29.526 172.097 30.024 172.505 30.372C172.913 30.72 173.441 30.894 174.089 30.894C174.749 30.894 175.277 30.72 175.673 30.372C176.081 30.024 176.375 29.526 176.555 28.878C176.747 28.23 176.843 27.456 176.843 26.556C176.843 25.2 176.627 24.138 176.195 23.37C175.775 22.602 175.079 22.218 174.107 22.218C173.447 22.218 172.913 22.392 172.505 22.74C172.097 23.088 171.797 23.586 171.605 24.234C171.425 24.882 171.335 25.656 171.335 26.556ZM193.368 33H189.606L184.764 23.28H184.692C184.704 23.58 184.716 23.886 184.728 24.198C184.74 24.498 184.752 24.804 184.764 25.116C184.788 25.416 184.806 25.722 184.818 26.034C184.83 26.334 184.842 26.64 184.854 26.952V33H182.262V20.148H186.006L190.83 29.778H190.884C190.884 29.478 190.878 29.184 190.866 28.896C190.854 28.596 190.836 28.302 190.812 28.014C190.8 27.714 190.788 27.42 190.776 27.132C190.764 26.832 190.758 26.532 190.758 26.232V20.148H193.368V33ZM115.436 47.148C116.984 47.148 118.124 47.508 118.856 48.228C119.6 48.936 119.972 49.914 119.972 51.162C119.972 51.726 119.894 52.266 119.738 52.782C119.582 53.286 119.324 53.742 118.964 54.15C118.604 54.546 118.124 54.858 117.524 55.086C116.936 55.314 116.21 55.428 115.346 55.428H114.338V60H111.422V47.148H115.436ZM115.346 49.38H114.338V53.196H115.076C115.46 53.196 115.802 53.13 116.102 52.998C116.402 52.866 116.636 52.656 116.804 52.368C116.972 52.08 117.056 51.708 117.056 51.252C117.056 50.616 116.912 50.148 116.624 49.848C116.348 49.536 115.922 49.38 115.346 49.38ZM122.092 60V47.148H125.008V57.75H129.778V60H122.092ZM139.193 60L138.455 56.94H134.297L133.541 60H130.373L134.477 47.094H138.221L142.343 60H139.193ZM136.979 51.666C136.907 51.414 136.835 51.15 136.763 50.874C136.691 50.598 136.619 50.31 136.547 50.01C136.487 49.71 136.427 49.404 136.367 49.092C136.319 49.404 136.259 49.716 136.187 50.028C136.115 50.328 136.043 50.616 135.971 50.892C135.911 51.168 135.845 51.426 135.773 51.666L134.945 54.654H137.825L136.979 51.666ZM146.796 52.44L149.1 47.148H152.232L148.236 54.996V60H145.338V55.086L141.342 47.148H144.51L146.796 52.44ZM165.545 56.436C165.545 57.192 165.377 57.852 165.041 58.416C164.705 58.98 164.195 59.418 163.511 59.73C162.839 60.03 161.987 60.18 160.955 60.18C160.475 60.18 160.031 60.15 159.623 60.09C159.215 60.03 158.831 59.946 158.471 59.838C158.111 59.718 157.751 59.574 157.391 59.406V56.868C158.003 57.132 158.627 57.378 159.263 57.606C159.911 57.822 160.523 57.93 161.099 57.93C161.471 57.93 161.771 57.87 161.999 57.75C162.227 57.63 162.395 57.468 162.503 57.264C162.611 57.06 162.665 56.826 162.665 56.562C162.665 56.238 162.575 55.962 162.395 55.734C162.227 55.506 161.975 55.296 161.639 55.104C161.303 54.9 160.889 54.696 160.397 54.492C160.037 54.336 159.683 54.156 159.335 53.952C158.987 53.748 158.675 53.502 158.399 53.214C158.123 52.914 157.901 52.554 157.733 52.134C157.577 51.714 157.499 51.21 157.499 50.622C157.499 49.854 157.679 49.2 158.039 48.66C158.399 48.108 158.903 47.688 159.551 47.4C160.199 47.112 160.955 46.968 161.819 46.968C162.527 46.968 163.181 47.046 163.781 47.202C164.393 47.358 164.975 47.58 165.527 47.868L164.609 49.992C164.081 49.752 163.577 49.566 163.097 49.434C162.629 49.302 162.173 49.236 161.729 49.236C161.429 49.236 161.177 49.29 160.973 49.398C160.769 49.506 160.613 49.656 160.505 49.848C160.409 50.04 160.361 50.268 160.361 50.532C160.361 50.832 160.439 51.09 160.595 51.306C160.763 51.51 161.021 51.714 161.369 51.918C161.717 52.11 162.161 52.344 162.701 52.62C163.301 52.92 163.811 53.238 164.231 53.574C164.663 53.898 164.987 54.288 165.203 54.744C165.431 55.2 165.545 55.764 165.545 56.436ZM172.57 60H169.654V49.416H166.54V47.148H175.684V49.416H172.57V60ZM188.271 53.556C188.271 54.552 188.157 55.458 187.929 56.274C187.701 57.078 187.353 57.774 186.885 58.362C186.417 58.95 185.811 59.4 185.067 59.712C184.335 60.024 183.465 60.18 182.457 60.18C181.461 60.18 180.597 60.024 179.865 59.712C179.133 59.388 178.527 58.938 178.047 58.362C177.579 57.774 177.225 57.072 176.985 56.256C176.757 55.44 176.643 54.534 176.643 53.538C176.643 52.206 176.847 51.048 177.255 50.064C177.675 49.08 178.317 48.318 179.181 47.778C180.045 47.226 181.143 46.95 182.475 46.95C183.819 46.95 184.917 47.226 185.769 47.778C186.621 48.318 187.251 49.086 187.659 50.082C188.067 51.066 188.271 52.224 188.271 53.556ZM179.703 53.556C179.703 54.456 179.793 55.23 179.973 55.878C180.165 56.526 180.465 57.024 180.873 57.372C181.281 57.72 181.809 57.894 182.457 57.894C183.117 57.894 183.645 57.72 184.041 57.372C184.449 57.024 184.743 56.526 184.923 55.878C185.115 55.23 185.211 54.456 185.211 53.556C185.211 52.2 184.995 51.138 184.563 50.37C184.143 49.602 183.447 49.218 182.475 49.218C181.815 49.218 181.281 49.392 180.873 49.74C180.465 50.088 180.165 50.586 179.973 51.234C179.793 51.882 179.703 52.656 179.703 53.556ZM194.373 47.148C195.465 47.148 196.371 47.292 197.091 47.58C197.811 47.856 198.345 48.282 198.693 48.858C199.053 49.422 199.233 50.136 199.233 51C199.233 51.588 199.137 52.104 198.945 52.548C198.765 52.98 198.513 53.352 198.189 53.664C197.865 53.964 197.499 54.21 197.091 54.402L200.619 60H197.361L194.643 55.068H193.545V60H190.629V47.148H194.373ZM194.247 49.38H193.545V52.854H194.265C194.709 52.854 195.081 52.788 195.381 52.656C195.681 52.524 195.909 52.326 196.065 52.062C196.221 51.786 196.299 51.456 196.299 51.072C196.299 50.664 196.227 50.34 196.083 50.1C195.939 49.848 195.717 49.668 195.417 49.56C195.117 49.44 194.727 49.38 194.247 49.38ZM208.988 60H201.932V47.148H208.988V49.38H204.848V52.206H208.7V54.438H204.848V57.75H208.988V60Z" fill="white"/>
<rect width="90" height="80" fill="#1A1A1A"/>
<mask id="mask0_1_96" style="mask-type:alpha" maskUnits="userSpaceOnUse" x="20" y="15" width="50" height="50">
<circle cx="45" cy="40" r="25" fill="#5778C5"/>
</mask>
<g mask="url(#mask0_1_96)">
<path d="M53.4207 38.206L20.3084 73.3526C20.3097 73.3598 20.3121 73.3659 20.3133 73.3733C21.3288 77.1899 24.8148 80 28.9518 80C30.6056 80 32.1583 79.5529 33.4899 78.768L33.5956 78.706L70.8697 57.1973L53.4224 38.2056" fill="#EB3131"/>
<path d="M86.9226 32.2223L86.8909 32.2006L70.7985 22.8716L52.6684 39.0046L70.8615 57.1953L86.8689 47.9592C89.6753 46.4441 91.5806 43.4855 91.5806 40.0737C91.5806 36.6864 89.7012 33.7424 86.9226 32.2223Z" fill="#F6B60B"/>
<path d="M20.3037 6.64505C20.1046 7.3791 20 8.14798 20 8.94641V71.0536C20 71.8505 20.1034 72.622 20.3049 73.3535L54.5604 39.1051L20.3049 6.64593" fill="#5778C5"/>
<path d="M53.6657 40L70.8057 22.8651L33.5736 1.27837C32.2203 0.467804 30.6408 0 28.9506 0C24.8136 0 21.3229 2.81527 20.3072 6.63623C20.306 6.63996 20.3049 6.64267 20.3049 6.64593L53.6657 40Z" fill="#3BAD49"/>
</g>
</svg>
