<svg width="260" height="80" viewBox="0 0 260 80" fill="none" xmlns="http://www.w3.org/2000/svg">
<g clip-path="url(#clip0_2_33)">
<rect width="260" height="80" fill="#434B57"/>
<path d="M86.556 27.448C86.556 28.888 86.292 30.094 85.764 31.066C85.248 32.038 84.504 32.77 83.532 33.262C82.572 33.754 81.42 34 80.076 34H76.422V21.148H80.4C81.684 21.148 82.782 21.388 83.694 21.868C84.618 22.348 85.326 23.056 85.818 23.992C86.31 24.916 86.556 26.068 86.556 27.448ZM83.532 27.52C83.532 26.572 83.418 25.792 83.19 25.18C82.962 24.568 82.62 24.118 82.164 23.83C81.72 23.53 81.162 23.38 80.49 23.38H79.338V31.75H80.238C81.366 31.75 82.194 31.396 82.722 30.688C83.262 29.98 83.532 28.924 83.532 27.52ZM100.026 27.556C100.026 28.552 99.9125 29.458 99.6845 30.274C99.4565 31.078 99.1085 31.774 98.6405 32.362C98.1725 32.95 97.5665 33.4 96.8225 33.712C96.0905 34.024 95.2205 34.18 94.2125 34.18C93.2165 34.18 92.3525 34.024 91.6205 33.712C90.8885 33.388 90.2825 32.938 89.8025 32.362C89.3345 31.774 88.9805 31.072 88.7405 30.256C88.5125 29.44 88.3985 28.534 88.3985 27.538C88.3985 26.206 88.6025 25.048 89.0105 24.064C89.4305 23.08 90.0725 22.318 90.9365 21.778C91.8005 21.226 92.8985 20.95 94.2305 20.95C95.5745 20.95 96.6725 21.226 97.5245 21.778C98.3765 22.318 99.0065 23.086 99.4145 24.082C99.8225 25.066 100.026 26.224 100.026 27.556ZM91.4585 27.556C91.4585 28.456 91.5485 29.23 91.7285 29.878C91.9205 30.526 92.2205 31.024 92.6285 31.372C93.0365 31.72 93.5645 31.894 94.2125 31.894C94.8725 31.894 95.4005 31.72 95.7965 31.372C96.2045 31.024 96.4985 30.526 96.6785 29.878C96.8705 29.23 96.9665 28.456 96.9665 27.556C96.9665 26.2 96.7505 25.138 96.3185 24.37C95.8985 23.602 95.2025 23.218 94.2305 23.218C93.5705 23.218 93.0365 23.392 92.6285 23.74C92.2205 24.088 91.9205 24.586 91.7285 25.234C91.5485 25.882 91.4585 26.656 91.4585 27.556ZM117.653 21.148L114.611 34H111.227L109.805 27.25C109.781 27.118 109.745 26.92 109.697 26.656C109.649 26.392 109.595 26.104 109.535 25.792C109.487 25.48 109.439 25.186 109.391 24.91C109.355 24.622 109.325 24.4 109.301 24.244C109.289 24.4 109.259 24.622 109.211 24.91C109.163 25.186 109.109 25.48 109.049 25.792C109.001 26.092 108.953 26.38 108.905 26.656C108.857 26.92 108.815 27.124 108.779 27.268L107.357 34H103.973L100.931 21.148H103.775L105.197 28.168C105.233 28.372 105.281 28.624 105.341 28.924C105.401 29.212 105.461 29.518 105.521 29.842C105.581 30.154 105.635 30.46 105.683 30.76C105.731 31.06 105.767 31.318 105.791 31.534C105.827 31.306 105.869 31.048 105.917 30.76C105.977 30.46 106.031 30.154 106.079 29.842C106.139 29.53 106.193 29.242 106.241 28.978C106.301 28.702 106.349 28.48 106.385 28.312L107.951 21.148H110.651L112.181 28.348C112.217 28.504 112.259 28.72 112.307 28.996C112.367 29.26 112.427 29.548 112.487 29.86C112.547 30.172 112.601 30.478 112.649 30.778C112.697 31.066 112.739 31.318 112.775 31.534C112.811 31.234 112.865 30.88 112.937 30.472C113.009 30.052 113.087 29.632 113.171 29.212C113.255 28.792 113.327 28.444 113.387 28.168L114.809 21.148H117.653ZM130.313 34H126.551L121.709 24.28H121.637C121.649 24.58 121.661 24.886 121.673 25.198C121.685 25.498 121.697 25.804 121.709 26.116C121.733 26.416 121.751 26.722 121.763 27.034C121.775 27.334 121.787 27.64 121.799 27.952V34H119.207V21.148H122.951L127.775 30.778H127.829C127.829 30.478 127.823 30.184 127.811 29.896C127.799 29.596 127.781 29.302 127.757 29.014C127.745 28.714 127.733 28.42 127.721 28.132C127.709 27.832 127.703 27.532 127.703 27.232V21.148H130.313V34ZM133.164 34V21.148H136.08V31.75H140.85V34H133.164ZM153.657 27.556C153.657 28.552 153.543 29.458 153.315 30.274C153.087 31.078 152.739 31.774 152.271 32.362C151.803 32.95 151.197 33.4 150.453 33.712C149.721 34.024 148.851 34.18 147.843 34.18C146.847 34.18 145.983 34.024 145.251 33.712C144.519 33.388 143.913 32.938 143.433 32.362C142.965 31.774 142.611 31.072 142.371 30.256C142.143 29.44 142.029 28.534 142.029 27.538C142.029 26.206 142.233 25.048 142.641 24.064C143.061 23.08 143.703 22.318 144.567 21.778C145.431 21.226 146.529 20.95 147.861 20.95C149.205 20.95 150.303 21.226 151.155 21.778C152.007 22.318 152.637 23.086 153.045 24.082C153.453 25.066 153.657 26.224 153.657 27.556ZM145.089 27.556C145.089 28.456 145.179 29.23 145.359 29.878C145.551 30.526 145.851 31.024 146.259 31.372C146.667 31.72 147.195 31.894 147.843 31.894C148.503 31.894 149.031 31.72 149.427 31.372C149.835 31.024 150.129 30.526 150.309 29.878C150.501 29.23 150.597 28.456 150.597 27.556C150.597 26.2 150.381 25.138 149.949 24.37C149.529 23.602 148.833 23.218 147.861 23.218C147.201 23.218 146.667 23.392 146.259 23.74C145.851 24.088 145.551 24.586 145.359 25.234C145.179 25.882 145.089 26.656 145.089 27.556ZM163.08 34L162.342 30.94H158.184L157.428 34H154.26L158.364 21.094H162.108L166.23 34H163.08ZM160.866 25.666C160.794 25.414 160.722 25.15 160.65 24.874C160.578 24.598 160.506 24.31 160.434 24.01C160.374 23.71 160.314 23.404 160.254 23.092C160.206 23.404 160.146 23.716 160.074 24.028C160.002 24.328 159.93 24.616 159.858 24.892C159.798 25.168 159.732 25.426 159.66 25.666L158.832 28.654H161.712L160.866 25.666ZM177.786 27.448C177.786 28.888 177.522 30.094 176.994 31.066C176.478 32.038 175.734 32.77 174.762 33.262C173.802 33.754 172.65 34 171.306 34H167.652V21.148H171.63C172.914 21.148 174.012 21.388 174.924 21.868C175.848 22.348 176.556 23.056 177.048 23.992C177.54 24.916 177.786 26.068 177.786 27.448ZM174.762 27.52C174.762 26.572 174.648 25.792 174.42 25.18C174.192 24.568 173.85 24.118 173.394 23.83C172.95 23.53 172.392 23.38 171.72 23.38H170.568V31.75H171.468C172.596 31.75 173.424 31.396 173.952 30.688C174.492 29.98 174.762 28.924 174.762 27.52ZM195.651 27.556C195.651 28.552 195.537 29.458 195.309 30.274C195.081 31.078 194.733 31.774 194.265 32.362C193.797 32.95 193.191 33.4 192.447 33.712C191.715 34.024 190.845 34.18 189.837 34.18C188.841 34.18 187.977 34.024 187.245 33.712C186.513 33.388 185.907 32.938 185.427 32.362C184.959 31.774 184.605 31.072 184.365 30.256C184.137 29.44 184.023 28.534 184.023 27.538C184.023 26.206 184.227 25.048 184.635 24.064C185.055 23.08 185.697 22.318 186.561 21.778C187.425 21.226 188.523 20.95 189.855 20.95C191.199 20.95 192.297 21.226 193.149 21.778C194.001 22.318 194.631 23.086 195.039 24.082C195.447 25.066 195.651 26.224 195.651 27.556ZM187.083 27.556C187.083 28.456 187.173 29.23 187.353 29.878C187.545 30.526 187.845 31.024 188.253 31.372C188.661 31.72 189.189 31.894 189.837 31.894C190.497 31.894 191.025 31.72 191.421 31.372C191.829 31.024 192.123 30.526 192.303 29.878C192.495 29.23 192.591 28.456 192.591 27.556C192.591 26.2 192.375 25.138 191.943 24.37C191.523 23.602 190.827 23.218 189.855 23.218C189.195 23.218 188.661 23.392 188.253 23.74C187.845 24.088 187.545 24.586 187.353 25.234C187.173 25.882 187.083 26.656 187.083 27.556ZM209.116 34H205.354L200.512 24.28H200.44C200.452 24.58 200.464 24.886 200.476 25.198C200.488 25.498 200.5 25.804 200.512 26.116C200.536 26.416 200.554 26.722 200.566 27.034C200.578 27.334 200.59 27.64 200.602 27.952V34H198.01V21.148H201.754L206.578 30.778H206.632C206.632 30.478 206.626 30.184 206.614 29.896C206.602 29.596 206.584 29.302 206.56 29.014C206.548 28.714 206.536 28.42 206.524 28.132C206.512 27.832 206.506 27.532 206.506 27.232V21.148H209.116V34ZM81.408 59H78.492V48.416H75.378V46.148H84.522V48.416H81.408V59ZM96.4525 59H93.5185V53.456H89.2345V59H86.3185V46.148H89.2345V51.188H93.5185V46.148H96.4525V59ZM106.347 59H99.2911V46.148H106.347V48.38H102.207V51.206H106.059V53.438H102.207V56.75H106.347V59ZM117.086 46.148C118.634 46.148 119.774 46.508 120.506 47.228C121.25 47.936 121.622 48.914 121.622 50.162C121.622 50.726 121.544 51.266 121.388 51.782C121.232 52.286 120.974 52.742 120.614 53.15C120.254 53.546 119.774 53.858 119.174 54.086C118.586 54.314 117.86 54.428 116.996 54.428H115.988V59H113.072V46.148H117.086ZM116.996 48.38H115.988V52.196H116.726C117.11 52.196 117.452 52.13 117.752 51.998C118.052 51.866 118.286 51.656 118.454 51.368C118.622 51.08 118.706 50.708 118.706 50.252C118.706 49.616 118.562 49.148 118.274 48.848C117.998 48.536 117.572 48.38 116.996 48.38ZM123.742 59V46.148H126.658V56.75H131.428V59H123.742ZM140.843 59L140.105 55.94H135.947L135.191 59H132.023L136.127 46.094H139.871L143.993 59H140.843ZM138.629 50.666C138.557 50.414 138.485 50.15 138.413 49.874C138.341 49.598 138.269 49.31 138.197 49.01C138.137 48.71 138.077 48.404 138.017 48.092C137.969 48.404 137.909 48.716 137.837 49.028C137.765 49.328 137.693 49.616 137.621 49.892C137.561 50.168 137.495 50.426 137.423 50.666L136.595 53.654H139.475L138.629 50.666ZM148.446 51.44L150.75 46.148H153.882L149.886 53.996V59H146.988V54.086L142.992 46.148H146.16L148.446 51.44ZM167.195 55.436C167.195 56.192 167.027 56.852 166.691 57.416C166.355 57.98 165.845 58.418 165.161 58.73C164.489 59.03 163.637 59.18 162.605 59.18C162.125 59.18 161.681 59.15 161.273 59.09C160.865 59.03 160.481 58.946 160.121 58.838C159.761 58.718 159.401 58.574 159.041 58.406V55.868C159.653 56.132 160.277 56.378 160.913 56.606C161.561 56.822 162.173 56.93 162.749 56.93C163.121 56.93 163.421 56.87 163.649 56.75C163.877 56.63 164.045 56.468 164.153 56.264C164.261 56.06 164.315 55.826 164.315 55.562C164.315 55.238 164.225 54.962 164.045 54.734C163.877 54.506 163.625 54.296 163.289 54.104C162.953 53.9 162.539 53.696 162.047 53.492C161.687 53.336 161.333 53.156 160.985 52.952C160.637 52.748 160.325 52.502 160.049 52.214C159.773 51.914 159.551 51.554 159.383 51.134C159.227 50.714 159.149 50.21 159.149 49.622C159.149 48.854 159.329 48.2 159.689 47.66C160.049 47.108 160.553 46.688 161.201 46.4C161.849 46.112 162.605 45.968 163.469 45.968C164.177 45.968 164.831 46.046 165.431 46.202C166.043 46.358 166.625 46.58 167.177 46.868L166.259 48.992C165.731 48.752 165.227 48.566 164.747 48.434C164.279 48.302 163.823 48.236 163.379 48.236C163.079 48.236 162.827 48.29 162.623 48.398C162.419 48.506 162.263 48.656 162.155 48.848C162.059 49.04 162.011 49.268 162.011 49.532C162.011 49.832 162.089 50.09 162.245 50.306C162.413 50.51 162.671 50.714 163.019 50.918C163.367 51.11 163.811 51.344 164.351 51.62C164.951 51.92 165.461 52.238 165.881 52.574C166.313 52.898 166.637 53.288 166.853 53.744C167.081 54.2 167.195 54.764 167.195 55.436ZM174.221 59H171.305V48.416H168.191V46.148H177.335V48.416H174.221V59ZM189.921 52.556C189.921 53.552 189.807 54.458 189.579 55.274C189.351 56.078 189.003 56.774 188.535 57.362C188.067 57.95 187.461 58.4 186.717 58.712C185.985 59.024 185.115 59.18 184.107 59.18C183.111 59.18 182.247 59.024 181.515 58.712C180.783 58.388 180.177 57.938 179.697 57.362C179.229 56.774 178.875 56.072 178.635 55.256C178.407 54.44 178.293 53.534 178.293 52.538C178.293 51.206 178.497 50.048 178.905 49.064C179.325 48.08 179.967 47.318 180.831 46.778C181.695 46.226 182.793 45.95 184.125 45.95C185.469 45.95 186.567 46.226 187.419 46.778C188.271 47.318 188.901 48.086 189.309 49.082C189.717 50.066 189.921 51.224 189.921 52.556ZM181.353 52.556C181.353 53.456 181.443 54.23 181.623 54.878C181.815 55.526 182.115 56.024 182.523 56.372C182.931 56.72 183.459 56.894 184.107 56.894C184.767 56.894 185.295 56.72 185.691 56.372C186.099 56.024 186.393 55.526 186.573 54.878C186.765 54.23 186.861 53.456 186.861 52.556C186.861 51.2 186.645 50.138 186.213 49.37C185.793 48.602 185.097 48.218 184.125 48.218C183.465 48.218 182.931 48.392 182.523 48.74C182.115 49.088 181.815 49.586 181.623 50.234C181.443 50.882 181.353 51.656 181.353 52.556ZM196.023 46.148C197.115 46.148 198.021 46.292 198.741 46.58C199.461 46.856 199.995 47.282 200.343 47.858C200.703 48.422 200.883 49.136 200.883 50C200.883 50.588 200.787 51.104 200.595 51.548C200.415 51.98 200.163 52.352 199.839 52.664C199.515 52.964 199.149 53.21 198.741 53.402L202.269 59H199.011L196.293 54.068H195.195V59H192.279V46.148H196.023ZM195.897 48.38H195.195V51.854H195.915C196.359 51.854 196.731 51.788 197.031 51.656C197.331 51.524 197.559 51.326 197.715 51.062C197.871 50.786 197.949 50.456 197.949 50.072C197.949 49.664 197.877 49.34 197.733 49.1C197.589 48.848 197.367 48.668 197.067 48.56C196.767 48.44 196.377 48.38 195.897 48.38ZM210.638 59H203.582V46.148H210.638V48.38H206.498V51.206H210.35V53.438H206.498V56.75H210.638V59Z" fill="white"/>
<mask id="mask0_2_33" style="mask-type:alpha" maskUnits="userSpaceOnUse" x="20" y="20" width="40" height="40">
<circle cx="40" cy="40" r="20" fill="#5778C5"/>
</mask>
<g mask="url(#mask0_2_33)">
<path d="M45.4207 38.206L12.3084 73.3526C12.3097 73.3598 12.3121 73.3659 12.3133 73.3733C13.3288 77.1899 16.8148 80 20.9518 80C22.6056 80 24.1583 79.5529 25.4899 78.768L25.5956 78.706L62.8697 57.1973L45.4224 38.2056" fill="#EB3131"/>
<path d="M78.9226 32.2223L78.8909 32.2006L62.7985 22.8716L44.6684 39.0046L62.8615 57.1953L78.8689 47.9592C81.6753 46.4441 83.5806 43.4855 83.5806 40.0737C83.5806 36.6864 81.7012 33.7424 78.9226 32.2223Z" fill="#F6B60B"/>
<path d="M12.3037 6.64505C12.1046 7.3791 12 8.14798 12 8.94641V71.0536C12 71.8505 12.1034 72.622 12.3049 73.3535L46.5604 39.1051L12.3049 6.64593" fill="#5778C5"/>
<path d="M45.6657 40L62.8057 22.8651L25.5736 1.27837C24.2203 0.467804 22.6408 0 20.9506 0C16.8136 0 13.3229 2.81527 12.3072 6.63623C12.306 6.63996 12.3049 6.64267 12.3049 6.64593L45.6657 40Z" fill="#3BAD49"/>
</g>
</g>
<defs>
<clipPath id="clip0_2_33">
<rect width="260" height="80" rx="40" fill="white"/>
</clipPath>
</defs>
</svg>
