<svg width="260" height="80" viewBox="0 0 260 80" fill="none" xmlns="http://www.w3.org/2000/svg">
<g clip-path="url(#clip0_2_16)">
<rect width="260" height="80" fill="#434B57"/>
<path d="M101.556 26.448C101.556 27.888 101.292 29.094 100.764 30.066C100.248 31.038 99.504 31.77 98.532 32.262C97.572 32.754 96.42 33 95.076 33H91.422V20.148H95.4C96.684 20.148 97.782 20.388 98.694 20.868C99.618 21.348 100.326 22.056 100.818 22.992C101.31 23.916 101.556 25.068 101.556 26.448ZM98.532 26.52C98.532 25.572 98.418 24.792 98.19 24.18C97.962 23.568 97.62 23.118 97.164 22.83C96.72 22.53 96.162 22.38 95.49 22.38H94.338V30.75H95.238C96.366 30.75 97.194 30.396 97.722 29.688C98.262 28.98 98.532 27.924 98.532 26.52ZM115.026 26.556C115.026 27.552 114.912 28.458 114.684 29.274C114.456 30.078 114.108 30.774 113.64 31.362C113.172 31.95 112.566 32.4 111.822 32.712C111.09 33.024 110.22 33.18 109.212 33.18C108.216 33.18 107.352 33.024 106.62 32.712C105.888 32.388 105.282 31.938 104.802 31.362C104.334 30.774 103.98 30.072 103.74 29.256C103.512 28.44 103.398 27.534 103.398 26.538C103.398 25.206 103.602 24.048 104.01 23.064C104.43 22.08 105.072 21.318 105.936 20.778C106.8 20.226 107.898 19.95 109.23 19.95C110.574 19.95 111.672 20.226 112.524 20.778C113.376 21.318 114.006 22.086 114.414 23.082C114.822 24.066 115.026 25.224 115.026 26.556ZM106.458 26.556C106.458 27.456 106.548 28.23 106.728 28.878C106.92 29.526 107.22 30.024 107.628 30.372C108.036 30.72 108.564 30.894 109.212 30.894C109.872 30.894 110.4 30.72 110.796 30.372C111.204 30.024 111.498 29.526 111.678 28.878C111.87 28.23 111.966 27.456 111.966 26.556C111.966 25.2 111.75 24.138 111.318 23.37C110.898 22.602 110.202 22.218 109.23 22.218C108.57 22.218 108.036 22.392 107.628 22.74C107.22 23.088 106.92 23.586 106.728 24.234C106.548 24.882 106.458 25.656 106.458 26.556ZM132.653 20.148L129.611 33H126.227L124.805 26.25C124.781 26.118 124.745 25.92 124.697 25.656C124.649 25.392 124.595 25.104 124.535 24.792C124.487 24.48 124.439 24.186 124.391 23.91C124.355 23.622 124.325 23.4 124.301 23.244C124.289 23.4 124.259 23.622 124.211 23.91C124.163 24.186 124.109 24.48 124.049 24.792C124.001 25.092 123.953 25.38 123.905 25.656C123.857 25.92 123.815 26.124 123.779 26.268L122.357 33H118.973L115.931 20.148H118.775L120.197 27.168C120.233 27.372 120.281 27.624 120.341 27.924C120.401 28.212 120.461 28.518 120.521 28.842C120.581 29.154 120.635 29.46 120.683 29.76C120.731 30.06 120.767 30.318 120.791 30.534C120.827 30.306 120.869 30.048 120.917 29.76C120.977 29.46 121.031 29.154 121.079 28.842C121.139 28.53 121.193 28.242 121.241 27.978C121.301 27.702 121.349 27.48 121.385 27.312L122.951 20.148H125.651L127.181 27.348C127.217 27.504 127.259 27.72 127.307 27.996C127.367 28.26 127.427 28.548 127.487 28.86C127.547 29.172 127.601 29.478 127.649 29.778C127.697 30.066 127.739 30.318 127.775 30.534C127.811 30.234 127.865 29.88 127.937 29.472C128.009 29.052 128.087 28.632 128.171 28.212C128.255 27.792 128.327 27.444 128.387 27.168L129.809 20.148H132.653ZM145.313 33H141.551L136.709 23.28H136.637C136.649 23.58 136.661 23.886 136.673 24.198C136.685 24.498 136.697 24.804 136.709 25.116C136.733 25.416 136.751 25.722 136.763 26.034C136.775 26.334 136.787 26.64 136.799 26.952V33H134.207V20.148H137.951L142.775 29.778H142.829C142.829 29.478 142.823 29.184 142.811 28.896C142.799 28.596 142.781 28.302 142.757 28.014C142.745 27.714 142.733 27.42 142.721 27.132C142.709 26.832 142.703 26.532 142.703 26.232V20.148H145.313V33ZM148.164 33V20.148H151.08V30.75H155.85V33H148.164ZM168.657 26.556C168.657 27.552 168.543 28.458 168.315 29.274C168.087 30.078 167.739 30.774 167.271 31.362C166.803 31.95 166.197 32.4 165.453 32.712C164.721 33.024 163.851 33.18 162.843 33.18C161.847 33.18 160.983 33.024 160.251 32.712C159.519 32.388 158.913 31.938 158.433 31.362C157.965 30.774 157.611 30.072 157.371 29.256C157.143 28.44 157.029 27.534 157.029 26.538C157.029 25.206 157.233 24.048 157.641 23.064C158.061 22.08 158.703 21.318 159.567 20.778C160.431 20.226 161.529 19.95 162.861 19.95C164.205 19.95 165.303 20.226 166.155 20.778C167.007 21.318 167.637 22.086 168.045 23.082C168.453 24.066 168.657 25.224 168.657 26.556ZM160.089 26.556C160.089 27.456 160.179 28.23 160.359 28.878C160.551 29.526 160.851 30.024 161.259 30.372C161.667 30.72 162.195 30.894 162.843 30.894C163.503 30.894 164.031 30.72 164.427 30.372C164.835 30.024 165.129 29.526 165.309 28.878C165.501 28.23 165.597 27.456 165.597 26.556C165.597 25.2 165.381 24.138 164.949 23.37C164.529 22.602 163.833 22.218 162.861 22.218C162.201 22.218 161.667 22.392 161.259 22.74C160.851 23.088 160.551 23.586 160.359 24.234C160.179 24.882 160.089 25.656 160.089 26.556ZM178.08 33L177.342 29.94H173.184L172.428 33H169.26L173.364 20.094H177.108L181.23 33H178.08ZM175.866 24.666C175.794 24.414 175.722 24.15 175.65 23.874C175.578 23.598 175.506 23.31 175.434 23.01C175.374 22.71 175.314 22.404 175.254 22.092C175.206 22.404 175.146 22.716 175.074 23.028C175.002 23.328 174.93 23.616 174.858 23.892C174.798 24.168 174.732 24.426 174.66 24.666L173.832 27.654H176.712L175.866 24.666ZM192.786 26.448C192.786 27.888 192.522 29.094 191.994 30.066C191.478 31.038 190.734 31.77 189.762 32.262C188.802 32.754 187.65 33 186.306 33H182.652V20.148H186.63C187.914 20.148 189.012 20.388 189.924 20.868C190.848 21.348 191.556 22.056 192.048 22.992C192.54 23.916 192.786 25.068 192.786 26.448ZM189.762 26.52C189.762 25.572 189.648 24.792 189.42 24.18C189.192 23.568 188.85 23.118 188.394 22.83C187.95 22.53 187.392 22.38 186.72 22.38H185.568V30.75H186.468C187.596 30.75 188.424 30.396 188.952 29.688C189.492 28.98 189.762 27.924 189.762 26.52ZM210.651 26.556C210.651 27.552 210.537 28.458 210.309 29.274C210.081 30.078 209.733 30.774 209.265 31.362C208.797 31.95 208.191 32.4 207.447 32.712C206.715 33.024 205.845 33.18 204.837 33.18C203.841 33.18 202.977 33.024 202.245 32.712C201.513 32.388 200.907 31.938 200.427 31.362C199.959 30.774 199.605 30.072 199.365 29.256C199.137 28.44 199.023 27.534 199.023 26.538C199.023 25.206 199.227 24.048 199.635 23.064C200.055 22.08 200.697 21.318 201.561 20.778C202.425 20.226 203.523 19.95 204.855 19.95C206.199 19.95 207.297 20.226 208.149 20.778C209.001 21.318 209.631 22.086 210.039 23.082C210.447 24.066 210.651 25.224 210.651 26.556ZM202.083 26.556C202.083 27.456 202.173 28.23 202.353 28.878C202.545 29.526 202.845 30.024 203.253 30.372C203.661 30.72 204.189 30.894 204.837 30.894C205.497 30.894 206.025 30.72 206.421 30.372C206.829 30.024 207.123 29.526 207.303 28.878C207.495 28.23 207.591 27.456 207.591 26.556C207.591 25.2 207.375 24.138 206.943 23.37C206.523 22.602 205.827 22.218 204.855 22.218C204.195 22.218 203.661 22.392 203.253 22.74C202.845 23.088 202.545 23.586 202.353 24.234C202.173 24.882 202.083 25.656 202.083 26.556ZM224.116 33H220.354L215.512 23.28H215.44C215.452 23.58 215.464 23.886 215.476 24.198C215.488 24.498 215.5 24.804 215.512 25.116C215.536 25.416 215.554 25.722 215.566 26.034C215.578 26.334 215.59 26.64 215.602 26.952V33H213.01V20.148H216.754L221.578 29.778H221.632C221.632 29.478 221.626 29.184 221.614 28.896C221.602 28.596 221.584 28.302 221.56 28.014C221.548 27.714 221.536 27.42 221.524 27.132C221.512 26.832 221.506 26.532 221.506 26.232V20.148H224.116V33ZM96.408 60H93.492V49.416H90.378V47.148H99.522V49.416H96.408V60ZM111.452 60H108.518V54.456H104.234V60H101.318V47.148H104.234V52.188H108.518V47.148H111.452V60ZM121.347 60H114.291V47.148H121.347V49.38H117.207V52.206H121.059V54.438H117.207V57.75H121.347V60ZM132.086 47.148C133.634 47.148 134.774 47.508 135.506 48.228C136.25 48.936 136.622 49.914 136.622 51.162C136.622 51.726 136.544 52.266 136.388 52.782C136.232 53.286 135.974 53.742 135.614 54.15C135.254 54.546 134.774 54.858 134.174 55.086C133.586 55.314 132.86 55.428 131.996 55.428H130.988V60H128.072V47.148H132.086ZM131.996 49.38H130.988V53.196H131.726C132.11 53.196 132.452 53.13 132.752 52.998C133.052 52.866 133.286 52.656 133.454 52.368C133.622 52.08 133.706 51.708 133.706 51.252C133.706 50.616 133.562 50.148 133.274 49.848C132.998 49.536 132.572 49.38 131.996 49.38ZM138.742 60V47.148H141.658V57.75H146.428V60H138.742ZM155.843 60L155.105 56.94H150.947L150.191 60H147.023L151.127 47.094H154.871L158.993 60H155.843ZM153.629 51.666C153.557 51.414 153.485 51.15 153.413 50.874C153.341 50.598 153.269 50.31 153.197 50.01C153.137 49.71 153.077 49.404 153.017 49.092C152.969 49.404 152.909 49.716 152.837 50.028C152.765 50.328 152.693 50.616 152.621 50.892C152.561 51.168 152.495 51.426 152.423 51.666L151.595 54.654H154.475L153.629 51.666ZM163.446 52.44L165.75 47.148H168.882L164.886 54.996V60H161.988V55.086L157.992 47.148H161.16L163.446 52.44ZM182.195 56.436C182.195 57.192 182.027 57.852 181.691 58.416C181.355 58.98 180.845 59.418 180.161 59.73C179.489 60.03 178.637 60.18 177.605 60.18C177.125 60.18 176.681 60.15 176.273 60.09C175.865 60.03 175.481 59.946 175.121 59.838C174.761 59.718 174.401 59.574 174.041 59.406V56.868C174.653 57.132 175.277 57.378 175.913 57.606C176.561 57.822 177.173 57.93 177.749 57.93C178.121 57.93 178.421 57.87 178.649 57.75C178.877 57.63 179.045 57.468 179.153 57.264C179.261 57.06 179.315 56.826 179.315 56.562C179.315 56.238 179.225 55.962 179.045 55.734C178.877 55.506 178.625 55.296 178.289 55.104C177.953 54.9 177.539 54.696 177.047 54.492C176.687 54.336 176.333 54.156 175.985 53.952C175.637 53.748 175.325 53.502 175.049 53.214C174.773 52.914 174.551 52.554 174.383 52.134C174.227 51.714 174.149 51.21 174.149 50.622C174.149 49.854 174.329 49.2 174.689 48.66C175.049 48.108 175.553 47.688 176.201 47.4C176.849 47.112 177.605 46.968 178.469 46.968C179.177 46.968 179.831 47.046 180.431 47.202C181.043 47.358 181.625 47.58 182.177 47.868L181.259 49.992C180.731 49.752 180.227 49.566 179.747 49.434C179.279 49.302 178.823 49.236 178.379 49.236C178.079 49.236 177.827 49.29 177.623 49.398C177.419 49.506 177.263 49.656 177.155 49.848C177.059 50.04 177.011 50.268 177.011 50.532C177.011 50.832 177.089 51.09 177.245 51.306C177.413 51.51 177.671 51.714 178.019 51.918C178.367 52.11 178.811 52.344 179.351 52.62C179.951 52.92 180.461 53.238 180.881 53.574C181.313 53.898 181.637 54.288 181.853 54.744C182.081 55.2 182.195 55.764 182.195 56.436ZM189.221 60H186.305V49.416H183.191V47.148H192.335V49.416H189.221V60ZM204.921 53.556C204.921 54.552 204.807 55.458 204.579 56.274C204.351 57.078 204.003 57.774 203.535 58.362C203.067 58.95 202.461 59.4 201.717 59.712C200.985 60.024 200.115 60.18 199.107 60.18C198.111 60.18 197.247 60.024 196.515 59.712C195.783 59.388 195.177 58.938 194.697 58.362C194.229 57.774 193.875 57.072 193.635 56.256C193.407 55.44 193.293 54.534 193.293 53.538C193.293 52.206 193.497 51.048 193.905 50.064C194.325 49.08 194.967 48.318 195.831 47.778C196.695 47.226 197.793 46.95 199.125 46.95C200.469 46.95 201.567 47.226 202.419 47.778C203.271 48.318 203.901 49.086 204.309 50.082C204.717 51.066 204.921 52.224 204.921 53.556ZM196.353 53.556C196.353 54.456 196.443 55.23 196.623 55.878C196.815 56.526 197.115 57.024 197.523 57.372C197.931 57.72 198.459 57.894 199.107 57.894C199.767 57.894 200.295 57.72 200.691 57.372C201.099 57.024 201.393 56.526 201.573 55.878C201.765 55.23 201.861 54.456 201.861 53.556C201.861 52.2 201.645 51.138 201.213 50.37C200.793 49.602 200.097 49.218 199.125 49.218C198.465 49.218 197.931 49.392 197.523 49.74C197.115 50.088 196.815 50.586 196.623 51.234C196.443 51.882 196.353 52.656 196.353 53.556ZM211.023 47.148C212.115 47.148 213.021 47.292 213.741 47.58C214.461 47.856 214.995 48.282 215.343 48.858C215.703 49.422 215.883 50.136 215.883 51C215.883 51.588 215.787 52.104 215.595 52.548C215.415 52.98 215.163 53.352 214.839 53.664C214.515 53.964 214.149 54.21 213.741 54.402L217.269 60H214.011L211.293 55.068H210.195V60H207.279V47.148H211.023ZM210.897 49.38H210.195V52.854H210.915C211.359 52.854 211.731 52.788 212.031 52.656C212.331 52.524 212.559 52.326 212.715 52.062C212.871 51.786 212.949 51.456 212.949 51.072C212.949 50.664 212.877 50.34 212.733 50.1C212.589 49.848 212.367 49.668 212.067 49.56C211.767 49.44 211.377 49.38 210.897 49.38ZM225.638 60H218.582V47.148H225.638V49.38H221.498V52.206H225.35V54.438H221.498V57.75H225.638V60Z" fill="white"/>
<mask id="mask0_2_16" style="mask-type:alpha" maskUnits="userSpaceOnUse" x="20" y="15" width="50" height="50">
<circle cx="45" cy="40" r="25" fill="#5778C5"/>
</mask>
<g mask="url(#mask0_2_16)">
<path d="M53.4207 38.206L20.3084 73.3526C20.3097 73.3598 20.3121 73.3659 20.3133 73.3733C21.3288 77.1899 24.8148 80 28.9518 80C30.6056 80 32.1583 79.5529 33.4899 78.768L33.5956 78.706L70.8697 57.1973L53.4224 38.2056" fill="#EB3131"/>
<path d="M86.9226 32.2223L86.8909 32.2006L70.7985 22.8716L52.6684 39.0046L70.8615 57.1953L86.8689 47.9592C89.6753 46.4441 91.5806 43.4855 91.5806 40.0737C91.5806 36.6864 89.7012 33.7424 86.9226 32.2223Z" fill="#F6B60B"/>
<path d="M20.3037 6.64505C20.1046 7.3791 20 8.14798 20 8.94641V71.0536C20 71.8505 20.1034 72.622 20.3049 73.3535L54.5604 39.1051L20.3049 6.64593" fill="#5778C5"/>
<path d="M53.6657 40L70.8057 22.8651L33.5736 1.27837C32.2203 0.467804 30.6408 0 28.9506 0C24.8136 0 21.3229 2.81527 20.3072 6.63623C20.306 6.63996 20.3049 6.64267 20.3049 6.64593L53.6657 40Z" fill="#3BAD49"/>
</g>
</g>
<defs>
<clipPath id="clip0_2_16">
<rect width="260" height="80" fill="white"/>
</clipPath>
</defs>
</svg>
