<svg width="260" height="80" viewBox="0 0 260 80" fill="none" xmlns="http://www.w3.org/2000/svg">
<g clip-path="url(#clip0_101_11)">
<rect width="260" height="80" fill="#FF5E5B"/>
<path d="M64.4766 49.7031C64.4766 50.9375 64.3438 52.0234 64.0781 52.9609C63.8281 53.8828 63.4922 54.6797 63.0703 55.3516C62.6641 56.0078 62.2031 56.5547 61.6875 56.9922C61.1719 57.4141 60.6406 57.75 60.0938 58C59.5625 58.25 59.0469 58.4219 58.5469 58.5156C58.0625 58.625 57.6406 58.6797 57.2812 58.6797C57.0938 58.6797 56.8359 58.6641 56.5078 58.6328C56.1797 58.6172 55.8047 58.5703 55.3828 58.4922C54.9609 58.4141 54.4922 58.2969 53.9766 58.1406C53.4766 58 52.9453 57.7969 52.3828 57.5312L52.6406 51.625C53.5625 52.4062 54.3828 52.9297 55.1016 53.1953C55.8359 53.4609 56.4531 53.5938 56.9531 53.5938C57.9219 53.5938 58.6484 53.2422 59.1328 52.5391C59.6328 51.8359 59.8828 50.9219 59.8828 49.7969C59.8828 49.0469 59.6953 48.2109 59.3203 47.2891C58.9609 46.3516 58.3125 45.3438 57.375 44.2656C56.7344 43.5156 56.0703 42.7344 55.3828 41.9219C54.6953 41.1094 54.0703 40.2422 53.5078 39.3203C52.9453 38.3984 52.4844 37.4062 52.125 36.3438C51.7656 35.2812 51.5859 34.1328 51.5859 32.8984C51.5859 31.3359 51.7969 29.9844 52.2188 28.8438C52.6562 27.7031 53.2344 26.7578 53.9531 26.0078C54.6719 25.2578 55.4922 24.7031 56.4141 24.3438C57.3516 23.9688 58.3281 23.7812 59.3438 23.7812C60.2344 23.7812 61.1406 23.9062 62.0625 24.1562C63 24.3906 63.9375 24.7578 64.875 25.2578L64.4297 31.1641C64.0234 30.6484 63.5938 30.2422 63.1406 29.9453C62.7031 29.6328 62.2734 29.3984 61.8516 29.2422C61.4453 29.0859 61.0625 28.9844 60.7031 28.9375C60.3594 28.8906 60.0703 28.8672 59.8359 28.8672C59.3828 28.8672 58.9609 28.9844 58.5703 29.2188C58.1953 29.4375 57.8672 29.7422 57.5859 30.1328C57.3203 30.5078 57.1094 30.9609 56.9531 31.4922C56.7969 32.0078 56.7188 32.5547 56.7188 33.1328C56.7188 34.0234 56.9062 34.8281 57.2812 35.5469C57.6719 36.2656 58.1562 36.9766 58.7344 37.6797C59.3125 38.3828 59.9297 39.1094 60.5859 39.8594C61.2578 40.5938 61.8828 41.4297 62.4609 42.3672C63.0391 43.2891 63.5156 44.3516 63.8906 45.5547C64.2812 46.7422 64.4766 48.125 64.4766 49.7031ZM80.4141 24.0625C80.7734 27.25 81.0234 30.4766 81.1641 33.7422C81.3047 36.9922 81.375 40.3906 81.375 43.9375C81.375 45.1406 81.3203 46.3359 81.2109 47.5234C81.1172 48.6953 80.9453 49.8203 80.6953 50.8984C80.4609 51.9609 80.1406 52.9531 79.7344 53.875C79.3438 54.7812 78.8516 55.5703 78.2578 56.2422C77.6641 56.8984 76.9609 57.4219 76.1484 57.8125C75.3359 58.1875 74.4062 58.375 73.3594 58.375C72.4219 58.375 71.6016 58.2031 70.8984 57.8594C70.1953 57.5 69.5938 57.0156 69.0938 56.4062C68.5938 55.7812 68.1719 55.0547 67.8281 54.2266C67.5 53.3828 67.2422 52.4766 67.0547 51.5078C66.8672 50.5234 66.7344 49.5 66.6562 48.4375C66.5781 47.375 66.5391 46.3047 66.5391 45.2266C66.5391 41.9766 66.6719 38.6875 66.9375 35.3594C67.2031 32.0156 67.5156 28.5547 67.875 24.9766L72.7734 25.0703C72.4922 28.4297 72.2266 31.8203 71.9766 35.2422C71.7422 38.6641 71.625 42.1875 71.625 45.8125C71.625 46.8594 71.6562 47.8516 71.7188 48.7891C71.7812 49.7266 71.8906 50.5547 72.0469 51.2734C72.2031 51.9766 72.3984 52.5391 72.6328 52.9609C72.8828 53.3828 73.1875 53.5938 73.5469 53.5938C73.9688 53.5938 74.3516 53.2656 74.6953 52.6094C75.0547 51.9375 75.3516 51.0625 75.5859 49.9844C75.8359 48.8906 76.0312 47.6484 76.1719 46.2578C76.3125 44.8672 76.3828 43.4531 76.3828 42.0156C76.3828 40.6406 76.3672 39.2578 76.3359 37.8672C76.3203 36.4766 76.2891 35.0703 76.2422 33.6484C76.1953 32.2109 76.1328 30.75 76.0547 29.2656C75.9766 27.7656 75.875 26.2109 75.75 24.6016L80.4141 24.0625ZM98.3906 34.7266C98.3906 36.0703 98.2109 37.3906 97.8516 38.6875C97.5078 39.9688 96.9688 41.1562 96.2344 42.25C95.5156 43.3438 94.6016 44.3125 93.4922 45.1562C92.3828 45.9844 91.0703 46.6172 89.5547 47.0547C89.5859 48.9453 89.625 50.8203 89.6719 52.6797C89.7344 54.5234 89.8047 56.3594 89.8828 58.1875H84.1641C84.4141 54.6406 84.5938 51.0938 84.7031 47.5469C84.8281 44 84.8906 40.4297 84.8906 36.8359C84.8906 34.7578 84.875 32.6875 84.8438 30.625C84.8125 28.5469 84.75 26.4531 84.6562 24.3438C85.4844 24.0938 86.3203 23.9297 87.1641 23.8516C88.0234 23.7734 88.75 23.7344 89.3438 23.7344C89.7656 23.7344 90.2812 23.7812 90.8906 23.875C91.5156 23.9688 92.1562 24.1562 92.8125 24.4375C93.4844 24.7031 94.1484 25.0859 94.8047 25.5859C95.4766 26.0703 96.0781 26.7266 96.6094 27.5547C97.1406 28.3672 97.5703 29.3594 97.8984 30.5312C98.2266 31.7031 98.3906 33.1016 98.3906 34.7266ZM89.5547 43.0703C90.0703 42.8828 90.5156 42.6328 90.8906 42.3203C91.2812 42.0078 91.6172 41.6641 91.8984 41.2891C92.1953 40.8984 92.4375 40.4844 92.625 40.0469C92.8281 39.6094 92.9922 39.1797 93.1172 38.7578C93.4141 37.7734 93.5859 36.7031 93.6328 35.5469C93.6328 35.5312 93.625 35.3516 93.6094 35.0078C93.6094 34.6641 93.5703 34.2344 93.4922 33.7188C93.4297 33.1875 93.3203 32.6094 93.1641 31.9844C93.0078 31.3438 92.7891 30.7344 92.5078 30.1562C92.2422 29.5781 91.8906 29.0625 91.4531 28.6094C91.0312 28.1406 90.5078 27.8125 89.8828 27.625C89.7578 30.0469 89.6719 32.4766 89.625 34.9141C89.5781 37.3359 89.5547 39.7812 89.5547 42.25V43.0703ZM114.328 34.7266C114.328 36.0703 114.148 37.3906 113.789 38.6875C113.445 39.9688 112.906 41.1562 112.172 42.25C111.453 43.3438 110.539 44.3125 109.43 45.1562C108.32 45.9844 107.008 46.6172 105.492 47.0547C105.523 48.9453 105.562 50.8203 105.609 52.6797C105.672 54.5234 105.742 56.3594 105.82 58.1875H100.102C100.352 54.6406 100.531 51.0938 100.641 47.5469C100.766 44 100.828 40.4297 100.828 36.8359C100.828 34.7578 100.812 32.6875 100.781 30.625C100.75 28.5469 100.688 26.4531 100.594 24.3438C101.422 24.0938 102.258 23.9297 103.102 23.8516C103.961 23.7734 104.688 23.7344 105.281 23.7344C105.703 23.7344 106.219 23.7812 106.828 23.875C107.453 23.9688 108.094 24.1562 108.75 24.4375C109.422 24.7031 110.086 25.0859 110.742 25.5859C111.414 26.0703 112.016 26.7266 112.547 27.5547C113.078 28.3672 113.508 29.3594 113.836 30.5312C114.164 31.7031 114.328 33.1016 114.328 34.7266ZM105.492 43.0703C106.008 42.8828 106.453 42.6328 106.828 42.3203C107.219 42.0078 107.555 41.6641 107.836 41.2891C108.133 40.8984 108.375 40.4844 108.562 40.0469C108.766 39.6094 108.93 39.1797 109.055 38.7578C109.352 37.7734 109.523 36.7031 109.57 35.5469C109.57 35.5312 109.562 35.3516 109.547 35.0078C109.547 34.6641 109.508 34.2344 109.43 33.7188C109.367 33.1875 109.258 32.6094 109.102 31.9844C108.945 31.3438 108.727 30.7344 108.445 30.1562C108.18 29.5781 107.828 29.0625 107.391 28.6094C106.969 28.1406 106.445 27.8125 105.82 27.625C105.695 30.0469 105.609 32.4766 105.562 34.9141C105.516 37.3359 105.492 39.7812 105.492 42.25V43.0703ZM132.164 41.5938C132.164 44.7344 131.945 47.3984 131.508 49.5859C131.086 51.7734 130.508 53.5547 129.773 54.9297C129.039 56.2891 128.172 57.2812 127.172 57.9062C126.172 58.5156 125.102 58.8203 123.961 58.8203C122.82 58.8203 121.75 58.5312 120.75 57.9531C119.75 57.3594 118.875 56.3906 118.125 55.0469C117.375 53.7031 116.781 51.9297 116.344 49.7266C115.922 47.5234 115.711 44.8125 115.711 41.5938C115.711 38.3594 115.922 35.6172 116.344 33.3672C116.781 31.1016 117.375 29.2656 118.125 27.8594C118.875 26.4375 119.75 25.4141 120.75 24.7891C121.75 24.1484 122.82 23.8281 123.961 23.8281C125.102 23.8281 126.172 24.1406 127.172 24.7656C128.172 25.375 129.039 26.3828 129.773 27.7891C130.508 29.1953 131.086 31.0312 131.508 33.2969C131.945 35.5469 132.164 38.3125 132.164 41.5938ZM126.938 41.5938C126.938 39.1406 126.859 37.0703 126.703 35.3828C126.547 33.6953 126.328 32.3281 126.047 31.2812C125.781 30.2188 125.469 29.4531 125.109 28.9844C124.75 28.5156 124.367 28.2812 123.961 28.2812C123.539 28.2812 123.141 28.5234 122.766 29.0078C122.406 29.4766 122.086 30.2422 121.805 31.3047C121.539 32.3516 121.328 33.7266 121.172 35.4297C121.016 37.1172 120.938 39.1719 120.938 41.5938C120.938 44 121.016 46.0234 121.172 47.6641C121.328 49.2891 121.539 50.6016 121.805 51.6016C122.086 52.5859 122.406 53.2891 122.766 53.7109C123.141 54.1328 123.539 54.3438 123.961 54.3438C124.367 54.3438 124.75 54.125 125.109 53.6875C125.469 53.2344 125.781 52.5078 126.047 51.5078C126.328 50.4922 126.547 49.1719 126.703 47.5469C126.859 45.9219 126.938 43.9375 126.938 41.5938ZM148.43 34.375C148.43 35.4219 148.328 36.4766 148.125 37.5391C147.938 38.5859 147.625 39.6016 147.188 40.5859C146.75 41.5547 146.188 42.4688 145.5 43.3281C144.812 44.1719 143.969 44.9219 142.969 45.5781C143.844 47.8125 144.805 49.9609 145.852 52.0234C146.914 54.0703 148.094 56.0469 149.391 57.9531L143.531 58.2812L139.547 46.9609C139.609 48.8672 139.688 50.7578 139.781 52.6328C139.875 54.5078 139.992 56.3594 140.133 58.1875H134.414C134.664 54.6406 134.844 51.0938 134.953 47.5469C135.078 44 135.141 40.4297 135.141 36.8359C135.141 34.7578 135.125 32.6875 135.094 30.625C135.062 28.5469 135 26.4531 134.906 24.3438C135.734 24.0938 136.57 23.9297 137.414 23.8516C138.273 23.7734 139 23.7344 139.594 23.7344C140.016 23.7344 140.523 23.7812 141.117 23.875C141.727 23.9531 142.359 24.125 143.016 24.3906C143.672 24.6562 144.32 25.0312 144.961 25.5156C145.617 26 146.195 26.6406 146.695 27.4375C147.211 28.2188 147.625 29.1797 147.938 30.3203C148.266 31.4453 148.43 32.7969 148.43 34.375ZM139.5 43.1641C140.047 43.0078 140.523 42.7812 140.93 42.4844C141.352 42.1719 141.719 41.8203 142.031 41.4297C142.344 41.0391 142.602 40.625 142.805 40.1875C143.023 39.75 143.203 39.3125 143.344 38.875C143.656 37.8594 143.836 36.75 143.883 35.5469C143.883 35.5156 143.875 35.3281 143.859 34.9844C143.859 34.625 143.82 34.1797 143.742 33.6484C143.664 33.1172 143.547 32.5391 143.391 31.9141C143.25 31.2891 143.039 30.6875 142.758 30.1094C142.477 29.5156 142.117 28.9922 141.68 28.5391C141.242 28.0859 140.711 27.7656 140.086 27.5781C139.898 30.0312 139.75 32.4766 139.641 34.9141C139.547 37.3359 139.5 39.7812 139.5 42.25V43.1641ZM162.492 29.2422C161.992 29.2109 161.414 29.1875 160.758 29.1719C160.117 29.1562 159.43 29.1484 158.695 29.1484C158.586 30.6016 158.492 32.1094 158.414 33.6719C158.352 35.2188 158.297 36.7969 158.25 38.4062C158.203 40 158.172 41.6094 158.156 43.2344C158.141 44.8438 158.133 46.4375 158.133 48.0156C158.133 49.8125 158.141 51.5547 158.156 53.2422C158.188 54.9141 158.242 56.5312 158.32 58.0938H153.328C153.469 55.4375 153.578 52.6094 153.656 49.6094C153.734 46.6094 153.773 43.5859 153.773 40.5391C153.773 38.5547 153.75 36.6172 153.703 34.7266C153.656 32.8359 153.609 30.9922 153.562 29.1953C152.812 29.1953 152.102 29.2031 151.43 29.2188C150.758 29.2344 150.156 29.2578 149.625 29.2891L149.672 24.3906C150.234 24.4375 150.867 24.4766 151.57 24.5078C152.273 24.5234 153.008 24.5391 153.773 24.5547C154.555 24.5703 155.352 24.5859 156.164 24.6016C156.977 24.6016 157.773 24.6016 158.555 24.6016C159.336 24.6016 160.07 24.6016 160.758 24.6016C161.461 24.6016 162.086 24.5859 162.633 24.5547L162.492 29.2422ZM188.672 58.0469C188.719 55.6562 188.773 53.2266 188.836 50.7578C188.852 49.7109 188.867 48.6016 188.883 47.4297C188.914 46.2578 188.938 45.0703 188.953 43.8672C188.969 42.6641 188.977 41.4609 188.977 40.2578C188.992 39.0547 189 37.8984 189 36.7891C189 36.0547 189 35.3594 189 34.7031C189 34.0312 188.984 33.3984 188.953 32.8047C188.766 33.9609 188.523 35.4531 188.227 37.2812C187.945 39.0938 187.648 41.1016 187.336 43.3047C187.023 45.4922 186.711 47.8125 186.398 50.2656C186.102 52.7188 185.836 55.1562 185.602 57.5781L181.148 57.4609C180.773 55.0234 180.406 52.625 180.047 50.2656C179.703 47.9062 179.367 45.6641 179.039 43.5391C178.727 41.4141 178.438 39.4453 178.172 37.6328C177.906 35.8203 177.68 34.2422 177.492 32.8984V41.0547C177.492 42.7422 177.5 44.4453 177.516 46.1641C177.531 47.8672 177.547 49.4766 177.562 50.9922C177.594 52.5078 177.633 53.875 177.68 55.0938C177.727 56.2969 177.789 57.2344 177.867 57.9062L171.492 58.2812C171.727 56.9531 171.914 55.4609 172.055 53.8047C172.211 52.1484 172.328 50.4141 172.406 48.6016C172.5 46.7891 172.562 44.9453 172.594 43.0703C172.625 41.1953 172.641 39.375 172.641 37.6094C172.641 35.7969 172.625 34.1016 172.594 32.5234C172.578 30.9453 172.555 29.5625 172.523 28.375C172.477 26.9844 172.438 25.7109 172.406 24.5547C172.906 24.6328 173.43 24.7031 173.977 24.7656C174.523 24.8125 175.062 24.8516 175.594 24.8828C176.125 24.9141 176.641 24.9375 177.141 24.9531C177.641 24.9688 178.094 24.9766 178.5 24.9766C178.766 24.9766 179.008 24.9766 179.227 24.9766C179.461 24.9766 179.664 24.9688 179.836 24.9531C180.023 24.9531 180.188 24.9453 180.328 24.9297C181.078 30.1172 181.711 34.4922 182.227 38.0547C182.742 41.6172 183.148 44.3281 183.445 46.1875C183.617 45 183.781 43.7812 183.938 42.5312C184.109 41.2656 184.266 40.0156 184.406 38.7812C184.547 37.5469 184.672 36.3438 184.781 35.1719C184.906 33.9844 185.016 32.8672 185.109 31.8203C185.328 29.3516 185.523 26.9609 185.695 24.6484C186.039 24.6797 186.414 24.7109 186.82 24.7422C187.18 24.7734 187.602 24.7969 188.086 24.8125C188.586 24.8281 189.133 24.8359 189.727 24.8359C190.32 24.8359 190.961 24.8281 191.648 24.8125C192.336 24.7812 193.055 24.7266 193.805 24.6484C193.617 30.4922 193.523 35.5469 193.523 39.8125C193.523 42.9531 193.555 45.6562 193.617 47.9219C193.695 50.1875 193.773 52.0625 193.852 53.5469C193.945 55.2969 194.062 56.75 194.203 57.9062L188.672 58.0469ZM206.648 45.4609C206.164 45.4297 205.672 45.4062 205.172 45.3906C204.672 45.375 204.172 45.3672 203.672 45.3672C203.391 45.3672 203.094 45.375 202.781 45.3906C202.484 45.4062 202.188 45.4141 201.891 45.4141L201.797 53.7812C203.078 53.75 204.32 53.6875 205.523 53.5938C206.742 53.5 208.031 53.3516 209.391 53.1484V58.0469C208.516 58.0156 207.664 57.9922 206.836 57.9766C206.023 57.9609 205.211 57.9531 204.398 57.9531C203.18 57.9531 201.977 57.9688 200.789 58C199.602 58.0469 198.375 58.1094 197.109 58.1875C197.25 55.2812 197.359 52.4062 197.438 49.5625C197.531 46.7031 197.578 43.8203 197.578 40.9141C197.578 38.1328 197.539 35.375 197.461 32.6406C197.398 29.8906 197.281 27.125 197.109 24.3438C198.953 24.4844 200.711 24.5547 202.383 24.5547C203.445 24.5547 204.5 24.5312 205.547 24.4844C206.609 24.4219 207.742 24.3438 208.945 24.25V29.6406C207.977 29.4688 207.016 29.3359 206.062 29.2422C205.125 29.1484 204.188 29.1016 203.25 29.1016H202.336C202.18 31.0547 202.07 33 202.008 34.9375C201.961 36.875 201.922 38.8203 201.891 40.7734C202.297 40.8047 202.703 40.8203 203.109 40.8203C203.531 40.8203 203.961 40.8203 204.398 40.8203C204.758 40.8203 205.125 40.8203 205.5 40.8203C205.875 40.8203 206.258 40.8047 206.648 40.7734V45.4609Z" fill="white"/>
</g>
<defs>
<clipPath id="clip0_101_11">
<rect width="260" height="80" fill="white"/>
</clipPath>
</defs>
</svg>
